solid Untitled-592d564d
facet normal 2.220446049250313e-16 -1.0 2.4523709808948637e-16
  outer loop
    vertex 31.772902916264222 5.490811793102506 2.400000000000001
    vertex 1.127986593019159e-14 5.490811793102438 1.2000000000000002
    vertex 31.772902916264222 5.490811793102506 1.2000000000000002
  endloop
endfacet
facet normal 2.220446049250313e-16 -1.0 2.4523709808948637e-16
  outer loop
    vertex 1.127986593019159e-14 5.490811793102438 1.2000000000000002
    vertex 31.772902916264222 5.490811793102506 2.400000000000001
    vertex 1.127986593019159e-14 5.490811793102438 2.3999999999999995
  endloop
endfacet
facet normal -2.052438817239788e-18 1.0624271855724124e-17 1.0
  outer loop
    vertex 1.127986593019159e-14 5.490811793102438 2.3999999999999995
    vertex 0.758235238657064 14.157480228749423 2.3999999999999995
    vertex -4.511946372076636e-14 9.857314504760135 2.3999999999999995
  endloop
endfacet
facet normal -2.052438817239788e-18 1.0624271855724124e-17 1.0
  outer loop
    vertex 0.758235238657064 14.157480228749423 2.3999999999999995
    vertex 1.127986593019159e-14 5.490811793102438 2.3999999999999995
    vertex 31.772902916264222 5.490811793102506 2.400000000000001
  endloop
endfacet
facet normal -2.052438817239788e-18 1.0624271855724124e-17 1.0
  outer loop
    vertex 0.758235238657064 14.157480228749423 2.3999999999999995
    vertex 31.772902916264222 5.490811793102506 2.400000000000001
    vertex 31.772902916264236 7.0775456922773055 2.3999999999999995
  endloop
endfacet
facet normal -2.052438817239788e-18 1.0624271855724124e-17 1.0
  outer loop
    vertex 0.758235238657064 14.157480228749423 2.3999999999999995
    vertex 31.772902916264236 7.0775456922773055 2.3999999999999995
    vertex 32.04843636629829 8.64017353815192 2.3999999999999995
  endloop
endfacet
facet normal 0.17364817766693028 0.9848077530122081 0.0
  outer loop
    vertex 0.758235238657064 14.157480228749423 2.3999999999999995
    vertex 32.04843636629829 8.64017353815192 1.2000000000000002
    vertex 0.758235238657064 14.157480228749423 1.2000000000000002
  endloop
endfacet
facet normal 0.17364817766693028 0.9848077530122081 0.0
  outer loop
    vertex 32.04843636629829 8.64017353815192 1.2000000000000002
    vertex 0.758235238657064 14.157480228749423 2.3999999999999995
    vertex 32.04843636629829 8.64017353815192 2.3999999999999995
  endloop
endfacet
facet normal -0.17364817766693114 -0.9848077530122079 -5.70712733719339e-17
  outer loop
    vertex 33.95537528986694 19.454961586508276 2.3999999999999995
    vertex 2.6651741622257408 24.972268277105805 1.2000000000000002
    vertex 33.95537528986694 19.454961586508276 1.199999999999997
  endloop
endfacet
facet normal -0.17364817766693114 -0.9848077530122079 -5.70712733719339e-17
  outer loop
    vertex 2.6651741622257408 24.972268277105805 1.2000000000000002
    vertex 33.95537528986694 19.454961586508276 2.3999999999999995
    vertex 2.6651741622257408 24.972268277105805 2.3999999999999995
  endloop
endfacet
facet normal 0.0 0.0 1.0
  outer loop
    vertex 51.816293297965125 16.3055998414589 2.3999999999999995
    vertex 37.1397552579742 20.238166356958974 2.3999999999999995
    vertex 36.90979854890356 18.9340170535075 2.3999999999999995
  endloop
endfacet
facet normal 0.0 0.0 1.0
  outer loop
    vertex 33.95537528986694 19.454961586508276 2.3999999999999995
    vertex 3.423409400882805 29.272434001095125 2.3999999999999995
    vertex 2.6651741622257408 24.972268277105805 2.3999999999999995
  endloop
endfacet
facet normal 0.0 0.0 1.0
  outer loop
    vertex 3.423409400882805 29.272434001095125 2.3999999999999995
    vertex 33.95537528986694 19.454961586508276 2.3999999999999995
    vertex 10.034466791355962 27.501006512200256 2.3999999999999995
  endloop
endfacet
facet normal 0.0 0.0 1.0
  outer loop
    vertex 3.423409400882805 29.272434001095125 2.3999999999999995
    vertex 10.034466791355962 27.501006512200256 2.3999999999999995
    vertex 4.916841284155898 33.37560437788149 2.3999999999999995
  endloop
endfacet
facet normal 0.0 0.0 1.0
  outer loop
    vertex 10.034466791355962 27.501006512200256 2.3999999999999995
    vertex 33.95537528986694 19.454961586508276 2.3999999999999995
    vertex 12.943313309429257 26.721583436776587 2.3999999999999995
  endloop
endfacet
facet normal 0.0 0.0 1.0
  outer loop
    vertex 12.943313309429257 26.721583436776587 2.3999999999999995
    vertex 33.95537528986694 19.454961586508276 2.3999999999999995
    vertex 14.142955550966128 30.017573406823804 2.3999999999999995
  endloop
endfacet
facet normal 0.0 0.0 1.0
  outer loop
    vertex 14.142955550966128 30.017573406823804 2.3999999999999995
    vertex 33.95537528986694 19.454961586508276 2.3999999999999995
    vertex 34.23090873990097 21.017589432382792 2.3999999999999995
  endloop
endfacet
facet normal 0.0 0.0 1.0
  outer loop
    vertex 14.142955550966128 30.017573406823804 2.3999999999999995
    vertex 34.23090873990097 21.017589432382792 2.3999999999999995
    vertex 51.816293297965125 16.3055998414589 2.3999999999999995
  endloop
endfacet
facet normal 0.0 0.0 1.0
  outer loop
    vertex 51.816293297965125 16.3055998414589 2.3999999999999995
    vertex 34.23090873990097 21.017589432382792 2.3999999999999995
    vertex 37.1397552579742 20.238166356958974 2.3999999999999995
  endloop
endfacet
facet normal 0.0 0.0 1.0
  outer loop
    vertex 11.323877688608428 31.043633836800822 2.3999999999999995
    vertex 4.916841284155898 33.37560437788149 2.3999999999999995
    vertex 10.034466791355962 27.501006512200256 2.3999999999999995
  endloop
endfacet
facet normal 0.49999999999999967 0.8660254037844388 -6.770592763944208e-16
  outer loop
    vertex 15.094866892711387 56.33481017708824 1.2000000000000002
    vertex 58.3176356674187 31.380132989890097 0.0
    vertex 15.094866892711387 56.33481017708824 0.0
  endloop
endfacet
facet normal 0.49999999999999967 0.8660254037844388 -6.770592763944208e-16
  outer loop
    vertex 58.3176356674187 31.380132989890097 0.0
    vertex 15.094866892711387 56.33481017708824 1.2000000000000002
    vertex 58.3176356674187 31.380132989890097 1.2000000000000002
  endloop
endfacet
facet normal 0.49999999999999967 0.8660254037844388 1.9888503225008984e-15
  outer loop
    vertex 20.85229389761764 46.670514812331426 2.3999999999999995
    vertex 55.57222977086747 26.624950489664162 1.2000000000000002
    vertex 20.852293897617447 46.670514812331554 1.2000000000000002
  endloop
endfacet
facet normal 0.49999999999999967 0.8660254037844388 1.9888503225008984e-15
  outer loop
    vertex 55.57222977086747 26.624950489664162 1.2000000000000002
    vertex 20.85229389761764 46.670514812331426 2.3999999999999995
    vertex 55.57222977086747 26.624950489664162 2.3999999999999995
  endloop
endfacet
facet normal -0.34202014332566866 -0.9396926207859085 0.0
  outer loop
    vertex 55.57222977086747 26.624950489664162 2.3999999999999995
    vertex 17.898892023867855 40.33692405502931 1.2000000000000002
    vertex 55.57222977086747 26.624950489664162 1.2000000000000002
  endloop
endfacet
facet normal -0.34202014332566866 -0.9396926207859085 0.0
  outer loop
    vertex 17.898892023867855 40.33692405502931 1.2000000000000002
    vertex 55.57222977086747 26.624950489664162 2.3999999999999995
    vertex 17.898892023867855 40.33692405502931 2.3999999999999995
  endloop
endfacet
facet normal 0.0 0.0 1.0
  outer loop
    vertex 55.57222977086747 26.624950489664162 2.3999999999999995
    vertex 19.09853426540354 43.632914025072935 2.3999999999999995
    vertex 17.898892023867855 40.33692405502931 2.3999999999999995
  endloop
endfacet
facet normal 0.0 0.0 1.0
  outer loop
    vertex 19.09853426540354 43.632914025072935 2.3999999999999995
    vertex 55.57222977086747 26.624950489664162 2.3999999999999995
    vertex 20.85229389761764 46.670514812331426 2.3999999999999995
  endloop
endfacet
facet normal 0.8660254037844398 -0.4999999999999983 0.0
  outer loop
    vertex 58.3176356674187 31.380132989890097 0.0
    vertex 55.57222977086747 26.624950489664162 1.2000000000000002
    vertex 55.57222977086747 26.624950489664162 0.0
  endloop
endfacet
facet normal 0.8660254037844398 -0.4999999999999983 0.0
  outer loop
    vertex 55.57222977086747 26.624950489664162 1.2000000000000002
    vertex 58.3176356674187 31.380132989890097 0.0
    vertex 58.3176356674187 31.380132989890097 1.2000000000000002
  endloop
endfacet
facet normal -0.9396926207859091 0.342020143325667 2.0505523694492635e-16
  outer loop
    vertex 10.166209640331328 47.7981254028731 2.3999999999999995
    vertex 8.672777757058247 43.694955026086724 1.2000000000000002
    vertex 8.672777757058247 43.694955026086724 2.3999999999999995
  endloop
endfacet
facet normal -0.9396926207859091 0.342020143325667 2.0505523694492635e-16
  outer loop
    vertex 8.672777757058247 43.694955026086724 1.2000000000000002
    vertex 10.166209640331328 47.7981254028731 2.3999999999999995
    vertex 8.672777757058247 43.694955026086724 0.0
  endloop
endfacet
facet normal -0.9396926207859091 0.342020143325667 2.0505523694492635e-16
  outer loop
    vertex 8.672777757058247 43.694955026086724 0.0
    vertex 10.166209640331328 47.7981254028731 2.3999999999999995
    vertex 10.166209640331328 47.7981254028731 -2.8199664825478967e-16
  endloop
endfacet
facet normal -0.9396926207859091 0.342020143325667 2.0505523694492635e-16
  outer loop
    vertex 4.916841284155898 33.37560437788149 2.3999999999999995
    vertex 3.423409400882805 29.272434001095125 -2.8199664825478967e-16
    vertex 3.423409400882805 29.272434001095125 2.3999999999999995
  endloop
endfacet
facet normal -0.9396926207859091 0.342020143325667 2.0505523694492635e-16
  outer loop
    vertex 3.423409400882805 29.272434001095125 -2.8199664825478967e-16
    vertex 4.916841284155898 33.37560437788149 2.3999999999999995
    vertex 4.916841284155898 33.37560437788149 0.0
  endloop
endfacet
facet normal -0.9396926207859091 0.342020143325667 2.0505523694492635e-16
  outer loop
    vertex 4.916841284155898 33.37560437788149 0.0
    vertex 4.916841284155898 33.37560437788149 2.3999999999999995
    vertex 4.916841284155898 33.37560437788149 1.2000000000000002
  endloop
endfacet
facet normal -0.9396926207859091 0.342020143325667 2.0505523694492635e-16
  outer loop
    vertex 4.916841284155898 33.37560437788149 0.0
    vertex 4.916841284155898 33.37560437788149 1.2000000000000002
    vertex 6.794809520607061 38.535279701984095 1.2000000000000002
  endloop
endfacet
facet normal -0.9396926207859091 0.342020143325667 2.0505523694492635e-16
  outer loop
    vertex 4.916841284155898 33.37560437788149 0.0
    vertex 6.794809520607061 38.535279701984095 1.2000000000000002
    vertex 6.794809520607061 38.535279701984095 0.0
  endloop
endfacet
facet normal -0.9396926207859091 0.342020143325667 2.0505523694492635e-16
  outer loop
    vertex 6.794809520607061 38.535279701984095 0.0
    vertex 6.794809520607061 38.535279701984095 1.2000000000000002
    vertex 8.672777757058247 43.694955026086724 1.2000000000000002
  endloop
endfacet
facet normal -0.9396926207859091 0.342020143325667 2.0505523694492635e-16
  outer loop
    vertex 6.794809520607061 38.535279701984095 0.0
    vertex 8.672777757058247 43.694955026086724 1.2000000000000002
    vertex 8.672777757058247 43.694955026086724 0.0
  endloop
endfacet
facet normal -0.17364817766693127 -0.984807753012208 1.6028722651590152e-15
  outer loop
    vertex 51.816293297965125 16.3055998414589 1.2000000000000002
    vertex 36.90979854890356 18.9340170535075 2.3999999999999995
    vertex 36.90979854890356 18.9340170535075 1.199999999999997
  endloop
endfacet
facet normal -0.17364817766693127 -0.984807753012208 1.6028722651590152e-15
  outer loop
    vertex 36.90979854890356 18.9340170535075 2.3999999999999995
    vertex 51.816293297965125 16.3055998414589 1.2000000000000002
    vertex 51.816293297965125 16.3055998414589 2.3999999999999995
  endloop
endfacet
facet normal 0.34202014332566866 0.9396926207859085 0.0
  outer loop
    vertex 14.142955550966128 30.017573406823804 2.3999999999999995
    vertex 51.816293297965125 16.3055998414589 1.2000000000000002
    vertex 14.142955550966128 30.017573406823804 1.2000000000000002
  endloop
endfacet
facet normal 0.34202014332566866 0.9396926207859085 0.0
  outer loop
    vertex 51.816293297965125 16.3055998414589 1.2000000000000002
    vertex 14.142955550966128 30.017573406823804 2.3999999999999995
    vertex 51.816293297965125 16.3055998414589 2.3999999999999995
  endloop
endfacet
facet normal 0.1736481776669309 0.9848077530122081 -4.878416229369427e-17
  outer loop
    vertex 35.002859625334885 8.11922900515114 2.4000000000000017
    vertex 49.90935437439646 5.49081179310254 1.2000000000000002
    vertex 35.002859625334885 8.11922900515114 1.199999999999997
  endloop
endfacet
facet normal 0.1736481776669309 0.9848077530122081 -4.878416229369427e-17
  outer loop
    vertex 49.90935437439646 5.49081179310254 1.2000000000000002
    vertex 35.002859625334885 8.11922900515114 2.4000000000000017
    vertex 49.90935437439646 5.49081179310254 2.3999999999999995
  endloop
endfacet
facet normal -0.866025403784439 0.4999999999999991 -2.1847867455128262e-16
  outer loop
    vertex 12.349460996160174 51.5796276768623 2.3999999999999995
    vertex 10.166209640331328 47.7981254028731 -2.8199664825478967e-16
    vertex 10.166209640331328 47.7981254028731 2.3999999999999995
  endloop
endfacet
facet normal -0.866025403784439 0.4999999999999991 -2.1847867455128262e-16
  outer loop
    vertex 10.166209640331328 47.7981254028731 -2.8199664825478967e-16
    vertex 12.349460996160174 51.5796276768623 2.3999999999999995
    vertex 12.349460996160174 51.5796276768623 0.0
  endloop
endfacet
facet normal -0.866025403784439 0.4999999999999991 -2.1847867455128262e-16
  outer loop
    vertex 12.349460996160174 51.5796276768623 0.0
    vertex 12.349460996160174 51.5796276768623 2.3999999999999995
    vertex 12.349460996160174 51.5796276768623 1.2000000000000002
  endloop
endfacet
facet normal -0.866025403784439 0.4999999999999991 -2.1847867455128262e-16
  outer loop
    vertex 12.349460996160174 51.5796276768623 0.0
    vertex 12.349460996160174 51.5796276768623 1.2000000000000002
    vertex 15.094866892711387 56.33481017708824 1.2000000000000002
  endloop
endfacet
facet normal -0.866025403784439 0.4999999999999991 -2.1847867455128262e-16
  outer loop
    vertex 12.349460996160174 51.5796276768623 0.0
    vertex 15.094866892711387 56.33481017708824 1.2000000000000002
    vertex 15.094866892711387 56.33481017708824 0.0
  endloop
endfacet
facet normal -0.9848077530122084 0.17364817766692847 -8.028658556660422e-16
  outer loop
    vertex 3.423409400882805 29.272434001095125 2.3999999999999995
    vertex 2.6651741622257408 24.972268277105805 1.2000000000000002
    vertex 2.6651741622257408 24.972268277105805 2.3999999999999995
  endloop
endfacet
facet normal -0.9848077530122084 0.17364817766692847 -8.028658556660422e-16
  outer loop
    vertex 2.6651741622257408 24.972268277105805 1.2000000000000002
    vertex 3.423409400882805 29.272434001095125 2.3999999999999995
    vertex 2.6651741622257408 24.972268277105805 0.0
  endloop
endfacet
facet normal -0.9848077530122084 0.17364817766692847 -8.028658556660422e-16
  outer loop
    vertex 2.6651741622257408 24.972268277105805 0.0
    vertex 3.423409400882805 29.272434001095125 2.3999999999999995
    vertex 3.423409400882805 29.272434001095125 -2.8199664825478967e-16
  endloop
endfacet
facet normal -0.9848077530122084 0.17364817766692847 -8.028658556660422e-16
  outer loop
    vertex 0.758235238657064 14.157480228749423 2.3999999999999995
    vertex -4.511946372076636e-14 9.857314504760135 -2.8199664825478967e-16
    vertex -4.511946372076636e-14 9.857314504760135 2.3999999999999995
  endloop
endfacet
facet normal -0.9848077530122084 0.17364817766692847 -8.028658556660422e-16
  outer loop
    vertex -4.511946372076636e-14 9.857314504760135 -2.8199664825478967e-16
    vertex 0.758235238657064 14.157480228749423 2.3999999999999995
    vertex 0.758235238657064 14.157480228749423 0.0
  endloop
endfacet
facet normal -0.9848077530122084 0.17364817766692847 -8.028658556660422e-16
  outer loop
    vertex 0.758235238657064 14.157480228749423 0.0
    vertex 0.758235238657064 14.157480228749423 2.3999999999999995
    vertex 0.758235238657064 14.157480228749423 1.2000000000000002
  endloop
endfacet
facet normal -0.9848077530122084 0.17364817766692847 -8.028658556660422e-16
  outer loop
    vertex 0.758235238657064 14.157480228749423 0.0
    vertex 0.758235238657064 14.157480228749423 1.2000000000000002
    vertex 1.7117047004414025 19.56487425292761 1.2000000000000002
  endloop
endfacet
facet normal -0.9848077530122084 0.17364817766692847 -8.028658556660422e-16
  outer loop
    vertex 0.758235238657064 14.157480228749423 0.0
    vertex 1.7117047004414025 19.56487425292761 1.2000000000000002
    vertex 1.7117047004414025 19.56487425292761 0.0
  endloop
endfacet
facet normal -0.9848077530122084 0.17364817766692847 -8.028658556660422e-16
  outer loop
    vertex 1.7117047004414025 19.56487425292761 0.0
    vertex 1.7117047004414025 19.56487425292761 1.2000000000000002
    vertex 2.6651741622257408 24.972268277105805 1.2000000000000002
  endloop
endfacet
facet normal -0.9848077530122084 0.17364817766692847 -8.028658556660422e-16
  outer loop
    vertex 1.7117047004414025 19.56487425292761 0.0
    vertex 2.6651741622257408 24.972268277105805 1.2000000000000002
    vertex 2.6651741622257408 24.972268277105805 0.0
  endloop
endfacet
facet normal -4.405575178257385e-17 -8.544466457029099e-16 1.0
  outer loop
    vertex 49.90935437439646 5.49081179310254 2.3999999999999995
    vertex 34.77290291626427 6.815079701699614 2.3999999999999995
    vertex 34.77290291626426 5.490811793102534 2.3999999999999995
  endloop
endfacet
facet normal -4.405575178257385e-17 -8.544466457029099e-16 1.0
  outer loop
    vertex 34.77290291626427 6.815079701699614 2.3999999999999995
    vertex 49.90935437439646 5.49081179310254 2.3999999999999995
    vertex 35.002859625334885 8.11922900515114 2.4000000000000017
  endloop
endfacet
facet normal 0.9848077530122084 -0.17364817766692842 0.0
  outer loop
    vertex 50.86282383618079 10.898205817280733 0.0
    vertex 49.90935437439646 5.49081179310254 1.2000000000000002
    vertex 49.90935437439646 5.49081179310254 0.0
  endloop
endfacet
facet normal 0.9848077530122084 -0.17364817766692842 0.0
  outer loop
    vertex 49.90935437439646 5.49081179310254 1.2000000000000002
    vertex 50.86282383618079 10.898205817280733 0.0
    vertex 50.86282383618079 10.898205817280733 1.2000000000000002
  endloop
endfacet
facet normal 0.9848077530122084 -0.17364817766692842 0.0
  outer loop
    vertex 50.86282383618079 10.898205817280733 1.2000000000000002
    vertex 50.86282383618079 10.898205817280733 0.0
    vertex 51.816293297965125 16.3055998414589 0.0
  endloop
endfacet
facet normal 0.9848077530122084 -0.17364817766692842 0.0
  outer loop
    vertex 50.86282383618079 10.898205817280733 1.2000000000000002
    vertex 51.816293297965125 16.3055998414589 0.0
    vertex 51.816293297965125 16.3055998414589 1.2000000000000002
  endloop
endfacet
facet normal 2.220446049250313e-16 -1.0 9.408606311719512e-16
  outer loop
    vertex 49.909354374396436 7.331912854624534e-14 1.2000000000000002
    vertex 0.0 0.0 0.0
    vertex 49.909354374396436 7.331912854624534e-14 0.0
  endloop
endfacet
facet normal 2.220446049250313e-16 -1.0 9.408606311719512e-16
  outer loop
    vertex 0.0 0.0 0.0
    vertex 49.909354374396436 7.331912854624534e-14 1.2000000000000002
    vertex 0.0 0.0 1.2000000000000002
  endloop
endfacet
facet normal 0.9848077530122086 -0.1736481776669276 9.30114099100029e-16
  outer loop
    vertex 32.04843636629829 8.64017353815192 1.2000000000000002
    vertex 31.772902916264236 7.0775456922773055 2.3999999999999995
    vertex 31.772902916264236 7.0775456922773055 1.199999999999997
  endloop
endfacet
facet normal 0.9848077530122086 -0.1736481776669276 9.30114099100029e-16
  outer loop
    vertex 31.772902916264236 7.0775456922773055 2.3999999999999995
    vertex 32.04843636629829 8.64017353815192 1.2000000000000002
    vertex 32.04843636629829 8.64017353815192 2.3999999999999995
  endloop
endfacet
facet normal 2.220446049250313e-16 -1.0 1.2261854904474516e-16
  outer loop
    vertex 49.90935437439646 5.49081179310254 2.3999999999999995
    vertex 34.77290291626426 5.490811793102534 1.2000000000000002
    vertex 49.90935437439646 5.49081179310254 1.2000000000000002
  endloop
endfacet
facet normal 2.220446049250313e-16 -1.0 1.2261854904474516e-16
  outer loop
    vertex 34.77290291626426 5.490811793102534 1.2000000000000002
    vertex 49.90935437439646 5.49081179310254 2.3999999999999995
    vertex 34.77290291626426 5.490811793102534 2.3999999999999995
  endloop
endfacet
facet normal 1.3129961227357065e-18 -3.518162507522267e-19 -1.0
  outer loop
    vertex 0.758235238657064 14.157480228749423 0.0
    vertex 1.127986593019159e-14 5.490811793102438 0.0
    vertex -4.511946372076636e-14 9.857314504760135 -2.8199664825478967e-16
  endloop
endfacet
facet normal 1.3129961227357065e-18 -3.518162507522267e-19 -1.0
  outer loop
    vertex 1.127986593019159e-14 5.490811793102438 0.0
    vertex 49.909354374396436 7.331912854624534e-14 0.0
    vertex 0.0 0.0 0.0
  endloop
endfacet
facet normal 1.3129961227357065e-18 -3.518162507522267e-19 -1.0
  outer loop
    vertex 49.909354374396436 7.331912854624534e-14 0.0
    vertex 1.127986593019159e-14 5.490811793102438 0.0
    vertex 0.758235238657064 14.157480228749423 0.0
  endloop
endfacet
facet normal 1.3129961227357065e-18 -3.518162507522267e-19 -1.0
  outer loop
    vertex 49.909354374396436 7.331912854624534e-14 0.0
    vertex 0.758235238657064 14.157480228749423 0.0
    vertex 1.7117047004414025 19.56487425292761 0.0
  endloop
endfacet
facet normal 1.3129961227357065e-18 -3.518162507522267e-19 -1.0
  outer loop
    vertex 49.909354374396436 7.331912854624534e-14 0.0
    vertex 1.7117047004414025 19.56487425292761 0.0
    vertex 2.6651741622257408 24.972268277105805 0.0
  endloop
endfacet
facet normal 1.3129961227357065e-18 -3.518162507522267e-19 -1.0
  outer loop
    vertex 49.909354374396436 7.331912854624534e-14 0.0
    vertex 2.6651741622257408 24.972268277105805 0.0
    vertex 3.423409400882805 29.272434001095125 -2.8199664825478967e-16
  endloop
endfacet
facet normal 1.3129961227357065e-18 -3.518162507522267e-19 -1.0
  outer loop
    vertex 49.909354374396436 7.331912854624534e-14 0.0
    vertex 3.423409400882805 29.272434001095125 -2.8199664825478967e-16
    vertex 4.916841284155898 33.37560437788149 0.0
  endloop
endfacet
facet normal 1.3129961227357065e-18 -3.518162507522267e-19 -1.0
  outer loop
    vertex 49.909354374396436 7.331912854624534e-14 0.0
    vertex 4.916841284155898 33.37560437788149 0.0
    vertex 6.794809520607061 38.535279701984095 0.0
  endloop
endfacet
facet normal 1.3129961227357065e-18 -3.518162507522267e-19 -1.0
  outer loop
    vertex 49.909354374396436 7.331912854624534e-14 0.0
    vertex 6.794809520607061 38.535279701984095 0.0
    vertex 8.672777757058247 43.694955026086724 0.0
  endloop
endfacet
facet normal 1.3129961227357065e-18 -3.518162507522267e-19 -1.0
  outer loop
    vertex 49.909354374396436 7.331912854624534e-14 0.0
    vertex 8.672777757058247 43.694955026086724 0.0
    vertex 10.166209640331328 47.7981254028731 -2.8199664825478967e-16
  endloop
endfacet
facet normal 1.3129961227357065e-18 -3.518162507522267e-19 -1.0
  outer loop
    vertex 49.909354374396436 7.331912854624534e-14 0.0
    vertex 10.166209640331328 47.7981254028731 -2.8199664825478967e-16
    vertex 12.349460996160174 51.5796276768623 0.0
  endloop
endfacet
facet normal 1.3129961227357065e-18 -3.518162507522267e-19 -1.0
  outer loop
    vertex 49.909354374396436 7.331912854624534e-14 0.0
    vertex 12.349460996160174 51.5796276768623 0.0
    vertex 15.094866892711387 56.33481017708824 0.0
  endloop
endfacet
facet normal 1.3129961227357065e-18 -3.518162507522267e-19 -1.0
  outer loop
    vertex 49.909354374396436 7.331912854624534e-14 0.0
    vertex 15.094866892711387 56.33481017708824 0.0
    vertex 49.90935437439646 5.49081179310254 0.0
  endloop
endfacet
facet normal 1.3129961227357065e-18 -3.518162507522267e-19 -1.0
  outer loop
    vertex 49.90935437439646 5.49081179310254 0.0
    vertex 15.094866892711387 56.33481017708824 0.0
    vertex 50.86282383618079 10.898205817280733 0.0
  endloop
endfacet
facet normal 1.3129961227357065e-18 -3.518162507522267e-19 -1.0
  outer loop
    vertex 50.86282383618079 10.898205817280733 0.0
    vertex 15.094866892711387 56.33481017708824 0.0
    vertex 51.816293297965125 16.3055998414589 0.0
  endloop
endfacet
facet normal 1.3129961227357065e-18 -3.518162507522267e-19 -1.0
  outer loop
    vertex 51.816293297965125 16.3055998414589 0.0
    vertex 15.094866892711387 56.33481017708824 0.0
    vertex 53.69426153441629 21.46527516556153 0.0
  endloop
endfacet
facet normal 1.3129961227357065e-18 -3.518162507522267e-19 -1.0
  outer loop
    vertex 53.69426153441629 21.46527516556153 0.0
    vertex 15.094866892711387 56.33481017708824 0.0
    vertex 55.57222977086747 26.624950489664162 0.0
  endloop
endfacet
facet normal 1.3129961227357065e-18 -3.518162507522267e-19 -1.0
  outer loop
    vertex 55.57222977086747 26.624950489664162 0.0
    vertex 15.094866892711387 56.33481017708824 0.0
    vertex 58.3176356674187 31.380132989890097 0.0
  endloop
endfacet
facet normal -0.984807753012211 0.17364817766691332 4.305701109278039e-15
  outer loop
    vertex 34.77290291626427 6.815079701699614 2.3999999999999995
    vertex 35.002859625334885 8.11922900515114 1.199999999999997
    vertex 34.77290291626426 6.8150797016996085 1.199999999999997
  endloop
endfacet
facet normal -0.984807753012211 0.17364817766691332 4.305701109278039e-15
  outer loop
    vertex 35.002859625334885 8.11922900515114 1.199999999999997
    vertex 34.77290291626427 6.815079701699614 2.3999999999999995
    vertex 35.002859625334885 8.11922900515114 2.4000000000000017
  endloop
endfacet
facet normal 1.0 -1.6653345369377344e-15 1.2162486063974245e-15
  outer loop
    vertex 31.772902916264236 7.0775456922773055 1.199999999999997
    vertex 31.772902916264222 5.490811793102506 2.400000000000001
    vertex 31.772902916264222 5.490811793102506 1.2000000000000002
  endloop
endfacet
facet normal 1.0 -1.6653345369377344e-15 1.2162486063974245e-15
  outer loop
    vertex 31.772902916264222 5.490811793102506 2.400000000000001
    vertex 31.772902916264236 7.0775456922773055 1.199999999999997
    vertex 31.772902916264236 7.0775456922773055 2.3999999999999995
  endloop
endfacet
facet normal -0.9848077530122084 0.17364817766692944 -4.672212601866858e-15
  outer loop
    vertex 37.1397552579742 20.238166356958974 2.3999999999999995
    vertex 36.90979854890356 18.9340170535075 1.199999999999997
    vertex 36.90979854890356 18.9340170535075 2.3999999999999995
  endloop
endfacet
facet normal -0.9848077530122084 0.17364817766692944 -4.672212601866858e-15
  outer loop
    vertex 36.90979854890356 18.9340170535075 1.199999999999997
    vertex 37.1397552579742 20.238166356958974 2.3999999999999995
    vertex 37.13975525797421 20.23816635695897 1.199999999999997
  endloop
endfacet
facet normal -1.0 -3.1086244689504375e-15 4.2325042048569125e-15
  outer loop
    vertex 34.77290291626427 6.815079701699614 2.3999999999999995
    vertex 34.77290291626426 5.490811793102534 1.2000000000000002
    vertex 34.77290291626426 5.490811793102534 2.3999999999999995
  endloop
endfacet
facet normal -1.0 -3.1086244689504375e-15 4.2325042048569125e-15
  outer loop
    vertex 34.77290291626426 5.490811793102534 1.2000000000000002
    vertex 34.77290291626427 6.815079701699614 2.3999999999999995
    vertex 34.77290291626426 6.8150797016996085 1.199999999999997
  endloop
endfacet
facet normal 1.0 3.3306690738754686e-16 0.0
  outer loop
    vertex 49.90935437439646 5.49081179310254 0.0
    vertex 49.909354374396436 7.331912854624534e-14 1.2000000000000002
    vertex 49.909354374396436 7.331912854624534e-14 0.0
  endloop
endfacet
facet normal 1.0 3.3306690738754686e-16 0.0
  outer loop
    vertex 49.909354374396436 7.331912854624534e-14 1.2000000000000002
    vertex 49.90935437439646 5.49081179310254 0.0
    vertex 49.90935437439646 5.49081179310254 1.2000000000000002
  endloop
endfacet
facet normal 0.9848077530122088 -0.1736481776669264 5.402784647627642e-15
  outer loop
    vertex 34.23090873990097 21.017589432382795 1.199999999999997
    vertex 33.95537528986694 19.454961586508276 2.3999999999999995
    vertex 33.95537528986694 19.454961586508276 1.199999999999997
  endloop
endfacet
facet normal 0.9848077530122088 -0.1736481776669264 5.402784647627642e-15
  outer loop
    vertex 33.95537528986694 19.454961586508276 2.3999999999999995
    vertex 34.23090873990097 21.017589432382795 1.199999999999997
    vertex 34.23090873990097 21.017589432382792 2.3999999999999995
  endloop
endfacet
facet normal -0.258819045102529 -0.9659258262890662 -4.486121792082812e-15
  outer loop
    vertex 37.1397552579742 20.238166356958974 2.3999999999999995
    vertex 34.23090873990097 21.017589432382795 1.199999999999997
    vertex 37.13975525797421 20.23816635695897 1.199999999999997
  endloop
endfacet
facet normal -0.258819045102529 -0.9659258262890662 -4.486121792082812e-15
  outer loop
    vertex 34.23090873990097 21.017589432382795 1.199999999999997
    vertex 37.1397552579742 20.238166356958974 2.3999999999999995
    vertex 34.23090873990097 21.017589432382792 2.3999999999999995
  endloop
endfacet
facet normal -1.0 -2.2204460492503127e-15 0.0
  outer loop
    vertex -4.511946372076636e-14 9.857314504760135 2.3999999999999995
    vertex 1.127986593019159e-14 5.490811793102438 1.2000000000000002
    vertex 1.127986593019159e-14 5.490811793102438 2.3999999999999995
  endloop
endfacet
facet normal -1.0 -2.2204460492503127e-15 0.0
  outer loop
    vertex 1.127986593019159e-14 5.490811793102438 1.2000000000000002
    vertex -4.511946372076636e-14 9.857314504760135 2.3999999999999995
    vertex 1.127986593019159e-14 5.490811793102438 0.0
  endloop
endfacet
facet normal -1.0 -2.2204460492503127e-15 0.0
  outer loop
    vertex 1.127986593019159e-14 5.490811793102438 0.0
    vertex -4.511946372076636e-14 9.857314504760135 2.3999999999999995
    vertex -4.511946372076636e-14 9.857314504760135 -2.8199664825478967e-16
  endloop
endfacet
facet normal -1.0 -2.2204460492503127e-15 0.0
  outer loop
    vertex 1.127986593019159e-14 5.490811793102438 1.2000000000000002
    vertex 0.0 0.0 0.0
    vertex 0.0 0.0 1.2000000000000002
  endloop
endfacet
facet normal -1.0 -2.2204460492503127e-15 0.0
  outer loop
    vertex 0.0 0.0 0.0
    vertex 1.127986593019159e-14 5.490811793102438 1.2000000000000002
    vertex 1.127986593019159e-14 5.490811793102438 0.0
  endloop
endfacet
facet normal 0.9396926207859089 -0.34202014332566716 0.0
  outer loop
    vertex 53.69426153441629 21.46527516556153 0.0
    vertex 51.816293297965125 16.3055998414589 1.2000000000000002
    vertex 51.816293297965125 16.3055998414589 0.0
  endloop
endfacet
facet normal 0.9396926207859089 -0.34202014332566716 0.0
  outer loop
    vertex 51.816293297965125 16.3055998414589 1.2000000000000002
    vertex 53.69426153441629 21.46527516556153 0.0
    vertex 53.69426153441629 21.46527516556153 1.2000000000000002
  endloop
endfacet
facet normal 0.9396926207859089 -0.34202014332566716 0.0
  outer loop
    vertex 53.69426153441629 21.46527516556153 1.2000000000000002
    vertex 53.69426153441629 21.46527516556153 0.0
    vertex 55.57222977086747 26.624950489664162 0.0
  endloop
endfacet
facet normal 0.9396926207859089 -0.34202014332566716 0.0
  outer loop
    vertex 53.69426153441629 21.46527516556153 1.2000000000000002
    vertex 55.57222977086747 26.624950489664162 0.0
    vertex 55.57222977086747 26.624950489664162 1.2000000000000002
  endloop
endfacet
facet normal -0.34202014332566943 -0.9396926207859082 -4.426675784006645e-15
  outer loop
    vertex 15.079814161510134 41.362984485006315 2.4000000000000035
    vertex 8.672777757058247 43.694955026086724 1.2000000000000002
    vertex 15.079814161510134 41.362984485006315 1.2000000000000002
  endloop
endfacet
facet normal -0.34202014332566943 -0.9396926207859082 -4.426675784006645e-15
  outer loop
    vertex 8.672777757058247 43.694955026086724 1.2000000000000002
    vertex 15.079814161510134 41.362984485006315 2.4000000000000035
    vertex 8.672777757058247 43.694955026086724 2.3999999999999995
  endloop
endfacet
facet normal 0.4999999999999999 0.8660254037844387 9.184761891053694e-16
  outer loop
    vertex 12.349460996160174 51.5796276768623 2.3999999999999995
    vertex 18.254217686264276 48.170514812331454 1.2000000000000002
    vertex 12.349460996160174 51.5796276768623 1.2000000000000002
  endloop
endfacet
facet normal 0.4999999999999999 0.8660254037844387 9.184761891053694e-16
  outer loop
    vertex 18.254217686264276 48.170514812331454 1.2000000000000002
    vertex 12.349460996160174 51.5796276768623 2.3999999999999995
    vertex 18.254217686264276 48.170514812331454 2.3999999999999995
  endloop
endfacet
facet normal -6.71613582984747e-17 2.2592300328381637e-16 1.0
  outer loop
    vertex 15.079814161510134 41.362984485006315 2.4000000000000035
    vertex 10.166209640331328 47.7981254028731 2.3999999999999995
    vertex 8.672777757058247 43.694955026086724 2.3999999999999995
  endloop
endfacet
facet normal -6.71613582984747e-17 2.2592300328381637e-16 1.0
  outer loop
    vertex 10.166209640331328 47.7981254028731 2.3999999999999995
    vertex 15.079814161510134 41.362984485006315 2.4000000000000035
    vertex 12.349460996160174 51.5796276768623 2.3999999999999995
  endloop
endfacet
facet normal -6.71613582984747e-17 2.2592300328381637e-16 1.0
  outer loop
    vertex 12.349460996160174 51.5796276768623 2.3999999999999995
    vertex 15.079814161510134 41.362984485006315 2.4000000000000035
    vertex 16.369225058761124 44.905611809602775 2.3999999999999995
  endloop
endfacet
facet normal -6.71613582984747e-17 2.2592300328381637e-16 1.0
  outer loop
    vertex 12.349460996160174 51.5796276768623 2.3999999999999995
    vertex 16.369225058761124 44.905611809602775 2.3999999999999995
    vertex 18.254217686264276 48.170514812331454 2.3999999999999995
  endloop
endfacet
facet normal 1.7318214242925713e-17 6.263362475783349e-17 1.0
  outer loop
    vertex 49.90935437439646 5.49081179310254 1.2000000000000002
    vertex 36.90979854890356 18.9340170535075 1.199999999999997
    vertex 35.002859625334885 8.11922900515114 1.199999999999997
  endloop
endfacet
facet normal 1.7318214242925713e-17 6.263362475783349e-17 1.0
  outer loop
    vertex 36.90979854890356 18.9340170535075 1.199999999999997
    vertex 49.90935437439646 5.49081179310254 1.2000000000000002
    vertex 50.86282383618079 10.898205817280733 1.2000000000000002
  endloop
endfacet
facet normal 1.7318214242925713e-17 6.263362475783349e-17 1.0
  outer loop
    vertex 36.90979854890356 18.9340170535075 1.199999999999997
    vertex 50.86282383618079 10.898205817280733 1.2000000000000002
    vertex 51.816293297965125 16.3055998414589 1.2000000000000002
  endloop
endfacet
facet normal 1.7318214242925713e-17 6.263362475783349e-17 1.0
  outer loop
    vertex 34.23090873990097 21.017589432382795 1.199999999999997
    vertex 35.002859625334885 8.11922900515114 1.199999999999997
    vertex 37.13975525797421 20.23816635695897 1.199999999999997
  endloop
endfacet
facet normal 1.7318214242925713e-17 6.263362475783349e-17 1.0
  outer loop
    vertex 35.002859625334885 8.11922900515114 1.199999999999997
    vertex 34.23090873990097 21.017589432382795 1.199999999999997
    vertex 34.77290291626426 6.8150797016996085 1.199999999999997
  endloop
endfacet
facet normal 1.7318214242925713e-17 6.263362475783349e-17 1.0
  outer loop
    vertex 34.77290291626426 6.8150797016996085 1.199999999999997
    vertex 34.23090873990097 21.017589432382795 1.199999999999997
    vertex 34.77290291626426 5.490811793102534 1.2000000000000002
  endloop
endfacet
facet normal 1.7318214242925713e-17 6.263362475783349e-17 1.0
  outer loop
    vertex 37.13975525797421 20.23816635695897 1.199999999999997
    vertex 35.002859625334885 8.11922900515114 1.199999999999997
    vertex 36.90979854890356 18.9340170535075 1.199999999999997
  endloop
endfacet
facet normal 1.7318214242925713e-17 6.263362475783349e-17 1.0
  outer loop
    vertex 49.909354374396436 7.331912854624534e-14 1.2000000000000002
    vertex 1.127986593019159e-14 5.490811793102438 1.2000000000000002
    vertex 0.0 0.0 1.2000000000000002
  endloop
endfacet
facet normal 1.7318214242925713e-17 6.263362475783349e-17 1.0
  outer loop
    vertex 1.127986593019159e-14 5.490811793102438 1.2000000000000002
    vertex 49.909354374396436 7.331912854624534e-14 1.2000000000000002
    vertex 31.772902916264222 5.490811793102506 1.2000000000000002
  endloop
endfacet
facet normal 1.7318214242925713e-17 6.263362475783349e-17 1.0
  outer loop
    vertex 31.772902916264222 5.490811793102506 1.2000000000000002
    vertex 49.909354374396436 7.331912854624534e-14 1.2000000000000002
    vertex 34.77290291626426 5.490811793102534 1.2000000000000002
  endloop
endfacet
facet normal 1.7318214242925713e-17 6.263362475783349e-17 1.0
  outer loop
    vertex 31.772902916264222 5.490811793102506 1.2000000000000002
    vertex 34.77290291626426 5.490811793102534 1.2000000000000002
    vertex 31.772902916264236 7.0775456922773055 1.199999999999997
  endloop
endfacet
facet normal 1.7318214242925713e-17 6.263362475783349e-17 1.0
  outer loop
    vertex 31.772902916264236 7.0775456922773055 1.199999999999997
    vertex 34.77290291626426 5.490811793102534 1.2000000000000002
    vertex 32.04843636629829 8.64017353815192 1.2000000000000002
  endloop
endfacet
facet normal 1.7318214242925713e-17 6.263362475783349e-17 1.0
  outer loop
    vertex 32.04843636629829 8.64017353815192 1.2000000000000002
    vertex 34.77290291626426 5.490811793102534 1.2000000000000002
    vertex 33.95537528986694 19.454961586508276 1.199999999999997
  endloop
endfacet
facet normal 1.7318214242925713e-17 6.263362475783349e-17 1.0
  outer loop
    vertex 33.95537528986694 19.454961586508276 1.199999999999997
    vertex 34.77290291626426 5.490811793102534 1.2000000000000002
    vertex 34.23090873990097 21.017589432382795 1.199999999999997
  endloop
endfacet
facet normal 1.7318214242925713e-17 6.263362475783349e-17 1.0
  outer loop
    vertex 34.77290291626426 5.490811793102534 1.2000000000000002
    vertex 49.909354374396436 7.331912854624534e-14 1.2000000000000002
    vertex 49.90935437439646 5.49081179310254 1.2000000000000002
  endloop
endfacet
facet normal 1.7318214242925713e-17 6.263362475783349e-17 1.0
  outer loop
    vertex 32.04843636629829 8.64017353815192 1.2000000000000002
    vertex 1.7117047004414025 19.56487425292761 1.2000000000000002
    vertex 0.758235238657064 14.157480228749423 1.2000000000000002
  endloop
endfacet
facet normal 1.7318214242925713e-17 6.263362475783349e-17 1.0
  outer loop
    vertex 1.7117047004414025 19.56487425292761 1.2000000000000002
    vertex 32.04843636629829 8.64017353815192 1.2000000000000002
    vertex 2.6651741622257408 24.972268277105805 1.2000000000000002
  endloop
endfacet
facet normal 1.7318214242925713e-17 6.263362475783349e-17 1.0
  outer loop
    vertex 2.6651741622257408 24.972268277105805 1.2000000000000002
    vertex 32.04843636629829 8.64017353815192 1.2000000000000002
    vertex 33.95537528986694 19.454961586508276 1.199999999999997
  endloop
endfacet
facet normal 0.34202014332566816 0.9396926207859088 -2.921332597250513e-15
  outer loop
    vertex 4.916841284155898 33.37560437788149 2.3999999999999995
    vertex 11.323877688608428 31.043633836800822 1.2000000000000002
    vertex 4.916841284155898 33.37560437788149 1.2000000000000002
  endloop
endfacet
facet normal 0.34202014332566816 0.9396926207859088 -2.921332597250513e-15
  outer loop
    vertex 11.323877688608428 31.043633836800822 1.2000000000000002
    vertex 4.916841284155898 33.37560437788149 2.3999999999999995
    vertex 11.323877688608428 31.043633836800822 2.3999999999999995
  endloop
endfacet
facet normal 0.258819045102477 0.9659258262890801 2.3376973089099166e-14
  outer loop
    vertex 10.034466791355962 27.501006512200256 2.3999999999999995
    vertex 12.943313309429257 26.7215834367766 1.2000000000000002
    vertex 10.034466791355962 27.501006512200295 1.2000000000000002
  endloop
endfacet
facet normal 0.258819045102477 0.9659258262890801 2.3376973089099166e-14
  outer loop
    vertex 12.943313309429257 26.7215834367766 1.2000000000000002
    vertex 10.034466791355962 27.501006512200256 2.3999999999999995
    vertex 12.943313309429257 26.721583436776587 2.3999999999999995
  endloop
endfacet
facet normal -0.8660254037844716 0.4999999999999432 1.8294451241102692e-13
  outer loop
    vertex 20.85229389761764 46.670514812331426 2.3999999999999995
    vertex 19.09853426540339 43.63291402507299 1.2000000000000002
    vertex 19.09853426540354 43.632914025072935 2.3999999999999995
  endloop
endfacet
facet normal -0.8660254037844716 0.4999999999999432 1.8294451241102692e-13
  outer loop
    vertex 19.09853426540339 43.63291402507299 1.2000000000000002
    vertex 20.85229389761764 46.670514812331426 2.3999999999999995
    vertex 20.852293897617447 46.670514812331554 1.2000000000000002
  endloop
endfacet
facet normal 0.9396926207859304 -0.3420201433256087 1.5775167898686612e-15
  outer loop
    vertex 16.369225058761124 44.905611809602775 1.2000000000000002
    vertex 15.079814161510134 41.362984485006315 2.4000000000000035
    vertex 15.079814161510134 41.362984485006315 1.2000000000000002
  endloop
endfacet
facet normal 0.9396926207859304 -0.3420201433256087 1.5775167898686612e-15
  outer loop
    vertex 15.079814161510134 41.362984485006315 2.4000000000000035
    vertex 16.369225058761124 44.905611809602775 1.2000000000000002
    vertex 16.369225058761124 44.905611809602775 2.3999999999999995
  endloop
endfacet
facet normal 0.9396926207859295 -0.34202014332561104 -4.488544095875344e-15
  outer loop
    vertex 10.034466791355962 27.501006512200295 1.2000000000000002
    vertex 11.323877688608428 31.043633836800822 2.3999999999999995
    vertex 10.034466791355962 27.501006512200256 2.3999999999999995
  endloop
endfacet
facet normal 0.9396926207859295 -0.34202014332561104 -4.488544095875344e-15
  outer loop
    vertex 11.323877688608428 31.043633836800822 2.3999999999999995
    vertex 10.034466791355962 27.501006512200295 1.2000000000000002
    vertex 11.323877688608428 31.043633836800822 1.2000000000000002
  endloop
endfacet
facet normal -0.9396926207859293 0.34202014332561126 8.288292646422266e-14
  outer loop
    vertex 19.09853426540354 43.632914025072935 2.3999999999999995
    vertex 17.898892023867855 40.33692405502931 1.2000000000000002
    vertex 17.898892023867855 40.33692405502931 2.3999999999999995
  endloop
endfacet
facet normal -0.9396926207859293 0.34202014332561126 8.288292646422266e-14
  outer loop
    vertex 17.898892023867855 40.33692405502931 1.2000000000000002
    vertex 19.09853426540354 43.632914025072935 2.3999999999999995
    vertex 19.09853426540339 43.63291402507299 1.2000000000000002
  endloop
endfacet
facet normal 0.8660254037844723 -0.49999999999994205 1.5115532439245173e-16
  outer loop
    vertex 18.254217686264276 48.170514812331454 1.2000000000000002
    vertex 16.369225058761124 44.905611809602775 2.3999999999999995
    vertex 16.369225058761124 44.905611809602775 1.2000000000000002
  endloop
endfacet
facet normal 0.8660254037844723 -0.49999999999994205 1.5115532439245173e-16
  outer loop
    vertex 16.369225058761124 44.905611809602775 2.3999999999999995
    vertex 18.254217686264276 48.170514812331454 1.2000000000000002
    vertex 18.254217686264276 48.170514812331454 2.3999999999999995
  endloop
endfacet
facet normal -0.9396926207859315 0.34202014332560526 4.177508426714685e-15
  outer loop
    vertex 14.142955550966128 30.017573406823804 2.3999999999999995
    vertex 12.943313309429257 26.7215834367766 1.2000000000000002
    vertex 12.943313309429257 26.721583436776587 2.3999999999999995
  endloop
endfacet
facet normal -0.9396926207859315 0.34202014332560526 4.177508426714685e-15
  outer loop
    vertex 12.943313309429257 26.7215834367766 1.2000000000000002
    vertex 14.142955550966128 30.017573406823804 2.3999999999999995
    vertex 14.142955550966128 30.017573406823804 1.2000000000000002
  endloop
endfacet
facet normal 0.0 0.0 1.0
  outer loop
    vertex 12.943313309429257 26.7215834367766 1.2000000000000002
    vertex 11.323877688608428 31.043633836800822 1.2000000000000002
    vertex 10.034466791355962 27.501006512200295 1.2000000000000002
  endloop
endfacet
facet normal 0.0 0.0 1.0
  outer loop
    vertex 11.323877688608428 31.043633836800822 1.2000000000000002
    vertex 6.794809520607061 38.535279701984095 1.2000000000000002
    vertex 4.916841284155898 33.37560437788149 1.2000000000000002
  endloop
endfacet
facet normal 0.0 0.0 1.0
  outer loop
    vertex 6.794809520607061 38.535279701984095 1.2000000000000002
    vertex 11.323877688608428 31.043633836800822 1.2000000000000002
    vertex 8.672777757058247 43.694955026086724 1.2000000000000002
  endloop
endfacet
facet normal 0.0 0.0 1.0
  outer loop
    vertex 8.672777757058247 43.694955026086724 1.2000000000000002
    vertex 11.323877688608428 31.043633836800822 1.2000000000000002
    vertex 15.079814161510134 41.362984485006315 1.2000000000000002
  endloop
endfacet
facet normal 0.0 0.0 1.0
  outer loop
    vertex 15.079814161510134 41.362984485006315 1.2000000000000002
    vertex 11.323877688608428 31.043633836800822 1.2000000000000002
    vertex 12.943313309429257 26.7215834367766 1.2000000000000002
  endloop
endfacet
facet normal 0.0 0.0 1.0
  outer loop
    vertex 15.079814161510134 41.362984485006315 1.2000000000000002
    vertex 12.943313309429257 26.7215834367766 1.2000000000000002
    vertex 14.142955550966128 30.017573406823804 1.2000000000000002
  endloop
endfacet
facet normal 0.0 0.0 1.0
  outer loop
    vertex 15.079814161510134 41.362984485006315 1.2000000000000002
    vertex 14.142955550966128 30.017573406823804 1.2000000000000002
    vertex 51.816293297965125 16.3055998414589 1.2000000000000002
  endloop
endfacet
facet normal 0.0 0.0 1.0
  outer loop
    vertex 15.079814161510134 41.362984485006315 1.2000000000000002
    vertex 51.816293297965125 16.3055998414589 1.2000000000000002
    vertex 17.898892023867855 40.33692405502931 1.2000000000000002
  endloop
endfacet
facet normal 0.0 0.0 1.0
  outer loop
    vertex 15.079814161510134 41.362984485006315 1.2000000000000002
    vertex 17.898892023867855 40.33692405502931 1.2000000000000002
    vertex 16.369225058761124 44.905611809602775 1.2000000000000002
  endloop
endfacet
facet normal 0.0 0.0 1.0
  outer loop
    vertex 17.898892023867855 40.33692405502931 1.2000000000000002
    vertex 51.816293297965125 16.3055998414589 1.2000000000000002
    vertex 53.69426153441629 21.46527516556153 1.2000000000000002
  endloop
endfacet
facet normal 0.0 0.0 1.0
  outer loop
    vertex 17.898892023867855 40.33692405502931 1.2000000000000002
    vertex 53.69426153441629 21.46527516556153 1.2000000000000002
    vertex 55.57222977086747 26.624950489664162 1.2000000000000002
  endloop
endfacet
facet normal 0.0 0.0 1.0
  outer loop
    vertex 17.898892023867855 40.33692405502931 1.2000000000000002
    vertex 18.254217686264276 48.170514812331454 1.2000000000000002
    vertex 16.369225058761124 44.905611809602775 1.2000000000000002
  endloop
endfacet
facet normal 0.0 0.0 1.0
  outer loop
    vertex 18.254217686264276 48.170514812331454 1.2000000000000002
    vertex 17.898892023867855 40.33692405502931 1.2000000000000002
    vertex 19.09853426540339 43.63291402507299 1.2000000000000002
  endloop
endfacet
facet normal 0.0 0.0 1.0
  outer loop
    vertex 18.254217686264276 48.170514812331454 1.2000000000000002
    vertex 15.094866892711387 56.33481017708824 1.2000000000000002
    vertex 12.349460996160174 51.5796276768623 1.2000000000000002
  endloop
endfacet
facet normal 0.0 0.0 1.0
  outer loop
    vertex 15.094866892711387 56.33481017708824 1.2000000000000002
    vertex 18.254217686264276 48.170514812331454 1.2000000000000002
    vertex 58.3176356674187 31.380132989890097 1.2000000000000002
  endloop
endfacet
facet normal 0.0 0.0 1.0
  outer loop
    vertex 58.3176356674187 31.380132989890097 1.2000000000000002
    vertex 18.254217686264276 48.170514812331454 1.2000000000000002
    vertex 20.852293897617447 46.670514812331554 1.2000000000000002
  endloop
endfacet
facet normal 0.0 0.0 1.0
  outer loop
    vertex 20.852293897617447 46.670514812331554 1.2000000000000002
    vertex 18.254217686264276 48.170514812331454 1.2000000000000002
    vertex 19.09853426540339 43.63291402507299 1.2000000000000002
  endloop
endfacet
facet normal 0.0 0.0 1.0
  outer loop
    vertex 58.3176356674187 31.380132989890097 1.2000000000000002
    vertex 20.852293897617447 46.670514812331554 1.2000000000000002
    vertex 55.57222977086747 26.624950489664162 1.2000000000000002
  endloop
endfacet
endsolid Untitled-592d564d
