solid Untitled-592d563b
facet normal 0.9848077530122081 -0.17364817766693033 0.0
  outer loop
    vertex 50.86282383618081 10.898205817280655 0.0
    vertex 49.909354374396486 5.490811793102472 1.2000000000000006
    vertex 49.909354374396486 5.490811793102472 0.0
  endloop
endfacet
facet normal 0.9848077530122081 -0.17364817766693033 0.0
  outer loop
    vertex 49.909354374396486 5.490811793102472 1.2000000000000006
    vertex 50.86282383618081 10.898205817280655 0.0
    vertex 50.86282383618081 10.898205817280655 1.2000000000000006
  endloop
endfacet
facet normal 0.9848077530122081 -0.17364817766693033 0.0
  outer loop
    vertex 50.86282383618081 10.898205817280655 1.2000000000000006
    vertex 50.86282383618081 10.898205817280655 0.0
    vertex 51.816293297965146 16.30559984145882 0.0
  endloop
endfacet
facet normal 0.9848077530122081 -0.17364817766693033 0.0
  outer loop
    vertex 50.86282383618081 10.898205817280655 1.2000000000000006
    vertex 51.816293297965146 16.30559984145882 0.0
    vertex 51.816293297965146 16.30559984145882 1.2000000000000006
  endloop
endfacet
facet normal 0.7660444431189783 0.6427876096865388 1.2479454729363463e-15
  outer loop
    vertex 58.3923696875149 56.14292174279485 1.2000000000000006
    vertex 68.12189313942403 44.54772721475252 2.4000000000000017
    vertex 68.12189313942403 44.54772721475252 1.2000000000000006
  endloop
endfacet
facet normal 0.7660444431189783 0.6427876096865388 1.2479454729363463e-15
  outer loop
    vertex 68.12189313942403 44.54772721475252 2.4000000000000017
    vertex 58.3923696875149 56.14292174279485 1.2000000000000006
    vertex 58.392369687514886 56.14292174279486 2.400000000000005
  endloop
endfacet
facet normal 0.5000000000000009 0.8660254037844383 8.469054504419068e-15
  outer loop
    vertex 42.46367828497506 34.193176218730166 2.4000000000000017
    vertex 55.57222977086752 26.624950489664087 1.2000000000000006
    vertex 42.46367828497508 34.19317621873019 1.2000000000000006
  endloop
endfacet
facet normal 0.5000000000000009 0.8660254037844383 8.469054504419068e-15
  outer loop
    vertex 55.57222977086752 26.624950489664087 1.2000000000000006
    vertex 42.46367828497506 34.193176218730166 2.4000000000000017
    vertex 55.57222977086752 26.624950489664087 2.4000000000000017
  endloop
endfacet
facet normal 0.7660444431189759 -0.6427876096865421 0.0
  outer loop
    vertex 64.59246735169698 40.34152135243423 0.0
    vertex 61.063041563969996 36.13531549011593 1.2000000000000006
    vertex 61.063041563969996 36.13531549011593 0.0
  endloop
endfacet
facet normal 0.7660444431189759 -0.6427876096865421 0.0
  outer loop
    vertex 61.063041563969996 36.13531549011593 1.2000000000000006
    vertex 64.59246735169698 40.34152135243423 0.0
    vertex 64.59246735169698 40.34152135243423 1.2000000000000006
  endloop
endfacet
facet normal 0.7660444431189759 -0.6427876096865421 0.0
  outer loop
    vertex 64.59246735169698 40.34152135243423 1.2000000000000006
    vertex 64.59246735169698 40.34152135243423 0.0
    vertex 68.12189313942403 44.54772721475252 0.0
  endloop
endfacet
facet normal 0.7660444431189759 -0.6427876096865421 0.0
  outer loop
    vertex 64.59246735169698 40.34152135243423 1.2000000000000006
    vertex 68.12189313942403 44.54772721475252 0.0
    vertex 68.12189313942403 44.54772721475252 1.2000000000000006
  endloop
endfacet
facet normal 0.6427876096865395 -0.7660444431189781 0.0
  outer loop
    vertex 72.32809900174232 48.07715300247952 1.2000000000000006
    vertex 68.12189313942403 44.54772721475252 0.0
    vertex 72.32809900174232 48.07715300247952 0.0
  endloop
endfacet
facet normal 0.6427876096865395 -0.7660444431189781 0.0
  outer loop
    vertex 68.12189313942403 44.54772721475252 0.0
    vertex 72.32809900174232 48.07715300247952 1.2000000000000006
    vertex 68.12189313942403 44.54772721475252 1.2000000000000006
  endloop
endfacet
facet normal 0.34202014332566977 0.939692620785908 -1.2027527528437782e-17
  outer loop
    vertex 4.916841284155886 33.37560437788151 1.2000000000000006
    vertex 11.323877688611924 31.043633836799547 2.400000000000004
    vertex 11.323877688611924 31.043633836799547 1.2000000000000002
  endloop
endfacet
facet normal 0.34202014332566977 0.939692620785908 -1.2027527528437782e-17
  outer loop
    vertex 11.323877688611924 31.043633836799547 2.400000000000004
    vertex 4.916841284155886 33.37560437788151 1.2000000000000006
    vertex 4.916841284155886 33.37560437788151 2.4000000000000017
  endloop
endfacet
facet normal 0.9396926207859082 -0.34202014332566927 0.0
  outer loop
    vertex 53.694261534416334 21.465275165561447 0.0
    vertex 51.816293297965146 16.30559984145882 1.2000000000000006
    vertex 51.816293297965146 16.30559984145882 0.0
  endloop
endfacet
facet normal 0.9396926207859082 -0.34202014332566927 0.0
  outer loop
    vertex 51.816293297965146 16.30559984145882 1.2000000000000006
    vertex 53.694261534416334 21.465275165561447 0.0
    vertex 53.694261534416334 21.465275165561447 1.2000000000000006
  endloop
endfacet
facet normal 0.9396926207859082 -0.34202014332566927 0.0
  outer loop
    vertex 53.694261534416334 21.465275165561447 1.2000000000000006
    vertex 53.694261534416334 21.465275165561447 0.0
    vertex 55.57222977086752 26.624950489664087 0.0
  endloop
endfacet
facet normal 0.9396926207859082 -0.34202014332566927 0.0
  outer loop
    vertex 53.694261534416334 21.465275165561447 1.2000000000000006
    vertex 55.57222977086752 26.624950489664087 0.0
    vertex 55.57222977086752 26.624950489664087 1.2000000000000006
  endloop
endfacet
facet normal -0.17364817766693047 -0.984807753012208 -5.5459190356120466e-15
  outer loop
    vertex 9.379815721997344 23.788295804331717 2.400000000000004
    vertex 2.6651741622257523 24.97226827710582 1.2000000000000006
    vertex 9.379815721997344 23.78829580433173 1.2000000000000006
  endloop
endfacet
facet normal -0.17364817766693047 -0.984807753012208 -5.5459190356120466e-15
  outer loop
    vertex 2.6651741622257523 24.97226827710582 1.2000000000000006
    vertex 9.379815721997344 23.788295804331717 2.400000000000004
    vertex 2.6651741622257523 24.97226827710582 2.4000000000000017
  endloop
endfacet
facet normal 0.7660444431189783 0.6427876096865389 9.408606311719503e-16
  outer loop
    vertex 40.2469844024256 86.30993658064178 0.0
    vertex 72.32809900174232 48.07715300247952 1.2000000000000006
    vertex 72.32809900174232 48.07715300247952 0.0
  endloop
endfacet
facet normal 0.7660444431189783 0.6427876096865389 9.408606311719503e-16
  outer loop
    vertex 72.32809900174232 48.07715300247952 1.2000000000000006
    vertex 40.2469844024256 86.30993658064178 0.0
    vertex 40.2469844024256 86.30993658064178 1.2000000000000006
  endloop
endfacet
facet normal 0.17364817766693053 0.984807753012208 0.0
  outer loop
    vertex 10.427300057465306 12.452563222974568 2.4000000000000017
    vertex 49.909354374396486 5.490811793102472 1.2000000000000006
    vertex 10.427300057465306 12.452563222974568 1.2000000000000006
  endloop
endfacet
facet normal 0.17364817766693053 0.984807753012208 0.0
  outer loop
    vertex 49.909354374396486 5.490811793102472 1.2000000000000006
    vertex 10.427300057465306 12.452563222974568 2.4000000000000017
    vertex 49.909354374396486 5.490811793102472 2.4000000000000017
  endloop
endfacet
facet normal -0.5000000000000001 -0.8660254037844386 0.0
  outer loop
    vertex 61.063041563969996 36.13531549011593 2.4000000000000017
    vertex 47.95449007807753 43.703541219182036 1.2000000000000006
    vertex 61.063041563969996 36.13531549011593 1.2000000000000006
  endloop
endfacet
facet normal -0.5000000000000001 -0.8660254037844386 0.0
  outer loop
    vertex 47.95449007807753 43.703541219182036 1.2000000000000006
    vertex 61.063041563969996 36.13531549011593 2.4000000000000017
    vertex 47.95449007807753 43.703541219182036 2.4000000000000017
  endloop
endfacet
facet normal -2.471246482411344e-16 6.621684992603659e-17 1.0
  outer loop
    vertex 9.379815721997344 23.788295804331717 2.400000000000004
    vertex 3.423409400882805 29.272434001095135 2.4000000000000017
    vertex 2.6651741622257523 24.97226827710582 2.4000000000000017
  endloop
endfacet
facet normal -2.471246482411344e-16 6.621684992603659e-17 1.0
  outer loop
    vertex 3.423409400882805 29.272434001095135 2.4000000000000017
    vertex 9.379815721997344 23.788295804331717 2.400000000000004
    vertex 4.916841284155886 33.37560437788151 2.4000000000000017
  endloop
endfacet
facet normal -2.471246482411344e-16 6.621684992603659e-17 1.0
  outer loop
    vertex 4.916841284155886 33.37560437788151 2.4000000000000017
    vertex 9.379815721997344 23.788295804331717 2.400000000000004
    vertex 10.03446679135991 27.501006512200956 2.4000000000000017
  endloop
endfacet
facet normal -2.471246482411344e-16 6.621684992603659e-17 1.0
  outer loop
    vertex 4.916841284155886 33.37560437788151 2.4000000000000017
    vertex 10.03446679135991 27.501006512200956 2.4000000000000017
    vertex 11.323877688611924 31.043633836799547 2.400000000000004
  endloop
endfacet
facet normal -0.7660444431189765 0.6427876096865414 2.5639990282679697e-16
  outer loop
    vertex 32.69584340197798 79.97377695219856 2.4000000000000017
    vertex 29.889109561261773 76.62884181406925 1.2000000000000006
    vertex 29.889109561261773 76.62884181406925 2.4000000000000017
  endloop
endfacet
facet normal -0.7660444431189765 0.6427876096865414 2.5639990282679697e-16
  outer loop
    vertex 29.889109561261773 76.62884181406925 1.2000000000000006
    vertex 32.69584340197798 79.97377695219856 2.4000000000000017
    vertex 29.889109561261773 76.62884181406925 0.0
  endloop
endfacet
facet normal -0.7660444431189765 0.6427876096865414 2.5639990282679697e-16
  outer loop
    vertex 29.889109561261773 76.62884181406925 0.0
    vertex 32.69584340197798 79.97377695219856 2.4000000000000017
    vertex 32.69584340197798 79.97377695219856 -2.819966482547898e-16
  endloop
endfacet
facet normal -0.7660444431189765 0.6427876096865414 2.5639990282679697e-16
  outer loop
    vertex 22.83025798580771 68.21643008943266 2.4000000000000017
    vertex 20.023524145091493 64.87149495130335 -2.819966482547898e-16
    vertex 20.023524145091493 64.87149495130335 2.4000000000000017
  endloop
endfacet
facet normal -0.7660444431189765 0.6427876096865414 2.5639990282679697e-16
  outer loop
    vertex 20.023524145091493 64.87149495130335 -2.819966482547898e-16
    vertex 22.83025798580771 68.21643008943266 2.4000000000000017
    vertex 22.83025798580771 68.21643008943266 0.0
  endloop
endfacet
facet normal -0.7660444431189765 0.6427876096865414 2.5639990282679697e-16
  outer loop
    vertex 22.83025798580771 68.21643008943266 0.0
    vertex 22.83025798580771 68.21643008943266 2.4000000000000017
    vertex 22.83025798580771 68.21643008943266 1.2000000000000006
  endloop
endfacet
facet normal -0.7660444431189765 0.6427876096865414 2.5639990282679697e-16
  outer loop
    vertex 22.83025798580771 68.21643008943266 0.0
    vertex 22.83025798580771 68.21643008943266 1.2000000000000006
    vertex 26.359683773534716 72.42263595175096 1.2000000000000006
  endloop
endfacet
facet normal -0.7660444431189765 0.6427876096865414 2.5639990282679697e-16
  outer loop
    vertex 22.83025798580771 68.21643008943266 0.0
    vertex 26.359683773534716 72.42263595175096 1.2000000000000006
    vertex 26.359683773534716 72.42263595175096 0.0
  endloop
endfacet
facet normal -0.7660444431189765 0.6427876096865414 2.5639990282679697e-16
  outer loop
    vertex 26.359683773534716 72.42263595175096 0.0
    vertex 26.359683773534716 72.42263595175096 1.2000000000000006
    vertex 29.889109561261773 76.62884181406925 1.2000000000000006
  endloop
endfacet
facet normal -0.7660444431189765 0.6427876096865414 2.5639990282679697e-16
  outer loop
    vertex 26.359683773534716 72.42263595175096 0.0
    vertex 29.889109561261773 76.62884181406925 1.2000000000000006
    vertex 29.889109561261773 76.62884181406925 0.0
  endloop
endfacet
facet normal 0.6427876096865396 0.7660444431189779 3.5467254978973966e-16
  outer loop
    vertex 49.46784703592767 45.86483894202506 2.4000000000000017
    vertex 61.063041563969996 36.13531549011593 1.2000000000000006
    vertex 49.46784703592765 45.864838942025074 1.2000000000000002
  endloop
endfacet
facet normal 0.6427876096865396 0.7660444431189779 3.5467254978973966e-16
  outer loop
    vertex 61.063041563969996 36.13531549011593 1.2000000000000006
    vertex 49.46784703592767 45.86483894202506 2.4000000000000017
    vertex 61.063041563969996 36.13531549011593 2.4000000000000017
  endloop
endfacet
facet normal -0.8660254037844383 0.5000000000000007 -1.2486043383582777e-15
  outer loop
    vertex 20.023524145091493 64.87149495130335 2.4000000000000017
    vertex 17.840272789262634 61.08999267731417 1.2000000000000006
    vertex 17.840272789262634 61.08999267731417 2.4000000000000017
  endloop
endfacet
facet normal -0.8660254037844383 0.5000000000000007 -1.2486043383582777e-15
  outer loop
    vertex 17.840272789262634 61.08999267731417 1.2000000000000006
    vertex 20.023524145091493 64.87149495130335 2.4000000000000017
    vertex 17.840272789262634 61.08999267731417 0.0
  endloop
endfacet
facet normal -0.8660254037844383 0.5000000000000007 -1.2486043383582777e-15
  outer loop
    vertex 17.840272789262634 61.08999267731417 0.0
    vertex 20.023524145091493 64.87149495130335 2.4000000000000017
    vertex 20.023524145091493 64.87149495130335 -2.819966482547898e-16
  endloop
endfacet
facet normal -0.8660254037844383 0.5000000000000007 -1.2486043383582777e-15
  outer loop
    vertex 12.349460996160163 51.57962767686236 2.4000000000000017
    vertex 10.166209640331328 47.79812540287315 -2.819966482547898e-16
    vertex 10.166209640331328 47.79812540287315 2.4000000000000017
  endloop
endfacet
facet normal -0.8660254037844383 0.5000000000000007 -1.2486043383582777e-15
  outer loop
    vertex 10.166209640331328 47.79812540287315 -2.819966482547898e-16
    vertex 12.349460996160163 51.57962767686236 2.4000000000000017
    vertex 12.349460996160163 51.57962767686236 0.0
  endloop
endfacet
facet normal -0.8660254037844383 0.5000000000000007 -1.2486043383582777e-15
  outer loop
    vertex 12.349460996160163 51.57962767686236 0.0
    vertex 12.349460996160163 51.57962767686236 2.4000000000000017
    vertex 12.349460996160163 51.57962767686236 1.2000000000000006
  endloop
endfacet
facet normal -0.8660254037844383 0.5000000000000007 -1.2486043383582777e-15
  outer loop
    vertex 12.349460996160163 51.57962767686236 0.0
    vertex 12.349460996160163 51.57962767686236 1.2000000000000006
    vertex 15.094866892711432 56.33481017708827 1.2000000000000006
  endloop
endfacet
facet normal -0.8660254037844383 0.5000000000000007 -1.2486043383582777e-15
  outer loop
    vertex 12.349460996160163 51.57962767686236 0.0
    vertex 15.094866892711432 56.33481017708827 1.2000000000000006
    vertex 15.094866892711432 56.33481017708827 0.0
  endloop
endfacet
facet normal -0.8660254037844383 0.5000000000000007 -1.2486043383582777e-15
  outer loop
    vertex 15.094866892711432 56.33481017708827 0.0
    vertex 15.094866892711432 56.33481017708827 1.2000000000000006
    vertex 17.840272789262634 61.08999267731417 1.2000000000000006
  endloop
endfacet
facet normal -0.8660254037844383 0.5000000000000007 -1.2486043383582777e-15
  outer loop
    vertex 15.094866892711432 56.33481017708827 0.0
    vertex 17.840272789262634 61.08999267731417 1.2000000000000006
    vertex 17.840272789262634 61.08999267731417 0.0
  endloop
endfacet
facet normal 1.2886069489154937e-18 -6.008872886310424e-19 -1.0
  outer loop
    vertex 0.7582352386570753 14.157480228749462 0.0
    vertex 0.0 5.490811793102472 0.0
    vertex 0.0 9.857314504760145 -2.819966482547898e-16
  endloop
endfacet
facet normal 1.2886069489154937e-18 -6.008872886310424e-19 -1.0
  outer loop
    vertex 0.0 5.490811793102472 0.0
    vertex 0.7582352386570753 14.157480228749462 0.0
    vertex 0.0 0.0 0.0
  endloop
endfacet
facet normal 1.2886069489154937e-18 -6.008872886310424e-19 -1.0
  outer loop
    vertex 0.0 0.0 0.0
    vertex 0.7582352386570753 14.157480228749462 0.0
    vertex 49.90935437439647 1.119401933949356e-15 0.0
  endloop
endfacet
facet normal 1.2886069489154937e-18 -6.008872886310424e-19 -1.0
  outer loop
    vertex 49.90935437439647 1.119401933949356e-15 0.0
    vertex 0.7582352386570753 14.157480228749462 0.0
    vertex 1.7117047004414139 19.56487425292763 0.0
  endloop
endfacet
facet normal 1.2886069489154937e-18 -6.008872886310424e-19 -1.0
  outer loop
    vertex 49.90935437439647 1.119401933949356e-15 0.0
    vertex 1.7117047004414139 19.56487425292763 0.0
    vertex 2.6651741622257523 24.97226827710582 0.0
  endloop
endfacet
facet normal 1.2886069489154937e-18 -6.008872886310424e-19 -1.0
  outer loop
    vertex 49.90935437439647 1.119401933949356e-15 0.0
    vertex 2.6651741622257523 24.97226827710582 0.0
    vertex 3.423409400882805 29.272434001095135 -2.819966482547898e-16
  endloop
endfacet
facet normal 1.2886069489154937e-18 -6.008872886310424e-19 -1.0
  outer loop
    vertex 49.90935437439647 1.119401933949356e-15 0.0
    vertex 3.423409400882805 29.272434001095135 -2.819966482547898e-16
    vertex 4.916841284155886 33.37560437788151 0.0
  endloop
endfacet
facet normal 1.2886069489154937e-18 -6.008872886310424e-19 -1.0
  outer loop
    vertex 49.90935437439647 1.119401933949356e-15 0.0
    vertex 4.916841284155886 33.37560437788151 0.0
    vertex 6.7948095206070835 38.53527970198413 0.0
  endloop
endfacet
facet normal 1.2886069489154937e-18 -6.008872886310424e-19 -1.0
  outer loop
    vertex 49.90935437439647 1.119401933949356e-15 0.0
    vertex 6.7948095206070835 38.53527970198413 0.0
    vertex 8.672777757058258 43.694955026086774 0.0
  endloop
endfacet
facet normal 1.2886069489154937e-18 -6.008872886310424e-19 -1.0
  outer loop
    vertex 49.90935437439647 1.119401933949356e-15 0.0
    vertex 8.672777757058258 43.694955026086774 0.0
    vertex 10.166209640331328 47.79812540287315 -2.819966482547898e-16
  endloop
endfacet
facet normal 1.2886069489154937e-18 -6.008872886310424e-19 -1.0
  outer loop
    vertex 49.90935437439647 1.119401933949356e-15 0.0
    vertex 10.166209640331328 47.79812540287315 -2.819966482547898e-16
    vertex 12.349460996160163 51.57962767686236 0.0
  endloop
endfacet
facet normal 1.2886069489154937e-18 -6.008872886310424e-19 -1.0
  outer loop
    vertex 49.90935437439647 1.119401933949356e-15 0.0
    vertex 12.349460996160163 51.57962767686236 0.0
    vertex 15.094866892711432 56.33481017708827 0.0
  endloop
endfacet
facet normal 1.2886069489154937e-18 -6.008872886310424e-19 -1.0
  outer loop
    vertex 49.90935437439647 1.119401933949356e-15 0.0
    vertex 15.094866892711432 56.33481017708827 0.0
    vertex 17.840272789262634 61.08999267731417 0.0
  endloop
endfacet
facet normal 1.2886069489154937e-18 -6.008872886310424e-19 -1.0
  outer loop
    vertex 49.90935437439647 1.119401933949356e-15 0.0
    vertex 17.840272789262634 61.08999267731417 0.0
    vertex 20.023524145091493 64.87149495130335 -2.819966482547898e-16
  endloop
endfacet
facet normal 1.2886069489154937e-18 -6.008872886310424e-19 -1.0
  outer loop
    vertex 49.90935437439647 1.119401933949356e-15 0.0
    vertex 20.023524145091493 64.87149495130335 -2.819966482547898e-16
    vertex 22.83025798580771 68.21643008943266 0.0
  endloop
endfacet
facet normal 1.2886069489154937e-18 -6.008872886310424e-19 -1.0
  outer loop
    vertex 49.90935437439647 1.119401933949356e-15 0.0
    vertex 22.83025798580771 68.21643008943266 0.0
    vertex 26.359683773534716 72.42263595175096 0.0
  endloop
endfacet
facet normal 1.2886069489154937e-18 -6.008872886310424e-19 -1.0
  outer loop
    vertex 49.90935437439647 1.119401933949356e-15 0.0
    vertex 26.359683773534716 72.42263595175096 0.0
    vertex 29.889109561261773 76.62884181406925 0.0
  endloop
endfacet
facet normal 1.2886069489154937e-18 -6.008872886310424e-19 -1.0
  outer loop
    vertex 49.90935437439647 1.119401933949356e-15 0.0
    vertex 29.889109561261773 76.62884181406925 0.0
    vertex 32.69584340197798 79.97377695219856 -2.819966482547898e-16
  endloop
endfacet
facet normal 1.2886069489154937e-18 -6.008872886310424e-19 -1.0
  outer loop
    vertex 49.90935437439647 1.119401933949356e-15 0.0
    vertex 32.69584340197798 79.97377695219856 -2.819966482547898e-16
    vertex 36.040778540107304 82.7805107929148 0.0
  endloop
endfacet
facet normal 1.2886069489154937e-18 -6.008872886310424e-19 -1.0
  outer loop
    vertex 49.90935437439647 1.119401933949356e-15 0.0
    vertex 36.040778540107304 82.7805107929148 0.0
    vertex 40.2469844024256 86.30993658064178 0.0
  endloop
endfacet
facet normal 1.2886069489154937e-18 -6.008872886310424e-19 -1.0
  outer loop
    vertex 49.90935437439647 1.119401933949356e-15 0.0
    vertex 40.2469844024256 86.30993658064178 0.0
    vertex 49.909354374396486 5.490811793102472 0.0
  endloop
endfacet
facet normal 1.2886069489154937e-18 -6.008872886310424e-19 -1.0
  outer loop
    vertex 49.909354374396486 5.490811793102472 0.0
    vertex 40.2469844024256 86.30993658064178 0.0
    vertex 50.86282383618081 10.898205817280655 0.0
  endloop
endfacet
facet normal 1.2886069489154937e-18 -6.008872886310424e-19 -1.0
  outer loop
    vertex 50.86282383618081 10.898205817280655 0.0
    vertex 40.2469844024256 86.30993658064178 0.0
    vertex 51.816293297965146 16.30559984145882 0.0
  endloop
endfacet
facet normal 1.2886069489154937e-18 -6.008872886310424e-19 -1.0
  outer loop
    vertex 51.816293297965146 16.30559984145882 0.0
    vertex 40.2469844024256 86.30993658064178 0.0
    vertex 55.57222977086752 26.624950489664087 0.0
  endloop
endfacet
facet normal 1.2886069489154937e-18 -6.008872886310424e-19 -1.0
  outer loop
    vertex 55.57222977086752 26.624950489664087 0.0
    vertex 40.2469844024256 86.30993658064178 0.0
    vertex 58.31763566741875 31.38013298989001 0.0
  endloop
endfacet
facet normal 1.2886069489154937e-18 -6.008872886310424e-19 -1.0
  outer loop
    vertex 58.31763566741875 31.38013298989001 0.0
    vertex 40.2469844024256 86.30993658064178 0.0
    vertex 61.063041563969996 36.13531549011593 0.0
  endloop
endfacet
facet normal 1.2886069489154937e-18 -6.008872886310424e-19 -1.0
  outer loop
    vertex 61.063041563969996 36.13531549011593 0.0
    vertex 40.2469844024256 86.30993658064178 0.0
    vertex 64.59246735169698 40.34152135243423 0.0
  endloop
endfacet
facet normal 1.2886069489154937e-18 -6.008872886310424e-19 -1.0
  outer loop
    vertex 64.59246735169698 40.34152135243423 0.0
    vertex 40.2469844024256 86.30993658064178 0.0
    vertex 68.12189313942403 44.54772721475252 0.0
  endloop
endfacet
facet normal 1.2886069489154937e-18 -6.008872886310424e-19 -1.0
  outer loop
    vertex 68.12189313942403 44.54772721475252 0.0
    vertex 40.2469844024256 86.30993658064178 0.0
    vertex 72.32809900174232 48.07715300247952 0.0
  endloop
endfacet
facet normal 1.2886069489154937e-18 -6.008872886310424e-19 -1.0
  outer loop
    vertex 51.816293297965146 16.30559984145882 0.0
    vertex 55.57222977086752 26.624950489664087 0.0
    vertex 53.694261534416334 21.465275165561447 0.0
  endloop
endfacet
facet normal 0.8660254037844384 -0.5000000000000006 0.0
  outer loop
    vertex 58.31763566741875 31.38013298989001 0.0
    vertex 55.57222977086752 26.624950489664087 1.2000000000000006
    vertex 55.57222977086752 26.624950489664087 0.0
  endloop
endfacet
facet normal 0.8660254037844384 -0.5000000000000006 0.0
  outer loop
    vertex 55.57222977086752 26.624950489664087 1.2000000000000006
    vertex 58.31763566741875 31.38013298989001 0.0
    vertex 58.31763566741875 31.38013298989001 1.2000000000000006
  endloop
endfacet
facet normal 0.8660254037844384 -0.5000000000000006 0.0
  outer loop
    vertex 58.31763566741875 31.38013298989001 1.2000000000000006
    vertex 58.31763566741875 31.38013298989001 0.0
    vertex 61.063041563969996 36.13531549011593 0.0
  endloop
endfacet
facet normal 0.8660254037844384 -0.5000000000000006 0.0
  outer loop
    vertex 58.31763566741875 31.38013298989001 1.2000000000000006
    vertex 61.063041563969996 36.13531549011593 0.0
    vertex 61.063041563969996 36.13531549011593 1.2000000000000006
  endloop
endfacet
facet normal -0.6427876096865401 -0.7660444431189776 -5.451919220290873e-16
  outer loop
    vertex 68.12189313942403 44.54772721475252 1.2000000000000006
    vertex 56.526698611381704 54.27725066666166 2.4000000000000017
    vertex 56.5266986113817 54.27725066666166 1.2000000000000002
  endloop
endfacet
facet normal -0.6427876096865401 -0.7660444431189776 -5.451919220290873e-16
  outer loop
    vertex 56.526698611381704 54.27725066666166 2.4000000000000017
    vertex 68.12189313942403 44.54772721475252 1.2000000000000006
    vertex 68.12189313942403 44.54772721475252 2.4000000000000017
  endloop
endfacet
facet normal -0.9396926207859086 0.34202014332566855 -1.2152999452890673e-15
  outer loop
    vertex 10.166209640331328 47.79812540287315 2.4000000000000017
    vertex 8.672777757058258 43.694955026086774 1.2000000000000006
    vertex 8.672777757058258 43.694955026086774 2.4000000000000017
  endloop
endfacet
facet normal -0.9396926207859086 0.34202014332566855 -1.2152999452890673e-15
  outer loop
    vertex 8.672777757058258 43.694955026086774 1.2000000000000006
    vertex 10.166209640331328 47.79812540287315 2.4000000000000017
    vertex 8.672777757058258 43.694955026086774 0.0
  endloop
endfacet
facet normal -0.9396926207859086 0.34202014332566855 -1.2152999452890673e-15
  outer loop
    vertex 8.672777757058258 43.694955026086774 0.0
    vertex 10.166209640331328 47.79812540287315 2.4000000000000017
    vertex 10.166209640331328 47.79812540287315 -2.819966482547898e-16
  endloop
endfacet
facet normal -0.9396926207859086 0.34202014332566855 -1.2152999452890673e-15
  outer loop
    vertex 4.916841284155886 33.37560437788151 2.4000000000000017
    vertex 3.423409400882805 29.272434001095135 -2.819966482547898e-16
    vertex 3.423409400882805 29.272434001095135 2.4000000000000017
  endloop
endfacet
facet normal -0.9396926207859086 0.34202014332566855 -1.2152999452890673e-15
  outer loop
    vertex 3.423409400882805 29.272434001095135 -2.819966482547898e-16
    vertex 4.916841284155886 33.37560437788151 2.4000000000000017
    vertex 4.916841284155886 33.37560437788151 0.0
  endloop
endfacet
facet normal -0.9396926207859086 0.34202014332566855 -1.2152999452890673e-15
  outer loop
    vertex 4.916841284155886 33.37560437788151 0.0
    vertex 4.916841284155886 33.37560437788151 2.4000000000000017
    vertex 4.916841284155886 33.37560437788151 1.2000000000000006
  endloop
endfacet
facet normal -0.9396926207859086 0.34202014332566855 -1.2152999452890673e-15
  outer loop
    vertex 4.916841284155886 33.37560437788151 0.0
    vertex 4.916841284155886 33.37560437788151 1.2000000000000006
    vertex 6.7948095206070835 38.53527970198413 1.2000000000000006
  endloop
endfacet
facet normal -0.9396926207859086 0.34202014332566855 -1.2152999452890673e-15
  outer loop
    vertex 4.916841284155886 33.37560437788151 0.0
    vertex 6.7948095206070835 38.53527970198413 1.2000000000000006
    vertex 6.7948095206070835 38.53527970198413 0.0
  endloop
endfacet
facet normal -0.9396926207859086 0.34202014332566855 -1.2152999452890673e-15
  outer loop
    vertex 6.7948095206070835 38.53527970198413 0.0
    vertex 6.7948095206070835 38.53527970198413 1.2000000000000006
    vertex 8.672777757058258 43.694955026086774 1.2000000000000006
  endloop
endfacet
facet normal -0.9396926207859086 0.34202014332566855 -1.2152999452890673e-15
  outer loop
    vertex 6.7948095206070835 38.53527970198413 0.0
    vertex 8.672777757058258 43.694955026086774 1.2000000000000006
    vertex 8.672777757058258 43.694955026086774 0.0
  endloop
endfacet
facet normal 2.1570415377137042e-32 -1.0 -1.480533972402444e-31
  outer loop
    vertex 49.90935437439647 1.119401933949356e-15 1.2000000000000006
    vertex 0.0 0.0 0.0
    vertex 49.90935437439647 1.119401933949356e-15 0.0
  endloop
endfacet
facet normal 2.1570415377137042e-32 -1.0 -1.480533972402444e-31
  outer loop
    vertex 0.0 0.0 0.0
    vertex 49.90935437439647 1.119401933949356e-15 1.2000000000000006
    vertex 0.0 0.0 1.2000000000000006
  endloop
endfacet
facet normal 0.0 0.0 1.0
  outer loop
    vertex 61.063041563969996 36.13531549011593 2.4000000000000017
    vertex 48.6166240323761 44.85039086944365 2.4000000000000017
    vertex 47.95449007807753 43.703541219182036 2.4000000000000017
  endloop
endfacet
facet normal 0.0 0.0 1.0
  outer loop
    vertex 48.6166240323761 44.85039086944365 2.4000000000000017
    vertex 61.063041563969996 36.13531549011593 2.4000000000000017
    vertex 49.46784703592767 45.86483894202506 2.4000000000000017
  endloop
endfacet
facet normal -0.6427876096865388 0.7660444431189786 -2.1847867455128228e-16
  outer loop
    vertex 32.69584340197798 79.97377695219856 2.4000000000000017
    vertex 36.040778540107304 82.7805107929148 0.0
    vertex 32.69584340197798 79.97377695219856 -2.819966482547898e-16
  endloop
endfacet
facet normal -0.6427876096865388 0.7660444431189786 -2.1847867455128228e-16
  outer loop
    vertex 36.040778540107304 82.7805107929148 0.0
    vertex 32.69584340197798 79.97377695219856 2.4000000000000017
    vertex 36.040778540107304 82.7805107929148 1.2000000000000006
  endloop
endfacet
facet normal -0.6427876096865388 0.7660444431189786 -2.1847867455128228e-16
  outer loop
    vertex 36.040778540107304 82.7805107929148 0.0
    vertex 36.040778540107304 82.7805107929148 1.2000000000000006
    vertex 40.2469844024256 86.30993658064178 0.0
  endloop
endfacet
facet normal -0.6427876096865388 0.7660444431189786 -2.1847867455128228e-16
  outer loop
    vertex 36.040778540107304 82.7805107929148 1.2000000000000006
    vertex 32.69584340197798 79.97377695219856 2.4000000000000017
    vertex 36.040778540107304 82.7805107929148 2.4000000000000017
  endloop
endfacet
facet normal -0.6427876096865388 0.7660444431189786 -2.1847867455128228e-16
  outer loop
    vertex 40.2469844024256 86.30993658064178 1.2000000000000006
    vertex 40.2469844024256 86.30993658064178 0.0
    vertex 36.040778540107304 82.7805107929148 1.2000000000000006
  endloop
endfacet
facet normal -1.0 0.0 0.0
  outer loop
    vertex 0.0 9.857314504760145 2.4000000000000017
    vertex 0.0 5.490811793102472 1.2000000000000006
    vertex 0.0 5.490811793102472 2.4000000000000017
  endloop
endfacet
facet normal -1.0 0.0 0.0
  outer loop
    vertex 0.0 5.490811793102472 1.2000000000000006
    vertex 0.0 9.857314504760145 2.4000000000000017
    vertex 0.0 5.490811793102472 0.0
  endloop
endfacet
facet normal -1.0 0.0 0.0
  outer loop
    vertex 0.0 5.490811793102472 0.0
    vertex 0.0 9.857314504760145 2.4000000000000017
    vertex 0.0 9.857314504760145 -2.819966482547898e-16
  endloop
endfacet
facet normal -1.0 0.0 0.0
  outer loop
    vertex 0.0 5.490811793102472 1.2000000000000006
    vertex 0.0 0.0 0.0
    vertex 0.0 0.0 1.2000000000000006
  endloop
endfacet
facet normal -1.0 0.0 0.0
  outer loop
    vertex 0.0 0.0 0.0
    vertex 0.0 5.490811793102472 1.2000000000000006
    vertex 0.0 5.490811793102472 0.0
  endloop
endfacet
facet normal -0.9848077530122081 0.17364817766693078 8.094733637236624e-18
  outer loop
    vertex 3.423409400882805 29.272434001095135 2.4000000000000017
    vertex 2.6651741622257523 24.97226827710582 1.2000000000000006
    vertex 2.6651741622257523 24.97226827710582 2.4000000000000017
  endloop
endfacet
facet normal -0.9848077530122081 0.17364817766693078 8.094733637236624e-18
  outer loop
    vertex 2.6651741622257523 24.97226827710582 1.2000000000000006
    vertex 3.423409400882805 29.272434001095135 2.4000000000000017
    vertex 2.6651741622257523 24.97226827710582 0.0
  endloop
endfacet
facet normal -0.9848077530122081 0.17364817766693078 8.094733637236624e-18
  outer loop
    vertex 2.6651741622257523 24.97226827710582 0.0
    vertex 3.423409400882805 29.272434001095135 2.4000000000000017
    vertex 3.423409400882805 29.272434001095135 -2.819966482547898e-16
  endloop
endfacet
facet normal -0.9848077530122081 0.17364817766693078 8.094733637236624e-18
  outer loop
    vertex 0.7582352386570753 14.157480228749462 2.4000000000000017
    vertex 0.0 9.857314504760145 -2.819966482547898e-16
    vertex 0.0 9.857314504760145 2.4000000000000017
  endloop
endfacet
facet normal -0.9848077530122081 0.17364817766693078 8.094733637236624e-18
  outer loop
    vertex 0.0 9.857314504760145 -2.819966482547898e-16
    vertex 0.7582352386570753 14.157480228749462 2.4000000000000017
    vertex 0.7582352386570753 14.157480228749462 0.0
  endloop
endfacet
facet normal -0.9848077530122081 0.17364817766693078 8.094733637236624e-18
  outer loop
    vertex 0.7582352386570753 14.157480228749462 0.0
    vertex 0.7582352386570753 14.157480228749462 2.4000000000000017
    vertex 0.7582352386570753 14.157480228749462 1.2000000000000006
  endloop
endfacet
facet normal -0.9848077530122081 0.17364817766693078 8.094733637236624e-18
  outer loop
    vertex 0.7582352386570753 14.157480228749462 0.0
    vertex 0.7582352386570753 14.157480228749462 1.2000000000000006
    vertex 1.7117047004414139 19.56487425292763 1.2000000000000006
  endloop
endfacet
facet normal -0.9848077530122081 0.17364817766693078 8.094733637236624e-18
  outer loop
    vertex 0.7582352386570753 14.157480228749462 0.0
    vertex 1.7117047004414139 19.56487425292763 1.2000000000000006
    vertex 1.7117047004414139 19.56487425292763 0.0
  endloop
endfacet
facet normal -0.9848077530122081 0.17364817766693078 8.094733637236624e-18
  outer loop
    vertex 1.7117047004414139 19.56487425292763 0.0
    vertex 1.7117047004414139 19.56487425292763 1.2000000000000006
    vertex 2.6651741622257523 24.97226827710582 1.2000000000000006
  endloop
endfacet
facet normal -0.9848077530122081 0.17364817766693078 8.094733637236624e-18
  outer loop
    vertex 1.7117047004414139 19.56487425292763 0.0
    vertex 2.6651741622257523 24.97226827710582 1.2000000000000006
    vertex 2.6651741622257523 24.97226827710582 0.0
  endloop
endfacet
facet normal -2.2428699949755503e-17 -1.0 0.0
  outer loop
    vertex 49.909354374396486 5.490811793102472 2.4000000000000017
    vertex 9.818225729066071 5.490811793102472 1.2000000000000006
    vertex 49.909354374396486 5.490811793102472 1.2000000000000006
  endloop
endfacet
facet normal -2.2428699949755503e-17 -1.0 0.0
  outer loop
    vertex 9.818225729066071 5.490811793102472 1.2000000000000006
    vertex 49.909354374396486 5.490811793102472 2.4000000000000017
    vertex 9.818225729066071 5.490811793102472 2.4000000000000017
  endloop
endfacet
facet normal 1.0 -1.643453296922151e-15 0.0
  outer loop
    vertex 49.909354374396486 5.490811793102472 0.0
    vertex 49.90935437439647 1.119401933949356e-15 1.2000000000000006
    vertex 49.90935437439647 1.119401933949356e-15 0.0
  endloop
endfacet
facet normal 1.0 -1.643453296922151e-15 0.0
  outer loop
    vertex 49.90935437439647 1.119401933949356e-15 1.2000000000000006
    vertex 49.909354374396486 5.490811793102472 0.0
    vertex 49.909354374396486 5.490811793102472 1.2000000000000006
  endloop
endfacet
facet normal -0.342020143325669 -0.9396926207859083 -3.739305724480657e-15
  outer loop
    vertex 55.57222977086752 26.624950489664087 2.4000000000000017
    vertex 17.898892023871987 40.336924055027815 1.2000000000000006
    vertex 55.57222977086752 26.624950489664087 1.2000000000000006
  endloop
endfacet
facet normal -0.342020143325669 -0.9396926207859083 -3.739305724480657e-15
  outer loop
    vertex 17.898892023871987 40.336924055027815 1.2000000000000006
    vertex 55.57222977086752 26.624950489664087 2.4000000000000017
    vertex 17.898892023871987 40.33692405502781 2.4000000000000017
  endloop
endfacet
facet normal 0.0 0.0 1.0
  outer loop
    vertex 54.22856528202476 56.205613495721295 2.4000000000000017
    vertex 32.69584340197798 79.97377695219856 2.4000000000000017
    vertex 29.889109561261773 76.62884181406925 2.4000000000000017
  endloop
endfacet
facet normal 0.0 0.0 1.0
  outer loop
    vertex 32.69584340197798 79.97377695219856 2.4000000000000017
    vertex 54.22856528202476 56.205613495721295 2.4000000000000017
    vertex 36.040778540107304 82.7805107929148 2.4000000000000017
  endloop
endfacet
facet normal 0.0 0.0 1.0
  outer loop
    vertex 36.040778540107304 82.7805107929148 2.4000000000000017
    vertex 54.22856528202476 56.205613495721295 2.4000000000000017
    vertex 55.24849817228389 57.421122181892564 2.4000000000000017
  endloop
endfacet
facet normal 0.0 0.0 1.0
  outer loop
    vertex 36.040778540107304 82.7805107929148 2.4000000000000017
    vertex 55.24849817228389 57.421122181892564 2.4000000000000017
    vertex 56.46400685845528 58.44105507215175 2.4000000000000017
  endloop
endfacet
facet normal 0.9848077530122082 -0.17364817766692964 -1.4495403029001504e-17
  outer loop
    vertex 7.472876798428678 12.973507755975362 1.2000000000000006
    vertex 6.818225729066078 9.260797048105962 2.4000000000000017
    vertex 6.818225729066078 9.260797048105962 1.2000000000000002
  endloop
endfacet
facet normal 0.9848077530122082 -0.17364817766692964 -1.4495403029001504e-17
  outer loop
    vertex 6.818225729066078 9.260797048105962 2.4000000000000017
    vertex 7.472876798428678 12.973507755975362 1.2000000000000006
    vertex 7.472876798428678 12.973507755975362 2.4000000000000017
  endloop
endfacet
facet normal 0.7660444431189783 0.6427876096865393 0.0
  outer loop
    vertex 36.040778540107304 82.7805107929148 1.2000000000000006
    vertex 56.46400685845528 58.44105507215175 2.4000000000000017
    vertex 56.46400685845528 58.44105507215175 1.2000000000000006
  endloop
endfacet
facet normal 0.7660444431189783 0.6427876096865393 0.0
  outer loop
    vertex 56.46400685845528 58.44105507215175 2.4000000000000017
    vertex 36.040778540107304 82.7805107929148 1.2000000000000006
    vertex 36.040778540107304 82.7805107929148 2.4000000000000017
  endloop
endfacet
facet normal -0.17364817766693025 -0.9848077530122081 0.0
  outer loop
    vertex 51.816293297965146 16.30559984145882 2.4000000000000017
    vertex 12.334238981033948 23.26735127133092 1.2000000000000006
    vertex 51.816293297965146 16.30559984145882 1.2000000000000006
  endloop
endfacet
facet normal -0.17364817766693025 -0.9848077530122081 0.0
  outer loop
    vertex 12.334238981033948 23.26735127133092 1.2000000000000006
    vertex 51.816293297965146 16.30559984145882 2.4000000000000017
    vertex 12.334238981033948 23.26735127133092 2.4000000000000017
  endloop
endfacet
facet normal -0.9396926207859082 0.34202014332566927 -5.476206942630439e-15
  outer loop
    vertex 12.943313309433137 26.72158343677713 2.4000000000000017
    vertex 14.142955550969624 30.01757340682255 1.2000000000000002
    vertex 12.943313309433137 26.72158343677712 1.2000000000000002
  endloop
endfacet
facet normal -0.9396926207859082 0.34202014332566927 -5.476206942630439e-15
  outer loop
    vertex 14.142955550969624 30.01757340682255 1.2000000000000002
    vertex 12.943313309433137 26.72158343677713 2.4000000000000017
    vertex 14.142955550969624 30.01757340682255 2.400000000000004
  endloop
endfacet
facet normal 0.17364817766693036 0.9848077530122081 0.0
  outer loop
    vertex 0.7582352386570753 14.157480228749462 2.4000000000000017
    vertex 7.472876798428678 12.973507755975362 1.2000000000000006
    vertex 0.7582352386570753 14.157480228749462 1.2000000000000006
  endloop
endfacet
facet normal 0.17364817766693036 0.9848077530122081 0.0
  outer loop
    vertex 7.472876798428678 12.973507755975362 1.2000000000000006
    vertex 0.7582352386570753 14.157480228749462 2.4000000000000017
    vertex 7.472876798428678 12.973507755975362 2.4000000000000017
  endloop
endfacet
facet normal -0.9848077530122088 0.1736481776669265 -4.0139294929177806e-15
  outer loop
    vertex 9.818225729066071 8.998331057528157 2.4000000000000017
    vertex 10.427300057465306 12.452563222974568 1.2000000000000006
    vertex 9.818225729066071 8.99833105752815 1.2000000000000002
  endloop
endfacet
facet normal -0.9848077530122088 0.1736481776669265 -4.0139294929177806e-15
  outer loop
    vertex 10.427300057465306 12.452563222974568 1.2000000000000006
    vertex 9.818225729066071 8.998331057528157 2.4000000000000017
    vertex 10.427300057465306 12.452563222974568 2.4000000000000017
  endloop
endfacet
facet normal 0.0 0.0 1.0
  outer loop
    vertex 6.818225729066078 5.490811793102472 2.4000000000000017
    vertex 0.0 9.857314504760145 2.4000000000000017
    vertex 0.0 5.490811793102472 2.4000000000000017
  endloop
endfacet
facet normal 0.0 0.0 1.0
  outer loop
    vertex 0.0 9.857314504760145 2.4000000000000017
    vertex 6.818225729066078 5.490811793102472 2.4000000000000017
    vertex 0.7582352386570753 14.157480228749462 2.4000000000000017
  endloop
endfacet
facet normal 0.0 0.0 1.0
  outer loop
    vertex 0.7582352386570753 14.157480228749462 2.4000000000000017
    vertex 6.818225729066078 5.490811793102472 2.4000000000000017
    vertex 6.818225729066078 9.260797048105962 2.4000000000000017
  endloop
endfacet
facet normal 0.0 0.0 1.0
  outer loop
    vertex 0.7582352386570753 14.157480228749462 2.4000000000000017
    vertex 6.818225729066078 9.260797048105962 2.4000000000000017
    vertex 7.472876798428678 12.973507755975362 2.4000000000000017
  endloop
endfacet
facet normal -0.4226182617406654 -0.906307787036666 -3.1532230269522673e-15
  outer loop
    vertex 19.09853426540843 43.63291402507316 2.4000000000000017
    vertex 16.369225058766197 44.90561180960325 1.2000000000000002
    vertex 19.09853426540845 43.63291402507316 1.2000000000000002
  endloop
endfacet
facet normal -0.4226182617406654 -0.906307787036666 -3.1532230269522673e-15
  outer loop
    vertex 16.369225058766197 44.90561180960325 1.2000000000000002
    vertex 19.09853426540843 43.63291402507316 2.4000000000000017
    vertex 16.369225058766197 44.90561180960325 2.4000000000000017
  endloop
endfacet
facet normal 0.5000000000000004 0.8660254037844386 0.0
  outer loop
    vertex 12.349460996160163 51.57962767686236 2.4000000000000017
    vertex 39.86560207362176 35.69317621873015 1.2000000000000006
    vertex 12.349460996160163 51.57962767686236 1.2000000000000006
  endloop
endfacet
facet normal 0.5000000000000004 0.8660254037844386 0.0
  outer loop
    vertex 39.86560207362176 35.69317621873015 1.2000000000000006
    vertex 12.349460996160163 51.57962767686236 2.4000000000000017
    vertex 39.86560207362176 35.69317621873015 2.4000000000000017
  endloop
endfacet
facet normal -1.0 0.0 0.0
  outer loop
    vertex 9.818225729066071 8.998331057528157 2.4000000000000017
    vertex 9.818225729066071 5.490811793102472 1.2000000000000006
    vertex 9.818225729066071 5.490811793102472 2.4000000000000017
  endloop
endfacet
facet normal -1.0 0.0 0.0
  outer loop
    vertex 9.818225729066071 5.490811793102472 1.2000000000000006
    vertex 9.818225729066071 8.998331057528157 2.4000000000000017
    vertex 9.818225729066071 8.99833105752815 1.2000000000000002
  endloop
endfacet
facet normal -7.379614797556183e-17 -3.5620953953645932e-16 1.0
  outer loop
    vertex 51.816293297965146 16.30559984145882 2.4000000000000017
    vertex 12.943313309433137 26.72158343677713 2.4000000000000017
    vertex 12.334238981033948 23.26735127133092 2.4000000000000017
  endloop
endfacet
facet normal -7.379614797556183e-17 -3.5620953953645932e-16 1.0
  outer loop
    vertex 12.943313309433137 26.72158343677713 2.4000000000000017
    vertex 51.816293297965146 16.30559984145882 2.4000000000000017
    vertex 14.142955550969624 30.01757340682255 2.400000000000004
  endloop
endfacet
facet normal 0.9396926207859081 -0.34202014332566955 7.058026510565636e-15
  outer loop
    vertex 16.369225058766197 44.90561180960325 1.2000000000000002
    vertex 15.079814161514252 41.362984485004844 2.400000000000004
    vertex 15.079814161514252 41.362984485004844 1.2000000000000002
  endloop
endfacet
facet normal 0.9396926207859081 -0.34202014332566955 7.058026510565636e-15
  outer loop
    vertex 15.079814161514252 41.362984485004844 2.400000000000004
    vertex 16.369225058766197 44.90561180960325 1.2000000000000002
    vertex 16.369225058766197 44.90561180960325 2.4000000000000017
  endloop
endfacet
facet normal 0.0 0.0 1.0
  outer loop
    vertex 49.909354374396486 5.490811793102472 2.4000000000000017
    vertex 9.818225729066071 8.998331057528157 2.4000000000000017
    vertex 9.818225729066071 5.490811793102472 2.4000000000000017
  endloop
endfacet
facet normal 0.0 0.0 1.0
  outer loop
    vertex 9.818225729066071 8.998331057528157 2.4000000000000017
    vertex 49.909354374396486 5.490811793102472 2.4000000000000017
    vertex 10.427300057465306 12.452563222974568 2.4000000000000017
  endloop
endfacet
facet normal 5.522209855616668e-17 1.0888745782825994e-16 1.0
  outer loop
    vertex 17.898892023871987 40.33692405502781 2.4000000000000017
    vertex 41.8015443306765 33.04632656846855 2.4000000000000017
    vertex 19.09853426540843 43.63291402507316 2.4000000000000017
  endloop
endfacet
facet normal 5.522209855616668e-17 1.0888745782825994e-16 1.0
  outer loop
    vertex 41.8015443306765 33.04632656846855 2.4000000000000017
    vertex 17.898892023871987 40.33692405502781 2.4000000000000017
    vertex 55.57222977086752 26.624950489664087 2.4000000000000017
  endloop
endfacet
facet normal 5.522209855616668e-17 1.0888745782825994e-16 1.0
  outer loop
    vertex 19.09853426540843 43.63291402507316 2.4000000000000017
    vertex 41.8015443306765 33.04632656846855 2.4000000000000017
    vertex 39.072235124034336 34.31902435299886 2.4000000000000012
  endloop
endfacet
facet normal 5.522209855616668e-17 1.0888745782825994e-16 1.0
  outer loop
    vertex 41.8015443306765 33.04632656846855 2.4000000000000017
    vertex 55.57222977086752 26.624950489664087 2.4000000000000017
    vertex 42.46367828497506 34.193176218730166 2.4000000000000017
  endloop
endfacet
facet normal 5.522209855616668e-17 1.0888745782825994e-16 1.0
  outer loop
    vertex 15.079814161514252 41.362984485004844 2.400000000000004
    vertex 10.166209640331328 47.79812540287315 2.4000000000000017
    vertex 8.672777757058258 43.694955026086774 2.4000000000000017
  endloop
endfacet
facet normal 5.522209855616668e-17 1.0888745782825994e-16 1.0
  outer loop
    vertex 10.166209640331328 47.79812540287315 2.4000000000000017
    vertex 15.079814161514252 41.362984485004844 2.400000000000004
    vertex 12.349460996160163 51.57962767686236 2.4000000000000017
  endloop
endfacet
facet normal 5.522209855616668e-17 1.0888745782825994e-16 1.0
  outer loop
    vertex 12.349460996160163 51.57962767686236 2.4000000000000017
    vertex 15.079814161514252 41.362984485004844 2.400000000000004
    vertex 16.369225058766197 44.90561180960325 2.4000000000000017
  endloop
endfacet
facet normal 5.522209855616668e-17 1.0888745782825994e-16 1.0
  outer loop
    vertex 12.349460996160163 51.57962767686236 2.4000000000000017
    vertex 16.369225058766197 44.90561180960325 2.4000000000000017
    vertex 39.86560207362176 35.69317621873015 2.4000000000000017
  endloop
endfacet
facet normal 5.522209855616668e-17 1.0888745782825994e-16 1.0
  outer loop
    vertex 39.86560207362176 35.69317621873015 2.4000000000000017
    vertex 16.369225058766197 44.90561180960325 2.4000000000000017
    vertex 19.09853426540843 43.63291402507316 2.4000000000000017
  endloop
endfacet
facet normal 5.522209855616668e-17 1.0888745782825994e-16 1.0
  outer loop
    vertex 39.86560207362176 35.69317621873015 2.4000000000000017
    vertex 19.09853426540843 43.63291402507316 2.4000000000000017
    vertex 39.072235124034336 34.31902435299886 2.4000000000000012
  endloop
endfacet
facet normal -0.3420201433256666 -0.9396926207859092 7.04541794734305e-17
  outer loop
    vertex 15.079814161514252 41.362984485004844 2.400000000000004
    vertex 8.672777757058258 43.694955026086774 1.2000000000000006
    vertex 15.079814161514252 41.362984485004844 1.2000000000000002
  endloop
endfacet
facet normal -0.3420201433256666 -0.9396926207859092 7.04541794734305e-17
  outer loop
    vertex 8.672777757058258 43.694955026086774 1.2000000000000006
    vertex 15.079814161514252 41.362984485004844 2.400000000000004
    vertex 8.672777757058258 43.694955026086774 2.4000000000000017
  endloop
endfacet
facet normal 0.6427876096865395 0.7660444431189781 3.850094174230592e-16
  outer loop
    vertex 22.83025798580771 68.21643008943266 1.2000000000000006
    vertex 47.16971370657072 47.7932017710847 2.400000000000005
    vertex 47.16971370657072 47.7932017710847 1.2000000000000002
  endloop
endfacet
facet normal 0.6427876096865395 0.7660444431189781 3.850094174230592e-16
  outer loop
    vertex 47.16971370657072 47.7932017710847 2.400000000000005
    vertex 22.83025798580771 68.21643008943266 1.2000000000000006
    vertex 22.83025798580771 68.21643008943266 2.4000000000000017
  endloop
endfacet
facet normal -0.939692620785908 0.3420201433256698 -2.2373985723544574e-15
  outer loop
    vertex 19.09853426540843 43.63291402507316 2.4000000000000017
    vertex 17.898892023871987 40.336924055027815 1.2000000000000006
    vertex 17.898892023871987 40.33692405502781 2.4000000000000017
  endloop
endfacet
facet normal -0.939692620785908 0.3420201433256698 -2.2373985723544574e-15
  outer loop
    vertex 17.898892023871987 40.336924055027815 1.2000000000000006
    vertex 19.09853426540843 43.63291402507316 2.4000000000000017
    vertex 19.09853426540845 43.63291402507316 1.2000000000000002
  endloop
endfacet
facet normal -0.984807753012208 0.17364817766693155 -4.690728832086068e-15
  outer loop
    vertex 12.943313309433137 26.72158343677713 2.4000000000000017
    vertex 12.334238981033948 23.26735127133092 1.2000000000000006
    vertex 12.334238981033948 23.26735127133092 2.4000000000000017
  endloop
endfacet
facet normal -0.984807753012208 0.17364817766693155 -4.690728832086068e-15
  outer loop
    vertex 12.334238981033948 23.26735127133092 1.2000000000000006
    vertex 12.943313309433137 26.72158343677713 2.4000000000000017
    vertex 12.943313309433137 26.72158343677712 1.2000000000000002
  endloop
endfacet
facet normal 0.3420201433256689 0.9396926207859085 -1.6154144260944804e-16
  outer loop
    vertex 14.142955550969624 30.01757340682255 2.400000000000004
    vertex 51.816293297965146 16.30559984145882 1.2000000000000006
    vertex 14.142955550969624 30.01757340682255 1.2000000000000002
  endloop
endfacet
facet normal 0.3420201433256689 0.9396926207859085 -1.6154144260944804e-16
  outer loop
    vertex 51.816293297965146 16.30559984145882 1.2000000000000006
    vertex 14.142955550969624 30.01757340682255 2.400000000000004
    vertex 51.816293297965146 16.30559984145882 2.4000000000000017
  endloop
endfacet
facet normal 0.9396926207859081 -0.34202014332566955 1.2716365789761166e-15
  outer loop
    vertex 11.323877688611924 31.043633836799547 1.2000000000000002
    vertex 10.03446679135991 27.501006512200956 2.4000000000000017
    vertex 10.03446679135991 27.501006512200945 1.2000000000000002
  endloop
endfacet
facet normal 0.9396926207859081 -0.34202014332566955 1.2716365789761166e-15
  outer loop
    vertex 10.03446679135991 27.501006512200956 2.4000000000000017
    vertex 11.323877688611924 31.043633836799547 1.2000000000000002
    vertex 11.323877688611924 31.043633836799547 2.400000000000004
  endloop
endfacet
facet normal 1.0 0.0 0.0
  outer loop
    vertex 6.818225729066078 9.260797048105962 1.2000000000000002
    vertex 6.818225729066078 5.490811793102472 2.4000000000000017
    vertex 6.818225729066078 5.490811793102472 1.2000000000000006
  endloop
endfacet
facet normal 1.0 0.0 0.0
  outer loop
    vertex 6.818225729066078 5.490811793102472 2.4000000000000017
    vertex 6.818225729066078 9.260797048105962 1.2000000000000002
    vertex 6.818225729066078 9.260797048105962 2.4000000000000017
  endloop
endfacet
facet normal -0.5000000000000001 -0.8660254037844386 4.528161702728929e-17
  outer loop
    vertex 45.3564138667242 45.20354121918204 2.400000000000005
    vertex 17.840272789262634 61.08999267731417 1.2000000000000006
    vertex 45.3564138667242 45.20354121918204 1.2000000000000002
  endloop
endfacet
facet normal -0.5000000000000001 -0.8660254037844386 4.528161702728929e-17
  outer loop
    vertex 17.840272789262634 61.08999267731417 1.2000000000000006
    vertex 45.3564138667242 45.20354121918204 2.400000000000005
    vertex 17.840272789262634 61.08999267731417 2.4000000000000017
  endloop
endfacet
facet normal -0.6427876096865396 -0.7660444431189779 1.7693920760043343e-15
  outer loop
    vertex 54.22856528202476 56.205613495721295 2.4000000000000017
    vertex 29.889109561261773 76.62884181406925 1.2000000000000006
    vertex 54.22856528202476 56.205613495721295 1.2000000000000002
  endloop
endfacet
facet normal -0.6427876096865396 -0.7660444431189779 1.7693920760043343e-15
  outer loop
    vertex 29.889109561261773 76.62884181406925 1.2000000000000006
    vertex 54.22856528202476 56.205613495721295 2.4000000000000017
    vertex 29.889109561261773 76.62884181406925 2.4000000000000017
  endloop
endfacet
facet normal -9.971268735765057e-16 -1.1189766165143926e-15 1.0
  outer loop
    vertex 68.12189313942403 44.54772721475252 2.4000000000000017
    vertex 57.377921614933356 55.29169873924317 2.4000000000000017
    vertex 56.526698611381704 54.27725066666166 2.4000000000000017
  endloop
endfacet
facet normal -9.971268735765057e-16 -1.1189766165143926e-15 1.0
  outer loop
    vertex 57.377921614933356 55.29169873924317 2.4000000000000017
    vertex 68.12189313942403 44.54772721475252 2.4000000000000017
    vertex 58.392369687514886 56.14292174279486 2.400000000000005
  endloop
endfacet
facet normal -6.813433044837285e-17 4.770817179083636e-17 1.0
  outer loop
    vertex 45.3564138667242 45.20354121918204 2.400000000000005
    vertex 20.023524145091493 64.87149495130335 2.4000000000000017
    vertex 17.840272789262634 61.08999267731417 2.4000000000000017
  endloop
endfacet
facet normal -6.813433044837285e-17 4.770817179083636e-17 1.0
  outer loop
    vertex 20.023524145091493 64.87149495130335 2.4000000000000017
    vertex 45.3564138667242 45.20354121918204 2.400000000000005
    vertex 22.83025798580771 68.21643008943266 2.4000000000000017
  endloop
endfacet
facet normal -6.813433044837285e-17 4.770817179083636e-17 1.0
  outer loop
    vertex 22.83025798580771 68.21643008943266 2.4000000000000017
    vertex 45.3564138667242 45.20354121918204 2.400000000000005
    vertex 46.149780816311704 46.57769308491347 2.4000000000000017
  endloop
endfacet
facet normal -6.813433044837285e-17 4.770817179083636e-17 1.0
  outer loop
    vertex 22.83025798580771 68.21643008943266 2.4000000000000017
    vertex 46.149780816311704 46.57769308491347 2.4000000000000017
    vertex 47.16971370657072 47.7932017710847 2.400000000000005
  endloop
endfacet
facet normal 0.9848077530122078 -0.17364817766693233 -3.2604289337706994e-16
  outer loop
    vertex 9.379815721997344 23.78829580433173 1.2000000000000006
    vertex 10.03446679135991 27.501006512200956 2.4000000000000017
    vertex 9.379815721997344 23.788295804331717 2.400000000000004
  endloop
endfacet
facet normal 0.9848077530122078 -0.17364817766693233 -3.2604289337706994e-16
  outer loop
    vertex 10.03446679135991 27.501006512200956 2.4000000000000017
    vertex 9.379815721997344 23.78829580433173 1.2000000000000006
    vertex 10.03446679135991 27.501006512200945 1.2000000000000002
  endloop
endfacet
facet normal -2.2428699949755503e-17 -1.0 0.0
  outer loop
    vertex 6.818225729066078 5.490811793102472 2.4000000000000017
    vertex 0.0 5.490811793102472 1.2000000000000006
    vertex 6.818225729066078 5.490811793102472 1.2000000000000006
  endloop
endfacet
facet normal -2.2428699949755503e-17 -1.0 0.0
  outer loop
    vertex 0.0 5.490811793102472 1.2000000000000006
    vertex 6.818225729066078 5.490811793102472 2.4000000000000017
    vertex 0.0 5.490811793102472 2.4000000000000017
  endloop
endfacet
facet normal -2.085108417188032e-18 6.68121260640188e-18 1.0
  outer loop
    vertex 7.472876798428678 12.973507755975362 1.2000000000000006
    vertex 1.7117047004414139 19.56487425292763 1.2000000000000006
    vertex 0.7582352386570753 14.157480228749462 1.2000000000000006
  endloop
endfacet
facet normal -2.085108417188032e-18 6.68121260640188e-18 1.0
  outer loop
    vertex 1.7117047004414139 19.56487425292763 1.2000000000000006
    vertex 7.472876798428678 12.973507755975362 1.2000000000000006
    vertex 2.6651741622257523 24.97226827710582 1.2000000000000006
  endloop
endfacet
facet normal -2.085108417188032e-18 6.68121260640188e-18 1.0
  outer loop
    vertex 2.6651741622257523 24.97226827710582 1.2000000000000006
    vertex 7.472876798428678 12.973507755975362 1.2000000000000006
    vertex 9.379815721997344 23.78829580433173 1.2000000000000006
  endloop
endfacet
facet normal -2.085108417188032e-18 6.68121260640188e-18 1.0
  outer loop
    vertex 49.90935437439647 1.119401933949356e-15 1.2000000000000006
    vertex 0.0 5.490811793102472 1.2000000000000006
    vertex 0.0 0.0 1.2000000000000006
  endloop
endfacet
facet normal -2.085108417188032e-18 6.68121260640188e-18 1.0
  outer loop
    vertex 0.0 5.490811793102472 1.2000000000000006
    vertex 49.90935437439647 1.119401933949356e-15 1.2000000000000006
    vertex 6.818225729066078 5.490811793102472 1.2000000000000006
  endloop
endfacet
facet normal -2.085108417188032e-18 6.68121260640188e-18 1.0
  outer loop
    vertex 6.818225729066078 5.490811793102472 1.2000000000000006
    vertex 49.90935437439647 1.119401933949356e-15 1.2000000000000006
    vertex 9.818225729066071 5.490811793102472 1.2000000000000006
  endloop
endfacet
facet normal -2.085108417188032e-18 6.68121260640188e-18 1.0
  outer loop
    vertex 6.818225729066078 5.490811793102472 1.2000000000000006
    vertex 9.818225729066071 5.490811793102472 1.2000000000000006
    vertex 6.818225729066078 9.260797048105962 1.2000000000000002
  endloop
endfacet
facet normal -2.085108417188032e-18 6.68121260640188e-18 1.0
  outer loop
    vertex 6.818225729066078 9.260797048105962 1.2000000000000002
    vertex 9.818225729066071 5.490811793102472 1.2000000000000006
    vertex 7.472876798428678 12.973507755975362 1.2000000000000006
  endloop
endfacet
facet normal -2.085108417188032e-18 6.68121260640188e-18 1.0
  outer loop
    vertex 7.472876798428678 12.973507755975362 1.2000000000000006
    vertex 9.818225729066071 5.490811793102472 1.2000000000000006
    vertex 9.379815721997344 23.78829580433173 1.2000000000000006
  endloop
endfacet
facet normal -2.085108417188032e-18 6.68121260640188e-18 1.0
  outer loop
    vertex 9.818225729066071 5.490811793102472 1.2000000000000006
    vertex 49.90935437439647 1.119401933949356e-15 1.2000000000000006
    vertex 49.909354374396486 5.490811793102472 1.2000000000000006
  endloop
endfacet
facet normal -2.085108417188032e-18 6.68121260640188e-18 1.0
  outer loop
    vertex 9.379815721997344 23.78829580433173 1.2000000000000006
    vertex 9.818225729066071 8.99833105752815 1.2000000000000002
    vertex 10.03446679135991 27.501006512200945 1.2000000000000002
  endloop
endfacet
facet normal -2.085108417188032e-18 6.68121260640188e-18 1.0
  outer loop
    vertex 9.818225729066071 8.99833105752815 1.2000000000000002
    vertex 9.379815721997344 23.78829580433173 1.2000000000000006
    vertex 9.818225729066071 5.490811793102472 1.2000000000000006
  endloop
endfacet
facet normal -2.085108417188032e-18 6.68121260640188e-18 1.0
  outer loop
    vertex 10.03446679135991 27.501006512200945 1.2000000000000002
    vertex 9.818225729066071 8.99833105752815 1.2000000000000002
    vertex 10.427300057465306 12.452563222974568 1.2000000000000006
  endloop
endfacet
facet normal -2.085108417188032e-18 6.68121260640188e-18 1.0
  outer loop
    vertex 10.03446679135991 27.501006512200945 1.2000000000000002
    vertex 10.427300057465306 12.452563222974568 1.2000000000000006
    vertex 11.323877688611924 31.043633836799547 1.2000000000000002
  endloop
endfacet
facet normal -2.085108417188032e-18 6.68121260640188e-18 1.0
  outer loop
    vertex 11.323877688611924 31.043633836799547 1.2000000000000002
    vertex 10.427300057465306 12.452563222974568 1.2000000000000006
    vertex 12.334238981033948 23.26735127133092 1.2000000000000006
  endloop
endfacet
facet normal -2.085108417188032e-18 6.68121260640188e-18 1.0
  outer loop
    vertex 12.334238981033948 23.26735127133092 1.2000000000000006
    vertex 10.427300057465306 12.452563222974568 1.2000000000000006
    vertex 49.909354374396486 5.490811793102472 1.2000000000000006
  endloop
endfacet
facet normal -2.085108417188032e-18 6.68121260640188e-18 1.0
  outer loop
    vertex 12.334238981033948 23.26735127133092 1.2000000000000006
    vertex 49.909354374396486 5.490811793102472 1.2000000000000006
    vertex 50.86282383618081 10.898205817280655 1.2000000000000006
  endloop
endfacet
facet normal -2.085108417188032e-18 6.68121260640188e-18 1.0
  outer loop
    vertex 12.334238981033948 23.26735127133092 1.2000000000000006
    vertex 50.86282383618081 10.898205817280655 1.2000000000000006
    vertex 51.816293297965146 16.30559984145882 1.2000000000000006
  endloop
endfacet
facet normal -2.085108417188032e-18 6.68121260640188e-18 1.0
  outer loop
    vertex 11.323877688611924 31.043633836799547 1.2000000000000002
    vertex 6.7948095206070835 38.53527970198413 1.2000000000000006
    vertex 4.916841284155886 33.37560437788151 1.2000000000000006
  endloop
endfacet
facet normal -2.085108417188032e-18 6.68121260640188e-18 1.0
  outer loop
    vertex 6.7948095206070835 38.53527970198413 1.2000000000000006
    vertex 11.323877688611924 31.043633836799547 1.2000000000000002
    vertex 8.672777757058258 43.694955026086774 1.2000000000000006
  endloop
endfacet
facet normal -2.085108417188032e-18 6.68121260640188e-18 1.0
  outer loop
    vertex 8.672777757058258 43.694955026086774 1.2000000000000006
    vertex 11.323877688611924 31.043633836799547 1.2000000000000002
    vertex 15.079814161514252 41.362984485004844 1.2000000000000002
  endloop
endfacet
facet normal -2.085108417188032e-18 6.68121260640188e-18 1.0
  outer loop
    vertex 15.079814161514252 41.362984485004844 1.2000000000000002
    vertex 11.323877688611924 31.043633836799547 1.2000000000000002
    vertex 12.334238981033948 23.26735127133092 1.2000000000000006
  endloop
endfacet
facet normal -2.085108417188032e-18 6.68121260640188e-18 1.0
  outer loop
    vertex 15.079814161514252 41.362984485004844 1.2000000000000002
    vertex 12.334238981033948 23.26735127133092 1.2000000000000006
    vertex 12.943313309433137 26.72158343677712 1.2000000000000002
  endloop
endfacet
facet normal -2.085108417188032e-18 6.68121260640188e-18 1.0
  outer loop
    vertex 15.079814161514252 41.362984485004844 1.2000000000000002
    vertex 12.943313309433137 26.72158343677712 1.2000000000000002
    vertex 14.142955550969624 30.01757340682255 1.2000000000000002
  endloop
endfacet
facet normal -2.085108417188032e-18 6.68121260640188e-18 1.0
  outer loop
    vertex 15.079814161514252 41.362984485004844 1.2000000000000002
    vertex 14.142955550969624 30.01757340682255 1.2000000000000002
    vertex 51.816293297965146 16.30559984145882 1.2000000000000006
  endloop
endfacet
facet normal -2.085108417188032e-18 6.68121260640188e-18 1.0
  outer loop
    vertex 15.079814161514252 41.362984485004844 1.2000000000000002
    vertex 51.816293297965146 16.30559984145882 1.2000000000000006
    vertex 17.898892023871987 40.336924055027815 1.2000000000000006
  endloop
endfacet
facet normal -2.085108417188032e-18 6.68121260640188e-18 1.0
  outer loop
    vertex 15.079814161514252 41.362984485004844 1.2000000000000002
    vertex 17.898892023871987 40.336924055027815 1.2000000000000006
    vertex 16.369225058766197 44.90561180960325 1.2000000000000002
  endloop
endfacet
facet normal -2.085108417188032e-18 6.68121260640188e-18 1.0
  outer loop
    vertex 17.898892023871987 40.336924055027815 1.2000000000000006
    vertex 51.816293297965146 16.30559984145882 1.2000000000000006
    vertex 55.57222977086752 26.624950489664087 1.2000000000000006
  endloop
endfacet
facet normal -2.085108417188032e-18 6.68121260640188e-18 1.0
  outer loop
    vertex 55.57222977086752 26.624950489664087 1.2000000000000006
    vertex 51.816293297965146 16.30559984145882 1.2000000000000006
    vertex 53.694261534416334 21.465275165561447 1.2000000000000006
  endloop
endfacet
facet normal -2.085108417188032e-18 6.68121260640188e-18 1.0
  outer loop
    vertex 19.09853426540845 43.63291402507316 1.2000000000000002
    vertex 16.369225058766197 44.90561180960325 1.2000000000000002
    vertex 17.898892023871987 40.336924055027815 1.2000000000000006
  endloop
endfacet
facet normal 1.0644836729261431e-18 -2.2545193694100147e-18 1.0
  outer loop
    vertex 41.8015443306765 33.04632656846854 1.2000000000000002
    vertex 39.86560207362176 35.69317621873015 1.2000000000000006
    vertex 39.07223512403434 34.31902435299885 1.2000000000000002
  endloop
endfacet
facet normal 1.0644836729261431e-18 -2.2545193694100147e-18 1.0
  outer loop
    vertex 39.86560207362176 35.69317621873015 1.2000000000000006
    vertex 15.094866892711432 56.33481017708827 1.2000000000000006
    vertex 12.349460996160163 51.57962767686236 1.2000000000000006
  endloop
endfacet
facet normal 1.0644836729261431e-18 -2.2545193694100147e-18 1.0
  outer loop
    vertex 15.094866892711432 56.33481017708827 1.2000000000000006
    vertex 39.86560207362176 35.69317621873015 1.2000000000000006
    vertex 17.840272789262634 61.08999267731417 1.2000000000000006
  endloop
endfacet
facet normal 1.0644836729261431e-18 -2.2545193694100147e-18 1.0
  outer loop
    vertex 17.840272789262634 61.08999267731417 1.2000000000000006
    vertex 39.86560207362176 35.69317621873015 1.2000000000000006
    vertex 45.3564138667242 45.20354121918204 1.2000000000000002
  endloop
endfacet
facet normal 1.0644836729261431e-18 -2.2545193694100147e-18 1.0
  outer loop
    vertex 45.3564138667242 45.20354121918204 1.2000000000000002
    vertex 39.86560207362176 35.69317621873015 1.2000000000000006
    vertex 41.8015443306765 33.04632656846854 1.2000000000000002
  endloop
endfacet
facet normal 1.0644836729261431e-18 -2.2545193694100147e-18 1.0
  outer loop
    vertex 45.3564138667242 45.20354121918204 1.2000000000000002
    vertex 41.8015443306765 33.04632656846854 1.2000000000000002
    vertex 42.46367828497508 34.19317621873019 1.2000000000000006
  endloop
endfacet
facet normal 1.0644836729261431e-18 -2.2545193694100147e-18 1.0
  outer loop
    vertex 45.3564138667242 45.20354121918204 1.2000000000000002
    vertex 42.46367828497508 34.19317621873019 1.2000000000000006
    vertex 55.57222977086752 26.624950489664087 1.2000000000000006
  endloop
endfacet
facet normal 1.0644836729261431e-18 -2.2545193694100147e-18 1.0
  outer loop
    vertex 45.3564138667242 45.20354121918204 1.2000000000000002
    vertex 55.57222977086752 26.624950489664087 1.2000000000000006
    vertex 46.14978081631168 46.57769308491347 1.2000000000000002
  endloop
endfacet
facet normal 1.0644836729261431e-18 -2.2545193694100147e-18 1.0
  outer loop
    vertex 46.14978081631168 46.57769308491347 1.2000000000000002
    vertex 55.57222977086752 26.624950489664087 1.2000000000000006
    vertex 47.95449007807753 43.703541219182036 1.2000000000000006
  endloop
endfacet
facet normal 1.0644836729261431e-18 -2.2545193694100147e-18 1.0
  outer loop
    vertex 46.14978081631168 46.57769308491347 1.2000000000000002
    vertex 47.95449007807753 43.703541219182036 1.2000000000000006
    vertex 47.16971370657072 47.7932017710847 1.2000000000000002
  endloop
endfacet
facet normal 1.0644836729261431e-18 -2.2545193694100147e-18 1.0
  outer loop
    vertex 47.95449007807753 43.703541219182036 1.2000000000000006
    vertex 55.57222977086752 26.624950489664087 1.2000000000000006
    vertex 58.31763566741875 31.38013298989001 1.2000000000000006
  endloop
endfacet
facet normal 1.0644836729261431e-18 -2.2545193694100147e-18 1.0
  outer loop
    vertex 47.95449007807753 43.703541219182036 1.2000000000000006
    vertex 58.31763566741875 31.38013298989001 1.2000000000000006
    vertex 61.063041563969996 36.13531549011593 1.2000000000000006
  endloop
endfacet
facet normal 1.0644836729261431e-18 -2.2545193694100147e-18 1.0
  outer loop
    vertex 47.16971370657072 47.7932017710847 1.2000000000000002
    vertex 26.359683773534716 72.42263595175096 1.2000000000000006
    vertex 22.83025798580771 68.21643008943266 1.2000000000000006
  endloop
endfacet
facet normal 1.0644836729261431e-18 -2.2545193694100147e-18 1.0
  outer loop
    vertex 26.359683773534716 72.42263595175096 1.2000000000000006
    vertex 47.16971370657072 47.7932017710847 1.2000000000000002
    vertex 29.889109561261773 76.62884181406925 1.2000000000000006
  endloop
endfacet
facet normal 1.0644836729261431e-18 -2.2545193694100147e-18 1.0
  outer loop
    vertex 29.889109561261773 76.62884181406925 1.2000000000000006
    vertex 47.16971370657072 47.7932017710847 1.2000000000000002
    vertex 54.22856528202476 56.205613495721295 1.2000000000000002
  endloop
endfacet
facet normal 1.0644836729261431e-18 -2.2545193694100147e-18 1.0
  outer loop
    vertex 54.22856528202476 56.205613495721295 1.2000000000000002
    vertex 47.16971370657072 47.7932017710847 1.2000000000000002
    vertex 47.95449007807753 43.703541219182036 1.2000000000000006
  endloop
endfacet
facet normal 1.0644836729261431e-18 -2.2545193694100147e-18 1.0
  outer loop
    vertex 54.22856528202476 56.205613495721295 1.2000000000000002
    vertex 47.95449007807753 43.703541219182036 1.2000000000000006
    vertex 48.6166240323761 44.85039086944365 1.2000000000000002
  endloop
endfacet
facet normal 1.0644836729261431e-18 -2.2545193694100147e-18 1.0
  outer loop
    vertex 54.22856528202476 56.205613495721295 1.2000000000000002
    vertex 48.6166240323761 44.85039086944365 1.2000000000000002
    vertex 49.46784703592765 45.864838942025074 1.2000000000000002
  endloop
endfacet
facet normal 1.0644836729261431e-18 -2.2545193694100147e-18 1.0
  outer loop
    vertex 54.22856528202476 56.205613495721295 1.2000000000000002
    vertex 49.46784703592765 45.864838942025074 1.2000000000000002
    vertex 61.063041563969996 36.13531549011593 1.2000000000000006
  endloop
endfacet
facet normal 1.0644836729261431e-18 -2.2545193694100147e-18 1.0
  outer loop
    vertex 54.22856528202476 56.205613495721295 1.2000000000000002
    vertex 61.063041563969996 36.13531549011593 1.2000000000000006
    vertex 55.24849817228389 57.421122181892564 1.2000000000000002
  endloop
endfacet
facet normal 1.0644836729261431e-18 -2.2545193694100147e-18 1.0
  outer loop
    vertex 55.24849817228389 57.421122181892564 1.2000000000000002
    vertex 61.063041563969996 36.13531549011593 1.2000000000000006
    vertex 56.5266986113817 54.27725066666166 1.2000000000000002
  endloop
endfacet
facet normal 1.0644836729261431e-18 -2.2545193694100147e-18 1.0
  outer loop
    vertex 55.24849817228389 57.421122181892564 1.2000000000000002
    vertex 56.5266986113817 54.27725066666166 1.2000000000000002
    vertex 56.46400685845528 58.44105507215175 1.2000000000000006
  endloop
endfacet
facet normal 1.0644836729261431e-18 -2.2545193694100147e-18 1.0
  outer loop
    vertex 56.5266986113817 54.27725066666166 1.2000000000000002
    vertex 61.063041563969996 36.13531549011593 1.2000000000000006
    vertex 64.59246735169698 40.34152135243423 1.2000000000000006
  endloop
endfacet
facet normal 1.0644836729261431e-18 -2.2545193694100147e-18 1.0
  outer loop
    vertex 56.5266986113817 54.27725066666166 1.2000000000000002
    vertex 64.59246735169698 40.34152135243423 1.2000000000000006
    vertex 68.12189313942403 44.54772721475252 1.2000000000000006
  endloop
endfacet
facet normal 1.0644836729261431e-18 -2.2545193694100147e-18 1.0
  outer loop
    vertex 56.46400685845528 58.44105507215175 1.2000000000000006
    vertex 40.2469844024256 86.30993658064178 1.2000000000000006
    vertex 36.040778540107304 82.7805107929148 1.2000000000000006
  endloop
endfacet
facet normal 1.0644836729261431e-18 -2.2545193694100147e-18 1.0
  outer loop
    vertex 40.2469844024256 86.30993658064178 1.2000000000000006
    vertex 56.46400685845528 58.44105507215175 1.2000000000000006
    vertex 72.32809900174232 48.07715300247952 1.2000000000000006
  endloop
endfacet
facet normal 1.0644836729261431e-18 -2.2545193694100147e-18 1.0
  outer loop
    vertex 72.32809900174232 48.07715300247952 1.2000000000000006
    vertex 56.46400685845528 58.44105507215175 1.2000000000000006
    vertex 58.3923696875149 56.14292174279485 1.2000000000000006
  endloop
endfacet
facet normal 1.0644836729261431e-18 -2.2545193694100147e-18 1.0
  outer loop
    vertex 58.3923696875149 56.14292174279485 1.2000000000000006
    vertex 56.46400685845528 58.44105507215175 1.2000000000000006
    vertex 57.377921614933356 55.29169873924317 1.2000000000000002
  endloop
endfacet
facet normal 1.0644836729261431e-18 -2.2545193694100147e-18 1.0
  outer loop
    vertex 57.377921614933356 55.29169873924317 1.2000000000000002
    vertex 56.46400685845528 58.44105507215175 1.2000000000000006
    vertex 56.5266986113817 54.27725066666166 1.2000000000000002
  endloop
endfacet
facet normal 1.0644836729261431e-18 -2.2545193694100147e-18 1.0
  outer loop
    vertex 72.32809900174232 48.07715300247952 1.2000000000000006
    vertex 58.3923696875149 56.14292174279485 1.2000000000000006
    vertex 68.12189313942403 44.54772721475252 1.2000000000000006
  endloop
endfacet
facet normal 0.7660444431189725 -0.642787609686546 -1.4288952917951635e-15
  outer loop
    vertex 55.24849817228389 57.421122181892564 1.2000000000000002
    vertex 54.22856528202476 56.205613495721295 2.4000000000000017
    vertex 54.22856528202476 56.205613495721295 1.2000000000000002
  endloop
endfacet
facet normal 0.7660444431189725 -0.642787609686546 -1.4288952917951635e-15
  outer loop
    vertex 54.22856528202476 56.205613495721295 2.4000000000000017
    vertex 55.24849817228389 57.421122181892564 1.2000000000000002
    vertex 55.24849817228389 57.421122181892564 2.4000000000000017
  endloop
endfacet
facet normal 0.42261826174073236 0.9063077870366346 -6.043140452368127e-15
  outer loop
    vertex 39.072235124034336 34.31902435299886 2.4000000000000012
    vertex 41.8015443306765 33.04632656846854 1.2000000000000002
    vertex 39.07223512403434 34.31902435299885 1.2000000000000002
  endloop
endfacet
facet normal 0.42261826174073236 0.9063077870366346 -6.043140452368127e-15
  outer loop
    vertex 41.8015443306765 33.04632656846854 1.2000000000000002
    vertex 39.072235124034336 34.31902435299886 2.4000000000000012
    vertex 41.8015443306765 33.04632656846855 2.4000000000000017
  endloop
endfacet
facet normal -0.6427876096865456 0.766044443118973 -2.402874964973266e-15
  outer loop
    vertex 57.377921614933356 55.29169873924317 2.4000000000000017
    vertex 58.3923696875149 56.14292174279485 1.2000000000000006
    vertex 57.377921614933356 55.29169873924317 1.2000000000000002
  endloop
endfacet
facet normal -0.6427876096865456 0.766044443118973 -2.402874964973266e-15
  outer loop
    vertex 58.3923696875149 56.14292174279485 1.2000000000000006
    vertex 57.377921614933356 55.29169873924317 2.4000000000000017
    vertex 58.392369687514886 56.14292174279486 2.400000000000005
  endloop
endfacet
facet normal 0.8660254037844347 -0.5000000000000069 4.188412938411869e-15
  outer loop
    vertex 39.86560207362176 35.69317621873015 1.2000000000000006
    vertex 39.072235124034336 34.31902435299886 2.4000000000000012
    vertex 39.07223512403434 34.31902435299885 1.2000000000000002
  endloop
endfacet
facet normal 0.8660254037844347 -0.5000000000000069 4.188412938411869e-15
  outer loop
    vertex 39.072235124034336 34.31902435299886 2.4000000000000012
    vertex 39.86560207362176 35.69317621873015 1.2000000000000006
    vertex 39.86560207362176 35.69317621873015 2.4000000000000017
  endloop
endfacet
facet normal 0.7660444431189805 -0.6427876096865365 -2.8941731047362713e-15
  outer loop
    vertex 47.16971370657072 47.7932017710847 1.2000000000000002
    vertex 46.149780816311704 46.57769308491347 2.4000000000000017
    vertex 46.14978081631168 46.57769308491347 1.2000000000000002
  endloop
endfacet
facet normal 0.7660444431189805 -0.6427876096865365 -2.8941731047362713e-15
  outer loop
    vertex 46.149780816311704 46.57769308491347 2.4000000000000017
    vertex 47.16971370657072 47.7932017710847 1.2000000000000002
    vertex 47.16971370657072 47.7932017710847 2.400000000000005
  endloop
endfacet
facet normal 0.6427876096865427 -0.7660444431189752 6.263155637716789e-16
  outer loop
    vertex 56.46400685845528 58.44105507215175 1.2000000000000006
    vertex 55.24849817228389 57.421122181892564 2.4000000000000017
    vertex 55.24849817228389 57.421122181892564 1.2000000000000002
  endloop
endfacet
facet normal 0.6427876096865427 -0.7660444431189752 6.263155637716789e-16
  outer loop
    vertex 55.24849817228389 57.421122181892564 2.4000000000000017
    vertex 56.46400685845528 58.44105507215175 1.2000000000000006
    vertex 56.46400685845528 58.44105507215175 2.4000000000000017
  endloop
endfacet
facet normal -0.7660444431189731 0.642787609686545 8.431961384107547e-15
  outer loop
    vertex 57.377921614933356 55.29169873924317 2.4000000000000017
    vertex 56.5266986113817 54.27725066666166 1.2000000000000002
    vertex 56.526698611381704 54.27725066666166 2.4000000000000017
  endloop
endfacet
facet normal -0.7660444431189731 0.642787609686545 8.431961384107547e-15
  outer loop
    vertex 56.5266986113817 54.27725066666166 1.2000000000000002
    vertex 57.377921614933356 55.29169873924317 2.4000000000000017
    vertex 57.377921614933356 55.29169873924317 1.2000000000000002
  endloop
endfacet
facet normal -0.8660254037844409 0.4999999999999962 -4.881419630078591e-15
  outer loop
    vertex 41.8015443306765 33.04632656846855 2.4000000000000017
    vertex 42.46367828497508 34.19317621873019 1.2000000000000006
    vertex 41.8015443306765 33.04632656846854 1.2000000000000002
  endloop
endfacet
facet normal -0.8660254037844409 0.4999999999999962 -4.881419630078591e-15
  outer loop
    vertex 42.46367828497508 34.19317621873019 1.2000000000000006
    vertex 41.8015443306765 33.04632656846855 2.4000000000000017
    vertex 42.46367828497506 34.193176218730166 2.4000000000000017
  endloop
endfacet
facet normal 0.8660254037844378 -0.5000000000000018 -3.279123965872932e-15
  outer loop
    vertex 46.14978081631168 46.57769308491347 1.2000000000000002
    vertex 45.3564138667242 45.20354121918204 2.400000000000005
    vertex 45.3564138667242 45.20354121918204 1.2000000000000002
  endloop
endfacet
facet normal 0.8660254037844378 -0.5000000000000018 -3.279123965872932e-15
  outer loop
    vertex 45.3564138667242 45.20354121918204 2.400000000000005
    vertex 46.14978081631168 46.57769308491347 1.2000000000000002
    vertex 46.149780816311704 46.57769308491347 2.4000000000000017
  endloop
endfacet
facet normal -0.8660254037844376 0.5000000000000018 1.1160151688651058e-18
  outer loop
    vertex 48.6166240323761 44.85039086944365 2.4000000000000017
    vertex 47.95449007807753 43.703541219182036 1.2000000000000006
    vertex 47.95449007807753 43.703541219182036 2.4000000000000017
  endloop
endfacet
facet normal -0.8660254037844376 0.5000000000000018 1.1160151688651058e-18
  outer loop
    vertex 47.95449007807753 43.703541219182036 1.2000000000000006
    vertex 48.6166240323761 44.85039086944365 2.4000000000000017
    vertex 48.6166240323761 44.85039086944365 1.2000000000000002
  endloop
endfacet
facet normal -0.7660444431189797 0.6427876096865376 5.299559621665101e-15
  outer loop
    vertex 49.46784703592767 45.86483894202506 2.4000000000000017
    vertex 48.6166240323761 44.85039086944365 1.2000000000000002
    vertex 48.6166240323761 44.85039086944365 2.4000000000000017
  endloop
endfacet
facet normal -0.7660444431189797 0.6427876096865376 5.299559621665101e-15
  outer loop
    vertex 48.6166240323761 44.85039086944365 1.2000000000000002
    vertex 49.46784703592767 45.86483894202506 2.4000000000000017
    vertex 49.46784703592765 45.864838942025074 1.2000000000000002
  endloop
endfacet
endsolid Untitled-592d563b
