solid Untitled-592d55fa
facet normal -0.8754645270000254 0.48328238325498873 3.959206272206551e-34
  outer loop
    vertex 41.85939455239761 52.28859166572826 1.200000000000003
    vertex 32.9082344158987 36.07359305100152 -1.7624790515924354e-16
    vertex 32.9082344158987 36.07359305100152 1.200000000000003
  endloop
endfacet
facet normal -0.8754645270000254 0.48328238325498873 3.959206272206551e-34
  outer loop
    vertex 32.9082344158987 36.07359305100152 -1.7624790515924354e-16
    vertex 41.85939455239761 52.28859166572826 1.200000000000003
    vertex 41.85939455239761 52.28859166572826 -1.7624790515924352e-16
  endloop
endfacet
facet normal -0.9460853588275512 0.32391741819813263 1.5171983696782418e-34
  outer loop
    vertex 32.9082344158987 36.07359305100152 1.200000000000003
    vertex 26.90876747533986 18.550584054428075 -1.7624790515924357e-16
    vertex 26.90876747533986 18.550584054428075 1.200000000000003
  endloop
endfacet
facet normal -0.9460853588275512 0.32391741819813263 1.5171983696782418e-34
  outer loop
    vertex 26.90876747533986 18.550584054428075 -1.7624790515924357e-16
    vertex 32.9082344158987 36.07359305100152 1.200000000000003
    vertex 32.9082344158987 36.07359305100152 -1.7624790515924354e-16
  endloop
endfacet
facet normal 0.9879598657693918 -0.154710386299452 9.709088375732704e-35
  outer loop
    vertex 29.832040857855226 17.827147030709693 -1.7624790515924357e-16
    vertex 27.0477703099342 0.047167143221309236 1.200000000000003
    vertex 27.0477703099342 0.047167143221309236 -1.762479051592436e-16
  endloop
endfacet
facet normal 0.9879598657693918 -0.154710386299452 9.709088375732704e-35
  outer loop
    vertex 27.0477703099342 0.047167143221309236 1.200000000000003
    vertex 29.832040857855226 17.827147030709693 -1.7624790515924357e-16
    vertex 29.832040857855226 17.827147030709693 1.200000000000003
  endloop
endfacet
facet normal 0.9460853588275504 -0.3239174181981344 -1.5171983696782687e-34
  outer loop
    vertex 35.66147318634858 34.853525565531264 -1.7624790515924354e-16
    vertex 29.832040857855226 17.827147030709693 1.200000000000003
    vertex 29.832040857855226 17.827147030709693 -1.7624790515924357e-16
  endloop
endfacet
facet normal 0.9460853588275504 -0.3239174181981344 -1.5171983696782687e-34
  outer loop
    vertex 29.832040857855226 17.827147030709693 1.200000000000003
    vertex 35.66147318634858 34.853525565531264 -1.7624790515924354e-16
    vertex 35.66147318634858 34.853525565531264 1.200000000000003
  endloop
endfacet
facet normal -0.0680152906652484 -0.9976842788356053 -1.4104673748486381e-33
  outer loop
    vertex 27.0477703099342 0.047167143221309236 1.200000000000003
    vertex 24.043284497833273 0.2519924372994684 -1.762479051592436e-16
    vertex 27.0477703099342 0.047167143221309236 -1.762479051592436e-16
  endloop
endfacet
facet normal -0.0680152906652484 -0.9976842788356053 -1.4104673748486381e-33
  outer loop
    vertex 24.043284497833273 0.2519924372994684 -1.762479051592436e-16
    vertex 27.0477703099342 0.047167143221309236 1.200000000000003
    vertex 24.043284497833273 0.2519924372994684 1.200000000000003
  endloop
endfacet
facet normal -0.9879598657693918 0.15471038629945225 -9.709088375732672e-35
  outer loop
    vertex 26.90876747533986 18.550584054428075 1.200000000000003
    vertex 24.043284497833273 0.2519924372994684 -1.762479051592436e-16
    vertex 24.043284497833273 0.2519924372994684 1.200000000000003
  endloop
endfacet
facet normal -0.9879598657693918 0.15471038629945225 -9.709088375732672e-35
  outer loop
    vertex 24.043284497833273 0.2519924372994684 -1.762479051592436e-16
    vertex 26.90876747533986 18.550584054428075 1.200000000000003
    vertex 26.90876747533986 18.550584054428075 -1.7624790515924357e-16
  endloop
endfacet
facet normal 0.8754645270000256 -0.4832823832549883 -3.9592062722065434e-34
  outer loop
    vertex 44.358942943947866 50.6089648516685 -1.7624790515924352e-16
    vertex 35.66147318634858 34.853525565531264 1.200000000000003
    vertex 35.66147318634858 34.853525565531264 -1.7624790515924354e-16
  endloop
endfacet
facet normal 0.8754645270000256 -0.4832823832549883 -3.9592062722065434e-34
  outer loop
    vertex 35.66147318634858 34.853525565531264 1.200000000000003
    vertex 44.358942943947866 50.6089648516685 -1.7624790515924352e-16
    vertex 44.358942943947866 50.6089648516685 1.200000000000003
  endloop
endfacet
facet normal -2.060306221646499e-32 3.948709258341075e-33 1.0
  outer loop
    vertex 27.0477703099342 0.047167143221309236 1.200000000000003
    vertex 26.90876747533986 18.550584054428075 1.200000000000003
    vertex 24.043284497833273 0.2519924372994684 1.200000000000003
  endloop
endfacet
facet normal -2.060306221646499e-32 3.948709258341075e-33 1.0
  outer loop
    vertex 26.90876747533986 18.550584054428075 1.200000000000003
    vertex 27.0477703099342 0.047167143221309236 1.200000000000003
    vertex 29.832040857855226 17.827147030709693 1.200000000000003
  endloop
endfacet
facet normal -2.060306221646499e-32 3.948709258341075e-33 1.0
  outer loop
    vertex 26.90876747533986 18.550584054428075 1.200000000000003
    vertex 29.832040857855226 17.827147030709693 1.200000000000003
    vertex 32.9082344158987 36.07359305100152 1.200000000000003
  endloop
endfacet
facet normal -2.060306221646499e-32 3.948709258341075e-33 1.0
  outer loop
    vertex 32.9082344158987 36.07359305100152 1.200000000000003
    vertex 29.832040857855226 17.827147030709693 1.200000000000003
    vertex 35.66147318634858 34.853525565531264 1.200000000000003
  endloop
endfacet
facet normal -2.060306221646499e-32 3.948709258341075e-33 1.0
  outer loop
    vertex 32.9082344158987 36.07359305100152 1.200000000000003
    vertex 35.66147318634858 34.853525565531264 1.200000000000003
    vertex 41.85939455239761 52.28859166572826 1.200000000000003
  endloop
endfacet
facet normal -2.060306221646499e-32 3.948709258341075e-33 1.0
  outer loop
    vertex 41.85939455239761 52.28859166572826 1.200000000000003
    vertex 35.66147318634858 34.853525565531264 1.200000000000003
    vertex 44.358942943947866 50.6089648516685 1.200000000000003
  endloop
endfacet
facet normal -2.060306221646499e-32 3.948709258341075e-33 1.0
  outer loop
    vertex 41.85939455239761 52.28859166572826 1.200000000000003
    vertex 44.358942943947866 50.6089648516685 1.200000000000003
    vertex 53.49027141359471 66.70289537088563 1.200000000000003
  endloop
endfacet
facet normal -2.060306221646499e-32 3.948709258341075e-33 1.0
  outer loop
    vertex 53.49027141359471 66.70289537088563 1.200000000000003
    vertex 44.358942943947866 50.6089648516685 1.200000000000003
    vertex 55.660181913200624 64.6147438390494 1.200000000000003
  endloop
endfacet
facet normal -0.7782431485260319 0.6279630576493243 1.2246349188071324e-16
  outer loop
    vertex 53.49027141359471 66.70289537088563 1.200000000000003
    vertex 41.85939455239761 52.28859166572826 -1.7624790515924352e-16
    vertex 41.85939455239761 52.28859166572826 1.200000000000003
  endloop
endfacet
facet normal -0.7782431485260319 0.6279630576493243 1.2246349188071324e-16
  outer loop
    vertex 41.85939455239761 52.28859166572826 -1.7624790515924352e-16
    vertex 53.49027141359471 66.70289537088563 1.200000000000003
    vertex 53.49027141359471 66.70289537088563 -1.762479051592435e-16
  endloop
endfacet
facet normal 0.7782431485260319 -0.6279630576493245 -2.088379629620511e-16
  outer loop
    vertex 55.660181913200624 64.6147438390494 -1.762479051592435e-16
    vertex 44.358942943947866 50.6089648516685 1.200000000000003
    vertex 44.358942943947866 50.6089648516685 -1.7624790515924352e-16
  endloop
endfacet
facet normal 0.7782431485260319 -0.6279630576493245 -2.088379629620511e-16
  outer loop
    vertex 44.358942943947866 50.6089648516685 1.200000000000003
    vertex 55.660181913200624 64.6147438390494 -1.762479051592435e-16
    vertex 55.660181913200624 64.6147438390494 1.200000000000003
  endloop
endfacet
facet normal 0.6934018282758099 0.7205511116803334 -3.218484412976681e-17
  outer loop
    vertex 53.49027141359471 66.70289537088563 1.200000000000003
    vertex 55.660181913200624 64.6147438390494 -1.762479051592435e-16
    vertex 53.49027141359471 66.70289537088563 -1.762479051592435e-16
  endloop
endfacet
facet normal 0.6934018282758099 0.7205511116803334 -3.218484412976681e-17
  outer loop
    vertex 55.660181913200624 64.6147438390494 -1.762479051592435e-16
    vertex 53.49027141359471 66.70289537088563 1.200000000000003
    vertex 55.660181913200624 64.6147438390494 1.200000000000003
  endloop
endfacet
facet normal 3.162835551846403e-34 1.392179155645474e-33 -1.0
  outer loop
    vertex 26.90876747533986 18.550584054428075 -1.7624790515924357e-16
    vertex 27.0477703099342 0.047167143221309236 -1.762479051592436e-16
    vertex 24.043284497833273 0.2519924372994684 -1.762479051592436e-16
  endloop
endfacet
facet normal 3.162835551846403e-34 1.392179155645474e-33 -1.0
  outer loop
    vertex 27.0477703099342 0.047167143221309236 -1.762479051592436e-16
    vertex 26.90876747533986 18.550584054428075 -1.7624790515924357e-16
    vertex 29.832040857855226 17.827147030709693 -1.7624790515924357e-16
  endloop
endfacet
facet normal 3.162835551846403e-34 1.392179155645474e-33 -1.0
  outer loop
    vertex 29.832040857855226 17.827147030709693 -1.7624790515924357e-16
    vertex 26.90876747533986 18.550584054428075 -1.7624790515924357e-16
    vertex 32.9082344158987 36.07359305100152 -1.7624790515924354e-16
  endloop
endfacet
facet normal 3.162835551846403e-34 1.392179155645474e-33 -1.0
  outer loop
    vertex 29.832040857855226 17.827147030709693 -1.7624790515924357e-16
    vertex 32.9082344158987 36.07359305100152 -1.7624790515924354e-16
    vertex 35.66147318634858 34.853525565531264 -1.7624790515924354e-16
  endloop
endfacet
facet normal 3.162835551846403e-34 1.392179155645474e-33 -1.0
  outer loop
    vertex 35.66147318634858 34.853525565531264 -1.7624790515924354e-16
    vertex 32.9082344158987 36.07359305100152 -1.7624790515924354e-16
    vertex 41.85939455239761 52.28859166572826 -1.7624790515924352e-16
  endloop
endfacet
facet normal 3.162835551846403e-34 1.392179155645474e-33 -1.0
  outer loop
    vertex 35.66147318634858 34.853525565531264 -1.7624790515924354e-16
    vertex 41.85939455239761 52.28859166572826 -1.7624790515924352e-16
    vertex 44.358942943947866 50.6089648516685 -1.7624790515924352e-16
  endloop
endfacet
facet normal 3.162835551846403e-34 1.392179155645474e-33 -1.0
  outer loop
    vertex 44.358942943947866 50.6089648516685 -1.7624790515924352e-16
    vertex 41.85939455239761 52.28859166572826 -1.7624790515924352e-16
    vertex 53.49027141359471 66.70289537088563 -1.762479051592435e-16
  endloop
endfacet
facet normal 3.162835551846403e-34 1.392179155645474e-33 -1.0
  outer loop
    vertex 44.358942943947866 50.6089648516685 -1.7624790515924352e-16
    vertex 53.49027141359471 66.70289537088563 -1.762479051592435e-16
    vertex 55.660181913200624 64.6147438390494 -1.762479051592435e-16
  endloop
endfacet
facet normal -0.9063077870366536 0.42261826174069184 0.0
  outer loop
    vertex 50.93514676521012 40.602864878157625 1.200000000000001
    vertex 44.95294664948905 27.773995330120407 0.0
    vertex 44.95294664948905 27.773995330120407 1.200000000000001
  endloop
endfacet
facet normal -0.9063077870366536 0.42261826174069184 0.0
  outer loop
    vertex 44.95294664948905 27.773995330120407 0.0
    vertex 50.93514676521012 40.602864878157625 1.200000000000001
    vertex 50.93514676521012 40.602864878157625 0.0
  endloop
endfacet
facet normal -0.9659258262890705 0.25881904510251297 0.0
  outer loop
    vertex 44.95294664948905 27.773995330120407 1.200000000000001
    vertex 41.28933941399983 14.10122698829734 0.0
    vertex 41.28933941399983 14.10122698829734 1.200000000000001
  endloop
endfacet
facet normal -0.9659258262890705 0.25881904510251297 0.0
  outer loop
    vertex 41.28933941399983 14.10122698829734 0.0
    vertex 44.95294664948905 27.773995330120407 1.200000000000001
    vertex 44.95294664948905 27.773995330120407 0.0
  endloop
endfacet
facet normal 0.0 0.0 1.0
  outer loop
    vertex 43.06710142334819 1.9827889330414905e-16 1.200000000000001
    vertex 41.28933941399983 14.10122698829734 1.200000000000001
    vertex 40.05564191071815 1.9827889330414905e-16 1.200000000000001
  endloop
endfacet
facet normal 0.0 0.0 1.0
  outer loop
    vertex 41.28933941399983 14.10122698829734 1.200000000000001
    vertex 43.06710142334819 1.9827889330414905e-16 1.200000000000001
    vertex 44.95294664948905 27.773995330120407 1.200000000000001
  endloop
endfacet
facet normal 0.0 0.0 1.0
  outer loop
    vertex 44.95294664948905 27.773995330120407 1.200000000000001
    vertex 43.06710142334819 1.9827889330414905e-16 1.200000000000001
    vertex 44.25504808992027 13.578292531811377 1.200000000000001
  endloop
endfacet
facet normal 0.0 0.0 1.0
  outer loop
    vertex 44.95294664948905 27.773995330120407 1.200000000000001
    vertex 44.25504808992027 13.578292531811377 1.200000000000001
    vertex 47.78279293130298 26.744015515991233 1.200000000000001
  endloop
endfacet
facet normal 0.0 0.0 1.0
  outer loop
    vertex 44.95294664948905 27.773995330120407 1.200000000000001
    vertex 47.78279293130298 26.744015515991233 1.200000000000001
    vertex 50.93514676521012 40.602864878157625 1.200000000000001
  endloop
endfacet
facet normal 0.0 0.0 1.0
  outer loop
    vertex 50.93514676521012 40.602864878157625 1.200000000000001
    vertex 47.78279293130298 26.744015515991233 1.200000000000001
    vertex 53.543147205616 39.09713512184255 1.200000000000001
  endloop
endfacet
facet normal 0.0 0.0 1.0
  outer loop
    vertex 50.93514676521012 40.602864878157625 1.200000000000001
    vertex 53.543147205616 39.09713512184255 1.200000000000001
    vertex 59.05417363778619 52.19803692291297 1.200000000000001
  endloop
endfacet
facet normal 0.0 0.0 1.0
  outer loop
    vertex 59.05417363778619 52.19803692291297 1.200000000000001
    vertex 53.543147205616 39.09713512184255 1.200000000000001
    vertex 61.36108546311417 50.2623080611217 1.200000000000001
  endloop
endfacet
facet normal 0.0 0.0 1.0
  outer loop
    vertex 59.05417363778619 52.19803692291297 1.200000000000001
    vertex 61.36108546311417 50.2623080611217 1.200000000000001
    vertex 69.06333474411983 62.207198029246804 1.200000000000001
  endloop
endfacet
facet normal 0.0 0.0 1.0
  outer loop
    vertex 69.06333474411983 62.207198029246804 1.200000000000001
    vertex 61.36108546311417 50.2623080611217 1.200000000000001
    vertex 70.99906360591106 59.900286203918775 1.200000000000001
  endloop
endfacet
facet normal -1.1046719095020308e-14 -1.0 0.0
  outer loop
    vertex 43.06710142334819 1.9827889330414905e-16 1.200000000000001
    vertex 40.05564191071815 1.9827889330414905e-16 0.0
    vertex 43.06710142334819 1.9827889330414905e-16 0.0
  endloop
endfacet
facet normal -1.1046719095020308e-14 -1.0 0.0
  outer loop
    vertex 40.05564191071815 1.9827889330414905e-16 0.0
    vertex 43.06710142334819 1.9827889330414905e-16 1.200000000000001
    vertex 40.05564191071815 1.9827889330414905e-16 1.200000000000001
  endloop
endfacet
facet normal 0.9961946980917464 -0.08715574274764837 0.0
  outer loop
    vertex 44.25504808992027 13.578292531811377 0.0
    vertex 43.06710142334819 1.9827889330414905e-16 1.200000000000001
    vertex 43.06710142334819 1.9827889330414905e-16 0.0
  endloop
endfacet
facet normal 0.9961946980917464 -0.08715574274764837 0.0
  outer loop
    vertex 43.06710142334819 1.9827889330414905e-16 1.200000000000001
    vertex 44.25504808992027 13.578292531811377 0.0
    vertex 44.25504808992027 13.578292531811377 1.200000000000001
  endloop
endfacet
facet normal 0.965925826289071 -0.2588190451025109 0.0
  outer loop
    vertex 47.78279293130298 26.744015515991233 0.0
    vertex 44.25504808992027 13.578292531811377 1.200000000000001
    vertex 44.25504808992027 13.578292531811377 0.0
  endloop
endfacet
facet normal 0.965925826289071 -0.2588190451025109 0.0
  outer loop
    vertex 44.25504808992027 13.578292531811377 1.200000000000001
    vertex 47.78279293130298 26.744015515991233 0.0
    vertex 47.78279293130298 26.744015515991233 1.200000000000001
  endloop
endfacet
facet normal 0.7660444431189829 0.6427876096865336 0.0
  outer loop
    vertex 69.06333474411983 62.207198029246804 0.0
    vertex 70.99906360591106 59.900286203918775 1.200000000000001
    vertex 70.99906360591106 59.900286203918775 0.0
  endloop
endfacet
facet normal 0.7660444431189829 0.6427876096865336 0.0
  outer loop
    vertex 70.99906360591106 59.900286203918775 1.200000000000001
    vertex 69.06333474411983 62.207198029246804 0.0
    vertex 69.06333474411983 62.207198029246804 1.200000000000001
  endloop
endfacet
facet normal -0.7071067811865537 0.7071067811865414 0.0
  outer loop
    vertex 69.06333474411983 62.207198029246804 1.200000000000001
    vertex 59.05417363778619 52.19803692291297 0.0
    vertex 59.05417363778619 52.19803692291297 1.200000000000001
  endloop
endfacet
facet normal -0.7071067811865537 0.7071067811865414 0.0
  outer loop
    vertex 59.05417363778619 52.19803692291297 0.0
    vertex 69.06333474411983 62.207198029246804 1.200000000000001
    vertex 69.06333474411983 62.207198029246804 0.0
  endloop
endfacet
facet normal 0.9063077870366534 -0.42261826174069206 0.0
  outer loop
    vertex 53.543147205616 39.09713512184255 0.0
    vertex 47.78279293130298 26.744015515991233 1.200000000000001
    vertex 47.78279293130298 26.744015515991233 0.0
  endloop
endfacet
facet normal 0.9063077870366534 -0.42261826174069206 0.0
  outer loop
    vertex 47.78279293130298 26.744015515991233 1.200000000000001
    vertex 53.543147205616 39.09713512184255 0.0
    vertex 53.543147205616 39.09713512184255 1.200000000000001
  endloop
endfacet
facet normal 0.0 0.0 -1.0
  outer loop
    vertex 41.28933941399983 14.10122698829734 0.0
    vertex 43.06710142334819 1.9827889330414905e-16 0.0
    vertex 40.05564191071815 1.9827889330414905e-16 0.0
  endloop
endfacet
facet normal 0.0 0.0 -1.0
  outer loop
    vertex 43.06710142334819 1.9827889330414905e-16 0.0
    vertex 41.28933941399983 14.10122698829734 0.0
    vertex 44.95294664948905 27.773995330120407 0.0
  endloop
endfacet
facet normal 0.0 0.0 -1.0
  outer loop
    vertex 43.06710142334819 1.9827889330414905e-16 0.0
    vertex 44.95294664948905 27.773995330120407 0.0
    vertex 44.25504808992027 13.578292531811377 0.0
  endloop
endfacet
facet normal 0.0 0.0 -1.0
  outer loop
    vertex 44.25504808992027 13.578292531811377 0.0
    vertex 44.95294664948905 27.773995330120407 0.0
    vertex 47.78279293130298 26.744015515991233 0.0
  endloop
endfacet
facet normal 0.0 0.0 -1.0
  outer loop
    vertex 47.78279293130298 26.744015515991233 0.0
    vertex 44.95294664948905 27.773995330120407 0.0
    vertex 50.93514676521012 40.602864878157625 0.0
  endloop
endfacet
facet normal 0.0 0.0 -1.0
  outer loop
    vertex 47.78279293130298 26.744015515991233 0.0
    vertex 50.93514676521012 40.602864878157625 0.0
    vertex 53.543147205616 39.09713512184255 0.0
  endloop
endfacet
facet normal 0.0 0.0 -1.0
  outer loop
    vertex 53.543147205616 39.09713512184255 0.0
    vertex 50.93514676521012 40.602864878157625 0.0
    vertex 59.05417363778619 52.19803692291297 0.0
  endloop
endfacet
facet normal 0.0 0.0 -1.0
  outer loop
    vertex 53.543147205616 39.09713512184255 0.0
    vertex 59.05417363778619 52.19803692291297 0.0
    vertex 61.36108546311417 50.2623080611217 0.0
  endloop
endfacet
facet normal 0.0 0.0 -1.0
  outer loop
    vertex 61.36108546311417 50.2623080611217 0.0
    vertex 59.05417363778619 52.19803692291297 0.0
    vertex 69.06333474411983 62.207198029246804 0.0
  endloop
endfacet
facet normal 0.0 0.0 -1.0
  outer loop
    vertex 61.36108546311417 50.2623080611217 0.0
    vertex 69.06333474411983 62.207198029246804 0.0
    vertex 70.99906360591106 59.900286203918775 0.0
  endloop
endfacet
facet normal 0.7071067811865541 -0.707106781186541 0.0
  outer loop
    vertex 70.99906360591106 59.900286203918775 0.0
    vertex 61.36108546311417 50.2623080611217 1.200000000000001
    vertex 61.36108546311417 50.2623080611217 0.0
  endloop
endfacet
facet normal 0.7071067811865541 -0.707106781186541 0.0
  outer loop
    vertex 61.36108546311417 50.2623080611217 1.200000000000001
    vertex 70.99906360591106 59.900286203918775 0.0
    vertex 70.99906360591106 59.900286203918775 1.200000000000001
  endloop
endfacet
facet normal -0.9961946980917464 0.08715574274764898 0.0
  outer loop
    vertex 41.28933941399983 14.10122698829734 1.200000000000001
    vertex 40.05564191071815 1.9827889330414905e-16 0.0
    vertex 40.05564191071815 1.9827889330414905e-16 1.200000000000001
  endloop
endfacet
facet normal -0.9961946980917464 0.08715574274764898 0.0
  outer loop
    vertex 40.05564191071815 1.9827889330414905e-16 0.0
    vertex 41.28933941399983 14.10122698829734 1.200000000000001
    vertex 41.28933941399983 14.10122698829734 0.0
  endloop
endfacet
facet normal 0.8191520442889973 -0.573576436351038 0.0
  outer loop
    vertex 61.36108546311417 50.2623080611217 0.0
    vertex 53.543147205616 39.09713512184255 1.200000000000001
    vertex 53.543147205616 39.09713512184255 0.0
  endloop
endfacet
facet normal 0.8191520442889973 -0.573576436351038 0.0
  outer loop
    vertex 53.543147205616 39.09713512184255 1.200000000000001
    vertex 61.36108546311417 50.2623080611217 0.0
    vertex 61.36108546311417 50.2623080611217 1.200000000000001
  endloop
endfacet
facet normal -0.8191520442889958 0.5735764363510405 0.0
  outer loop
    vertex 59.05417363778619 52.19803692291297 1.200000000000001
    vertex 50.93514676521012 40.602864878157625 0.0
    vertex 50.93514676521012 40.602864878157625 1.200000000000001
  endloop
endfacet
facet normal -0.8191520442889958 0.5735764363510405 0.0
  outer loop
    vertex 50.93514676521012 40.602864878157625 0.0
    vertex 59.05417363778619 52.19803692291297 1.200000000000001
    vertex 59.05417363778619 52.19803692291297 0.0
  endloop
endfacet
facet normal -0.9063077870366536 0.42261826174069184 0.0
  outer loop
    vertex 42.92368725258007 40.602864878157625 1.200000000000001
    vertex 36.941487136859 27.773995330120407 0.0
    vertex 36.941487136859 27.773995330120407 1.200000000000001
  endloop
endfacet
facet normal -0.9063077870366536 0.42261826174069184 0.0
  outer loop
    vertex 36.941487136859 27.773995330120407 0.0
    vertex 42.92368725258007 40.602864878157625 1.200000000000001
    vertex 42.92368725258007 40.602864878157625 0.0
  endloop
endfacet
facet normal -0.9659258262890705 0.25881904510251297 0.0
  outer loop
    vertex 36.941487136859 27.773995330120407 1.200000000000001
    vertex 33.27787990136979 14.10122698829734 0.0
    vertex 33.27787990136979 14.10122698829734 1.200000000000001
  endloop
endfacet
facet normal -0.9659258262890705 0.25881904510251297 0.0
  outer loop
    vertex 33.27787990136979 14.10122698829734 0.0
    vertex 36.941487136859 27.773995330120407 1.200000000000001
    vertex 36.941487136859 27.773995330120407 0.0
  endloop
endfacet
facet normal 0.0 0.0 1.0
  outer loop
    vertex 35.055641910718144 1.9827889330414905e-16 1.200000000000001
    vertex 33.27787990136979 14.10122698829734 1.200000000000001
    vertex 32.044182398088104 1.9827889330414905e-16 1.200000000000001
  endloop
endfacet
facet normal 0.0 0.0 1.0
  outer loop
    vertex 33.27787990136979 14.10122698829734 1.200000000000001
    vertex 35.055641910718144 1.9827889330414905e-16 1.200000000000001
    vertex 36.941487136859 27.773995330120407 1.200000000000001
  endloop
endfacet
facet normal 0.0 0.0 1.0
  outer loop
    vertex 36.941487136859 27.773995330120407 1.200000000000001
    vertex 35.055641910718144 1.9827889330414905e-16 1.200000000000001
    vertex 36.243588577290225 13.578292531811377 1.200000000000001
  endloop
endfacet
facet normal 0.0 0.0 1.0
  outer loop
    vertex 36.941487136859 27.773995330120407 1.200000000000001
    vertex 36.243588577290225 13.578292531811377 1.200000000000001
    vertex 39.77133341867293 26.744015515991233 1.200000000000001
  endloop
endfacet
facet normal 0.0 0.0 1.0
  outer loop
    vertex 36.941487136859 27.773995330120407 1.200000000000001
    vertex 39.77133341867293 26.744015515991233 1.200000000000001
    vertex 42.92368725258007 40.602864878157625 1.200000000000001
  endloop
endfacet
facet normal 0.0 0.0 1.0
  outer loop
    vertex 42.92368725258007 40.602864878157625 1.200000000000001
    vertex 39.77133341867293 26.744015515991233 1.200000000000001
    vertex 45.531687692985955 39.09713512184255 1.200000000000001
  endloop
endfacet
facet normal 0.0 0.0 1.0
  outer loop
    vertex 42.92368725258007 40.602864878157625 1.200000000000001
    vertex 45.531687692985955 39.09713512184255 1.200000000000001
    vertex 51.04271412515613 52.19803692291297 1.200000000000001
  endloop
endfacet
facet normal 0.0 0.0 1.0
  outer loop
    vertex 51.04271412515613 52.19803692291297 1.200000000000001
    vertex 45.531687692985955 39.09713512184255 1.200000000000001
    vertex 53.349625950484125 50.2623080611217 1.200000000000001
  endloop
endfacet
facet normal 0.0 0.0 1.0
  outer loop
    vertex 51.04271412515613 52.19803692291297 1.200000000000001
    vertex 53.349625950484125 50.2623080611217 1.200000000000001
    vertex 61.05187523148978 62.207198029246804 1.200000000000001
  endloop
endfacet
facet normal 0.0 0.0 1.0
  outer loop
    vertex 61.05187523148978 62.207198029246804 1.200000000000001
    vertex 53.349625950484125 50.2623080611217 1.200000000000001
    vertex 62.98760409328101 59.900286203918775 1.200000000000001
  endloop
endfacet
facet normal -1.1046719095020308e-14 -1.0 0.0
  outer loop
    vertex 35.055641910718144 1.9827889330414905e-16 1.200000000000001
    vertex 32.044182398088104 1.9827889330414905e-16 0.0
    vertex 35.055641910718144 1.9827889330414905e-16 0.0
  endloop
endfacet
facet normal -1.1046719095020308e-14 -1.0 0.0
  outer loop
    vertex 32.044182398088104 1.9827889330414905e-16 0.0
    vertex 35.055641910718144 1.9827889330414905e-16 1.200000000000001
    vertex 32.044182398088104 1.9827889330414905e-16 1.200000000000001
  endloop
endfacet
facet normal 0.9961946980917464 -0.08715574274764837 0.0
  outer loop
    vertex 36.243588577290225 13.578292531811377 0.0
    vertex 35.055641910718144 1.9827889330414905e-16 1.200000000000001
    vertex 35.055641910718144 1.9827889330414905e-16 0.0
  endloop
endfacet
facet normal 0.9961946980917464 -0.08715574274764837 0.0
  outer loop
    vertex 35.055641910718144 1.9827889330414905e-16 1.200000000000001
    vertex 36.243588577290225 13.578292531811377 0.0
    vertex 36.243588577290225 13.578292531811377 1.200000000000001
  endloop
endfacet
facet normal 0.965925826289071 -0.2588190451025109 0.0
  outer loop
    vertex 39.77133341867293 26.744015515991233 0.0
    vertex 36.243588577290225 13.578292531811377 1.200000000000001
    vertex 36.243588577290225 13.578292531811377 0.0
  endloop
endfacet
facet normal 0.965925826289071 -0.2588190451025109 0.0
  outer loop
    vertex 36.243588577290225 13.578292531811377 1.200000000000001
    vertex 39.77133341867293 26.744015515991233 0.0
    vertex 39.77133341867293 26.744015515991233 1.200000000000001
  endloop
endfacet
facet normal 0.7660444431189829 0.6427876096865336 0.0
  outer loop
    vertex 61.05187523148978 62.207198029246804 0.0
    vertex 62.98760409328101 59.900286203918775 1.200000000000001
    vertex 62.98760409328101 59.900286203918775 0.0
  endloop
endfacet
facet normal 0.7660444431189829 0.6427876096865336 0.0
  outer loop
    vertex 62.98760409328101 59.900286203918775 1.200000000000001
    vertex 61.05187523148978 62.207198029246804 0.0
    vertex 61.05187523148978 62.207198029246804 1.200000000000001
  endloop
endfacet
facet normal -0.7071067811865537 0.7071067811865414 0.0
  outer loop
    vertex 61.05187523148978 62.207198029246804 1.200000000000001
    vertex 51.04271412515613 52.19803692291297 0.0
    vertex 51.04271412515613 52.19803692291297 1.200000000000001
  endloop
endfacet
facet normal -0.7071067811865537 0.7071067811865414 0.0
  outer loop
    vertex 51.04271412515613 52.19803692291297 0.0
    vertex 61.05187523148978 62.207198029246804 1.200000000000001
    vertex 61.05187523148978 62.207198029246804 0.0
  endloop
endfacet
facet normal 0.9063077870366534 -0.42261826174069206 0.0
  outer loop
    vertex 45.531687692985955 39.09713512184255 0.0
    vertex 39.77133341867293 26.744015515991233 1.200000000000001
    vertex 39.77133341867293 26.744015515991233 0.0
  endloop
endfacet
facet normal 0.9063077870366534 -0.42261826174069206 0.0
  outer loop
    vertex 39.77133341867293 26.744015515991233 1.200000000000001
    vertex 45.531687692985955 39.09713512184255 0.0
    vertex 45.531687692985955 39.09713512184255 1.200000000000001
  endloop
endfacet
facet normal 0.0 0.0 -1.0
  outer loop
    vertex 33.27787990136979 14.10122698829734 0.0
    vertex 35.055641910718144 1.9827889330414905e-16 0.0
    vertex 32.044182398088104 1.9827889330414905e-16 0.0
  endloop
endfacet
facet normal 0.0 0.0 -1.0
  outer loop
    vertex 35.055641910718144 1.9827889330414905e-16 0.0
    vertex 33.27787990136979 14.10122698829734 0.0
    vertex 36.941487136859 27.773995330120407 0.0
  endloop
endfacet
facet normal 0.0 0.0 -1.0
  outer loop
    vertex 35.055641910718144 1.9827889330414905e-16 0.0
    vertex 36.941487136859 27.773995330120407 0.0
    vertex 36.243588577290225 13.578292531811377 0.0
  endloop
endfacet
facet normal 0.0 0.0 -1.0
  outer loop
    vertex 36.243588577290225 13.578292531811377 0.0
    vertex 36.941487136859 27.773995330120407 0.0
    vertex 39.77133341867293 26.744015515991233 0.0
  endloop
endfacet
facet normal 0.0 0.0 -1.0
  outer loop
    vertex 39.77133341867293 26.744015515991233 0.0
    vertex 36.941487136859 27.773995330120407 0.0
    vertex 42.92368725258007 40.602864878157625 0.0
  endloop
endfacet
facet normal 0.0 0.0 -1.0
  outer loop
    vertex 39.77133341867293 26.744015515991233 0.0
    vertex 42.92368725258007 40.602864878157625 0.0
    vertex 45.531687692985955 39.09713512184255 0.0
  endloop
endfacet
facet normal 0.0 0.0 -1.0
  outer loop
    vertex 45.531687692985955 39.09713512184255 0.0
    vertex 42.92368725258007 40.602864878157625 0.0
    vertex 51.04271412515613 52.19803692291297 0.0
  endloop
endfacet
facet normal 0.0 0.0 -1.0
  outer loop
    vertex 45.531687692985955 39.09713512184255 0.0
    vertex 51.04271412515613 52.19803692291297 0.0
    vertex 53.349625950484125 50.2623080611217 0.0
  endloop
endfacet
facet normal 0.0 0.0 -1.0
  outer loop
    vertex 53.349625950484125 50.2623080611217 0.0
    vertex 51.04271412515613 52.19803692291297 0.0
    vertex 61.05187523148978 62.207198029246804 0.0
  endloop
endfacet
facet normal 0.0 0.0 -1.0
  outer loop
    vertex 53.349625950484125 50.2623080611217 0.0
    vertex 61.05187523148978 62.207198029246804 0.0
    vertex 62.98760409328101 59.900286203918775 0.0
  endloop
endfacet
facet normal 0.7071067811865541 -0.707106781186541 0.0
  outer loop
    vertex 62.98760409328101 59.900286203918775 0.0
    vertex 53.349625950484125 50.2623080611217 1.200000000000001
    vertex 53.349625950484125 50.2623080611217 0.0
  endloop
endfacet
facet normal 0.7071067811865541 -0.707106781186541 0.0
  outer loop
    vertex 53.349625950484125 50.2623080611217 1.200000000000001
    vertex 62.98760409328101 59.900286203918775 0.0
    vertex 62.98760409328101 59.900286203918775 1.200000000000001
  endloop
endfacet
facet normal -0.9961946980917464 0.08715574274764898 0.0
  outer loop
    vertex 33.27787990136979 14.10122698829734 1.200000000000001
    vertex 32.044182398088104 1.9827889330414905e-16 0.0
    vertex 32.044182398088104 1.9827889330414905e-16 1.200000000000001
  endloop
endfacet
facet normal -0.9961946980917464 0.08715574274764898 0.0
  outer loop
    vertex 32.044182398088104 1.9827889330414905e-16 0.0
    vertex 33.27787990136979 14.10122698829734 1.200000000000001
    vertex 33.27787990136979 14.10122698829734 0.0
  endloop
endfacet
facet normal 0.8191520442889973 -0.573576436351038 0.0
  outer loop
    vertex 53.349625950484125 50.2623080611217 0.0
    vertex 45.531687692985955 39.09713512184255 1.200000000000001
    vertex 45.531687692985955 39.09713512184255 0.0
  endloop
endfacet
facet normal 0.8191520442889973 -0.573576436351038 0.0
  outer loop
    vertex 45.531687692985955 39.09713512184255 1.200000000000001
    vertex 53.349625950484125 50.2623080611217 0.0
    vertex 53.349625950484125 50.2623080611217 1.200000000000001
  endloop
endfacet
facet normal -0.8191520442889958 0.5735764363510405 0.0
  outer loop
    vertex 51.04271412515613 52.19803692291297 1.200000000000001
    vertex 42.92368725258007 40.602864878157625 0.0
    vertex 42.92368725258007 40.602864878157625 1.200000000000001
  endloop
endfacet
facet normal -0.8191520442889958 0.5735764363510405 0.0
  outer loop
    vertex 42.92368725258007 40.602864878157625 0.0
    vertex 51.04271412515613 52.19803692291297 1.200000000000001
    vertex 51.04271412515613 52.19803692291297 0.0
  endloop
endfacet
facet normal -0.9198214973217433 0.39233711660354814 0.0
  outer loop
    vertex 12.466278163638773 53.47079336038579 1.200000000000001
    vertex 5.19956934102963 36.43423294602245 -1.5862311464331924e-15
    vertex 5.19956934102963 36.43423294602245 1.200000000000001
  endloop
endfacet
facet normal -0.9198214973217433 0.39233711660354814 0.0
  outer loop
    vertex 5.19956934102963 36.43423294602245 -1.5862311464331924e-15
    vertex 12.466278163638773 53.47079336038579 1.200000000000001
    vertex 12.466278163638773 53.47079336038579 -1.5862311464331924e-15
  endloop
endfacet
facet normal -0.9739759672790556 0.22665130743683876 0.0
  outer loop
    vertex 5.19956934102963 36.43423294602245 1.200000000000001
    vertex 1.0016258233086655 18.394645420613912 -1.5862311464331924e-15
    vertex 1.0016258233086655 18.394645420613912 1.200000000000001
  endloop
endfacet
facet normal -0.9739759672790556 0.22665130743683876 0.0
  outer loop
    vertex 1.0016258233086655 18.394645420613912 -1.5862311464331924e-15
    vertex 5.19956934102963 36.43423294602245 1.200000000000001
    vertex 5.19956934102963 36.43423294602245 -1.5862311464331924e-15
  endloop
endfacet
facet normal 0.7443115462311186 0.6678325554710862 0.0
  outer loop
    vertex 35.23627651339591 82.5104487083654 -1.5862311464331924e-15
    vertex 37.24742721541332 80.2689846221073 1.200000000000001
    vertex 37.24742721541332 80.2689846221073 -1.5862311464331924e-15
  endloop
endfacet
facet normal 0.7443115462311186 0.6678325554710862 0.0
  outer loop
    vertex 37.24742721541332 80.2689846221073 1.200000000000001
    vertex 35.23627651339591 82.5104487083654 -1.5862311464331924e-15
    vertex 35.23627651339591 82.5104487083654 1.200000000000001
  endloop
endfacet
facet normal -0.8377187166204475 0.546101961014416 0.0
  outer loop
    vertex 22.58095702069329 68.9866793964295 1.200000000000001
    vertex 12.466278163638773 53.47079336038579 -1.5862311464331924e-15
    vertex 12.466278163638773 53.47079336038579 1.200000000000001
  endloop
endfacet
facet normal -0.8377187166204475 0.546101961014416 0.0
  outer loop
    vertex 12.466278163638773 53.47079336038579 -1.5862311464331924e-15
    vertex 22.58095702069329 68.9866793964295 1.200000000000001
    vertex 22.58095702069329 68.9866793964295 -1.5862311464331924e-15
  endloop
endfacet
facet normal 0.9985366703262125 -0.05407881298476041 0.0
  outer loop
    vertex 3.983041985068011 17.97032706535443 -1.5862311464331924e-15
    vertex 3.0098038601979527 -1.4099832412739487e-15 1.200000000000001
    vertex 3.0098038601979527 -1.4099832412739487e-15 -1.5862311464331924e-15
  endloop
endfacet
facet normal 0.9985366703262125 -0.05407881298476041 0.0
  outer loop
    vertex 3.0098038601979527 -1.4099832412739487e-15 1.200000000000001
    vertex 3.983041985068011 17.97032706535443 -1.5862311464331924e-15
    vertex 3.983041985068011 17.97032706535443 1.200000000000001
  endloop
endfacet
facet normal 0.9739759672790551 -0.22665130743684034 0.0
  outer loop
    vertex 8.062008982944654 35.49864345666105 -1.5862311464331924e-15
    vertex 3.983041985068011 17.97032706535443 1.200000000000001
    vertex 3.983041985068011 17.97032706535443 -1.5862311464331924e-15
  endloop
endfacet
facet normal 0.9739759672790551 -0.22665130743684034 0.0
  outer loop
    vertex 3.983041985068011 17.97032706535443 1.200000000000001
    vertex 8.062008982944654 35.49864345666105 -1.5862311464331924e-15
    vertex 8.062008982944654 35.49864345666105 1.200000000000001
  endloop
endfacet
facet normal 0.8377187166204477 -0.5461019610144152 0.0
  outer loop
    vertex 24.950779978400515 67.12850084060292 -1.5862311464331924e-15
    vertex 15.122767505654208 52.052360150125814 1.200000000000001
    vertex 15.122767505654208 52.052360150125814 -1.5862311464331924e-15
  endloop
endfacet
facet normal 0.8377187166204477 -0.5461019610144152 0.0
  outer loop
    vertex 15.122767505654208 52.052360150125814 1.200000000000001
    vertex 24.950779978400515 67.12850084060292 -1.5862311464331924e-15
    vertex 24.950779978400515 67.12850084060292 1.200000000000001
  endloop
endfacet
facet normal 0.033155178388525074 -0.9994502159417572 0.0
  outer loop
    vertex 3.0098038601979527 -1.4099832412739487e-15 1.200000000000001
    vertex -4.674824588927028e-17 -0.09984547735107625 -1.5862311464331924e-15
    vertex 3.0098038601979527 -1.4099832412739487e-15 -1.5862311464331924e-15
  endloop
endfacet
facet normal 0.033155178388525074 -0.9994502159417572 0.0
  outer loop
    vertex -4.674824588927028e-17 -0.09984547735107625 -1.5862311464331924e-15
    vertex 3.0098038601979527 -1.4099832412739487e-15 1.200000000000001
    vertex -4.674824588927028e-17 -0.09984547735107625 1.200000000000001
  endloop
endfacet
facet normal 0.730162276620763 -0.6832737736807878 0.0
  outer loop
    vertex 37.24742721541332 80.2689846221073 -1.5862311464331924e-15
    vertex 24.950779978400515 67.12850084060292 1.200000000000001
    vertex 24.950779978400515 67.12850084060292 -1.5862311464331924e-15
  endloop
endfacet
facet normal 0.730162276620763 -0.6832737736807878 0.0
  outer loop
    vertex 24.950779978400515 67.12850084060292 1.200000000000001
    vertex 37.24742721541332 80.2689846221073 -1.5862311464331924e-15
    vertex 37.24742721541332 80.2689846221073 1.200000000000001
  endloop
endfacet
facet normal -0.9985366703262125 0.05407881298476041 0.0
  outer loop
    vertex 1.0016258233086655 18.394645420613912 1.200000000000001
    vertex -4.674824588927028e-17 -0.09984547735107625 -1.5862311464331924e-15
    vertex -4.674824588927028e-17 -0.09984547735107625 1.200000000000001
  endloop
endfacet
facet normal -0.9985366703262125 0.05407881298476041 0.0
  outer loop
    vertex -4.674824588927028e-17 -0.09984547735107625 -1.5862311464331924e-15
    vertex 1.0016258233086655 18.394645420613912 1.200000000000001
    vertex 1.0016258233086655 18.394645420613912 -1.5862311464331924e-15
  endloop
endfacet
facet normal 0.9198214973217436 -0.39233711660354775 0.0
  outer loop
    vertex 15.122767505654208 52.052360150125814 -1.5862311464331924e-15
    vertex 8.062008982944654 35.49864345666105 1.200000000000001
    vertex 8.062008982944654 35.49864345666105 -1.5862311464331924e-15
  endloop
endfacet
facet normal 0.9198214973217436 -0.39233711660354775 0.0
  outer loop
    vertex 8.062008982944654 35.49864345666105 1.200000000000001
    vertex 15.122767505654208 52.052360150125814 -1.5862311464331924e-15
    vertex 15.122767505654208 52.052360150125814 1.200000000000001
  endloop
endfacet
facet normal -0.7301622766207629 0.683273773680788 0.0
  outer loop
    vertex 35.23627651339591 82.5104487083654 1.200000000000001
    vertex 22.58095702069329 68.9866793964295 -1.5862311464331924e-15
    vertex 22.58095702069329 68.9866793964295 1.200000000000001
  endloop
endfacet
facet normal -0.7301622766207629 0.683273773680788 0.0
  outer loop
    vertex 22.58095702069329 68.9866793964295 -1.5862311464331924e-15
    vertex 35.23627651339591 82.5104487083654 1.200000000000001
    vertex 35.23627651339591 82.5104487083654 -1.5862311464331924e-15
  endloop
endfacet
facet normal 0.0 0.0 1.0
  outer loop
    vertex 3.0098038601979527 -1.4099832412739487e-15 1.200000000000001
    vertex 1.0016258233086655 18.394645420613912 1.200000000000001
    vertex -4.674824588927028e-17 -0.09984547735107625 1.200000000000001
  endloop
endfacet
facet normal 0.0 0.0 1.0
  outer loop
    vertex 1.0016258233086655 18.394645420613912 1.200000000000001
    vertex 3.0098038601979527 -1.4099832412739487e-15 1.200000000000001
    vertex 3.983041985068011 17.97032706535443 1.200000000000001
  endloop
endfacet
facet normal 0.0 0.0 1.0
  outer loop
    vertex 1.0016258233086655 18.394645420613912 1.200000000000001
    vertex 3.983041985068011 17.97032706535443 1.200000000000001
    vertex 5.19956934102963 36.43423294602245 1.200000000000001
  endloop
endfacet
facet normal 0.0 0.0 1.0
  outer loop
    vertex 5.19956934102963 36.43423294602245 1.200000000000001
    vertex 3.983041985068011 17.97032706535443 1.200000000000001
    vertex 8.062008982944654 35.49864345666105 1.200000000000001
  endloop
endfacet
facet normal 0.0 0.0 1.0
  outer loop
    vertex 5.19956934102963 36.43423294602245 1.200000000000001
    vertex 8.062008982944654 35.49864345666105 1.200000000000001
    vertex 12.466278163638773 53.47079336038579 1.200000000000001
  endloop
endfacet
facet normal 0.0 0.0 1.0
  outer loop
    vertex 12.466278163638773 53.47079336038579 1.200000000000001
    vertex 8.062008982944654 35.49864345666105 1.200000000000001
    vertex 15.122767505654208 52.052360150125814 1.200000000000001
  endloop
endfacet
facet normal 0.0 0.0 1.0
  outer loop
    vertex 12.466278163638773 53.47079336038579 1.200000000000001
    vertex 15.122767505654208 52.052360150125814 1.200000000000001
    vertex 22.58095702069329 68.9866793964295 1.200000000000001
  endloop
endfacet
facet normal 0.0 0.0 1.0
  outer loop
    vertex 22.58095702069329 68.9866793964295 1.200000000000001
    vertex 15.122767505654208 52.052360150125814 1.200000000000001
    vertex 24.950779978400515 67.12850084060292 1.200000000000001
  endloop
endfacet
facet normal 0.0 0.0 1.0
  outer loop
    vertex 22.58095702069329 68.9866793964295 1.200000000000001
    vertex 24.950779978400515 67.12850084060292 1.200000000000001
    vertex 35.23627651339591 82.5104487083654 1.200000000000001
  endloop
endfacet
facet normal 0.0 0.0 1.0
  outer loop
    vertex 35.23627651339591 82.5104487083654 1.200000000000001
    vertex 24.950779978400515 67.12850084060292 1.200000000000001
    vertex 37.24742721541332 80.2689846221073 1.200000000000001
  endloop
endfacet
facet normal 0.0 0.0 -1.0
  outer loop
    vertex 1.0016258233086655 18.394645420613912 -1.5862311464331924e-15
    vertex 3.0098038601979527 -1.4099832412739487e-15 -1.5862311464331924e-15
    vertex -4.674824588927028e-17 -0.09984547735107625 -1.5862311464331924e-15
  endloop
endfacet
facet normal 0.0 0.0 -1.0
  outer loop
    vertex 3.0098038601979527 -1.4099832412739487e-15 -1.5862311464331924e-15
    vertex 1.0016258233086655 18.394645420613912 -1.5862311464331924e-15
    vertex 3.983041985068011 17.97032706535443 -1.5862311464331924e-15
  endloop
endfacet
facet normal 0.0 0.0 -1.0
  outer loop
    vertex 3.983041985068011 17.97032706535443 -1.5862311464331924e-15
    vertex 1.0016258233086655 18.394645420613912 -1.5862311464331924e-15
    vertex 5.19956934102963 36.43423294602245 -1.5862311464331924e-15
  endloop
endfacet
facet normal 0.0 0.0 -1.0
  outer loop
    vertex 3.983041985068011 17.97032706535443 -1.5862311464331924e-15
    vertex 5.19956934102963 36.43423294602245 -1.5862311464331924e-15
    vertex 8.062008982944654 35.49864345666105 -1.5862311464331924e-15
  endloop
endfacet
facet normal 0.0 0.0 -1.0
  outer loop
    vertex 8.062008982944654 35.49864345666105 -1.5862311464331924e-15
    vertex 5.19956934102963 36.43423294602245 -1.5862311464331924e-15
    vertex 12.466278163638773 53.47079336038579 -1.5862311464331924e-15
  endloop
endfacet
facet normal 0.0 0.0 -1.0
  outer loop
    vertex 8.062008982944654 35.49864345666105 -1.5862311464331924e-15
    vertex 12.466278163638773 53.47079336038579 -1.5862311464331924e-15
    vertex 15.122767505654208 52.052360150125814 -1.5862311464331924e-15
  endloop
endfacet
facet normal 0.0 0.0 -1.0
  outer loop
    vertex 15.122767505654208 52.052360150125814 -1.5862311464331924e-15
    vertex 12.466278163638773 53.47079336038579 -1.5862311464331924e-15
    vertex 22.58095702069329 68.9866793964295 -1.5862311464331924e-15
  endloop
endfacet
facet normal 0.0 0.0 -1.0
  outer loop
    vertex 15.122767505654208 52.052360150125814 -1.5862311464331924e-15
    vertex 22.58095702069329 68.9866793964295 -1.5862311464331924e-15
    vertex 24.950779978400515 67.12850084060292 -1.5862311464331924e-15
  endloop
endfacet
facet normal 0.0 0.0 -1.0
  outer loop
    vertex 24.950779978400515 67.12850084060292 -1.5862311464331924e-15
    vertex 22.58095702069329 68.9866793964295 -1.5862311464331924e-15
    vertex 35.23627651339591 82.5104487083654 -1.5862311464331924e-15
  endloop
endfacet
facet normal 0.0 0.0 -1.0
  outer loop
    vertex 24.950779978400515 67.12850084060292 -1.5862311464331924e-15
    vertex 35.23627651339591 82.5104487083654 -1.5862311464331924e-15
    vertex 37.24742721541332 80.2689846221073 -1.5862311464331924e-15
  endloop
endfacet
facet normal -0.8847480486416511 0.4660696197187613 2.72619851987488e-34
  outer loop
    vertex 32.81989567660233 52.52108638697274 1.200000000000003
    vertex 24.1875433595955 36.13414215261639 -1.7624790515924354e-16
    vertex 24.1875433595955 36.13414215261639 1.200000000000003
  endloop
endfacet
facet normal -0.8847480486416511 0.4660696197187613 2.72619851987488e-34
  outer loop
    vertex 24.1875433595955 36.13414215261639 -1.7624790515924354e-16
    vertex 32.81989567660233 52.52108638697274 1.200000000000003
    vertex 32.81989567660233 52.52108638697274 -1.7624790515924354e-16
  endloop
endfacet
facet normal -0.952238877894803 0.30535408860149016 9.823969221893806e-35
  outer loop
    vertex 24.1875433595955 36.13414215261639 1.200000000000003
    vertex 18.531898874899877 18.497160173616006 -1.7624790515924357e-16
    vertex 18.531898874899877 18.497160173616006 1.200000000000003
  endloop
endfacet
facet normal -0.952238877894803 0.30535408860149016 9.823969221893806e-35
  outer loop
    vertex 18.531898874899877 18.497160173616006 -1.7624790515924357e-16
    vertex 24.1875433595955 36.13414215261639 1.200000000000003
    vertex 24.1875433595955 36.13414215261639 -1.7624790515924354e-16
  endloop
endfacet
facet normal 0.9907964106992421 -0.13536052801869056 7.912543088599777e-35
  outer loop
    vertex 21.468760571925998 17.831028228165078 -1.7624790515924357e-16
    vertex 19.032722885458064 3.745267984633926e-16 1.200000000000003
    vertex 19.032722885458064 3.745267984633926e-16 -1.762479051592436e-16
  endloop
endfacet
facet normal 0.9907964106992421 -0.13536052801869056 7.912543088599777e-35
  outer loop
    vertex 19.032722885458064 3.745267984633926e-16 1.200000000000003
    vertex 21.468760571925998 17.831028228165078 -1.7624790515924357e-16
    vertex 21.468760571925998 17.831028228165078 1.200000000000003
  endloop
endfacet
facet normal 0.9522388778948022 -0.305354088601492 -9.823969221893998e-35
  outer loop
    vertex 26.964114929938145 34.96814956645854 -1.7624790515924354e-16
    vertex 21.468760571925998 17.831028228165078 1.200000000000003
    vertex 21.468760571925998 17.831028228165078 -1.7624790515924357e-16
  endloop
endfacet
facet normal 0.9522388778948022 -0.305354088601492 -9.823969221893998e-35
  outer loop
    vertex 21.468760571925998 17.831028228165078 1.200000000000003
    vertex 26.964114929938145 34.96814956645854 -1.7624790515924354e-16
    vertex 26.964114929938145 34.96814956645854 1.200000000000003
  endloop
endfacet
facet normal -0.048491843256929 -0.9988235785851001 -1.0037258097462994e-33
  outer loop
    vertex 19.032722885458064 3.745267984633926e-16 1.200000000000003
    vertex 16.02480611828878 0.14603122266104365 -1.762479051592436e-16
    vertex 19.032722885458064 3.745267984633926e-16 -1.762479051592436e-16
  endloop
endfacet
facet normal -0.048491843256929 -0.9988235785851001 -1.0037258097462994e-33
  outer loop
    vertex 16.02480611828878 0.14603122266104365 -1.762479051592436e-16
    vertex 19.032722885458064 3.745267984633926e-16 1.200000000000003
    vertex 16.02480611828878 0.14603122266104365 1.200000000000003
  endloop
endfacet
facet normal -0.9907964106992421 0.13536052801869078 -7.912543088599755e-35
  outer loop
    vertex 18.531898874899877 18.497160173616006 1.200000000000003
    vertex 16.02480611828878 0.14603122266104365 -1.762479051592436e-16
    vertex 16.02480611828878 0.14603122266104365 1.200000000000003
  endloop
endfacet
facet normal -0.9907964106992421 0.13536052801869078 -7.912543088599755e-35
  outer loop
    vertex 16.02480611828878 0.14603122266104365 -1.762479051592436e-16
    vertex 18.531898874899877 18.497160173616006 1.200000000000003
    vertex 18.531898874899877 18.497160173616006 -1.7624790515924357e-16
  endloop
endfacet
facet normal 0.8847480486416514 -0.4660696197187609 -2.726198519874875e-34
  outer loop
    vertex 35.35181239810958 50.890661254817935 -1.7624790515924354e-16
    vertex 26.964114929938145 34.96814956645854 1.200000000000003
    vertex 26.964114929938145 34.96814956645854 -1.7624790515924354e-16
  endloop
endfacet
facet normal 0.8847480486416514 -0.4660696197187609 -2.726198519874875e-34
  outer loop
    vertex 26.964114929938145 34.96814956645854 1.200000000000003
    vertex 35.35181239810958 50.890661254817935 -1.7624790515924354e-16
    vertex 35.35181239810958 50.890661254817935 1.200000000000003
  endloop
endfacet
facet normal -2.060306221646498e-32 3.9487092583410706e-33 1.0
  outer loop
    vertex 19.032722885458064 3.745267984633926e-16 1.200000000000003
    vertex 18.531898874899877 18.497160173616006 1.200000000000003
    vertex 16.02480611828878 0.14603122266104365 1.200000000000003
  endloop
endfacet
facet normal -2.060306221646498e-32 3.9487092583410706e-33 1.0
  outer loop
    vertex 18.531898874899877 18.497160173616006 1.200000000000003
    vertex 19.032722885458064 3.745267984633926e-16 1.200000000000003
    vertex 21.468760571925998 17.831028228165078 1.200000000000003
  endloop
endfacet
facet normal -2.060306221646498e-32 3.9487092583410706e-33 1.0
  outer loop
    vertex 18.531898874899877 18.497160173616006 1.200000000000003
    vertex 21.468760571925998 17.831028228165078 1.200000000000003
    vertex 24.1875433595955 36.13414215261639 1.200000000000003
  endloop
endfacet
facet normal -2.060306221646498e-32 3.9487092583410706e-33 1.0
  outer loop
    vertex 24.1875433595955 36.13414215261639 1.200000000000003
    vertex 21.468760571925998 17.831028228165078 1.200000000000003
    vertex 26.964114929938145 34.96814956645854 1.200000000000003
  endloop
endfacet
facet normal -2.060306221646498e-32 3.9487092583410706e-33 1.0
  outer loop
    vertex 24.1875433595955 36.13414215261639 1.200000000000003
    vertex 26.964114929938145 34.96814956645854 1.200000000000003
    vertex 32.81989567660233 52.52108638697274 1.200000000000003
  endloop
endfacet
facet normal -2.060306221646498e-32 3.9487092583410706e-33 1.0
  outer loop
    vertex 32.81989567660233 52.52108638697274 1.200000000000003
    vertex 26.964114929938145 34.96814956645854 1.200000000000003
    vertex 35.35181239810958 50.890661254817935 1.200000000000003
  endloop
endfacet
facet normal -2.060306221646498e-32 3.9487092583410706e-33 1.0
  outer loop
    vertex 32.81989567660233 52.52108638697274 1.200000000000003
    vertex 35.35181239810958 50.890661254817935 1.200000000000003
    vertex 44.1666661689492 67.1600838683186 1.200000000000003
  endloop
endfacet
facet normal -2.060306221646498e-32 3.9487092583410706e-33 1.0
  outer loop
    vertex 44.1666661689492 67.1600838683186 1.200000000000003
    vertex 35.35181239810958 50.890661254817935 1.200000000000003
    vertex 46.376997033249765 65.11476583277245 1.200000000000003
  endloop
endfacet
facet normal -0.7903745976346391 0.6126238612834815 1.2246349188071324e-16
  outer loop
    vertex 44.1666661689492 67.1600838683186 1.200000000000003
    vertex 32.81989567660233 52.52108638697274 -1.7624790515924354e-16
    vertex 32.81989567660233 52.52108638697274 1.200000000000003
  endloop
endfacet
facet normal -0.7903745976346391 0.6126238612834815 1.2246349188071324e-16
  outer loop
    vertex 32.81989567660233 52.52108638697274 -1.7624790515924354e-16
    vertex 44.1666661689492 67.1600838683186 1.200000000000003
    vertex 44.1666661689492 67.1600838683186 -1.7624790515924352e-16
  endloop
endfacet
facet normal 0.7903745976346391 -0.6126238612834817 -2.088379629620511e-16
  outer loop
    vertex 46.376997033249765 65.11476583277245 -1.7624790515924352e-16
    vertex 35.35181239810958 50.890661254817935 1.200000000000003
    vertex 35.35181239810958 50.890661254817935 -1.7624790515924354e-16
  endloop
endfacet
facet normal 0.7903745976346391 -0.6126238612834817 -2.088379629620511e-16
  outer loop
    vertex 35.35181239810958 50.890661254817935 1.200000000000003
    vertex 46.376997033249765 65.11476583277245 -1.7624790515924352e-16
    vertex 46.376997033249765 65.11476583277245 1.200000000000003
  endloop
endfacet
facet normal 0.6791783276408354 0.733973296014915 -3.218484412976681e-17
  outer loop
    vertex 44.1666661689492 67.1600838683186 1.200000000000003
    vertex 46.376997033249765 65.11476583277245 -1.7624790515924352e-16
    vertex 44.1666661689492 67.1600838683186 -1.7624790515924352e-16
  endloop
endfacet
facet normal 0.6791783276408354 0.733973296014915 -3.218484412976681e-17
  outer loop
    vertex 46.376997033249765 65.11476583277245 -1.7624790515924352e-16
    vertex 44.1666661689492 67.1600838683186 1.200000000000003
    vertex 46.376997033249765 65.11476583277245 1.200000000000003
  endloop
endfacet
facet normal 2.157180740266253e-34 9.944351174808472e-34 -1.0
  outer loop
    vertex 18.531898874899877 18.497160173616006 -1.7624790515924357e-16
    vertex 19.032722885458064 3.745267984633926e-16 -1.762479051592436e-16
    vertex 16.02480611828878 0.14603122266104365 -1.762479051592436e-16
  endloop
endfacet
facet normal 2.157180740266253e-34 9.944351174808472e-34 -1.0
  outer loop
    vertex 19.032722885458064 3.745267984633926e-16 -1.762479051592436e-16
    vertex 18.531898874899877 18.497160173616006 -1.7624790515924357e-16
    vertex 21.468760571925998 17.831028228165078 -1.7624790515924357e-16
  endloop
endfacet
facet normal 2.157180740266253e-34 9.944351174808472e-34 -1.0
  outer loop
    vertex 21.468760571925998 17.831028228165078 -1.7624790515924357e-16
    vertex 18.531898874899877 18.497160173616006 -1.7624790515924357e-16
    vertex 24.1875433595955 36.13414215261639 -1.7624790515924354e-16
  endloop
endfacet
facet normal 2.157180740266253e-34 9.944351174808472e-34 -1.0
  outer loop
    vertex 21.468760571925998 17.831028228165078 -1.7624790515924357e-16
    vertex 24.1875433595955 36.13414215261639 -1.7624790515924354e-16
    vertex 26.964114929938145 34.96814956645854 -1.7624790515924354e-16
  endloop
endfacet
facet normal 2.157180740266253e-34 9.944351174808472e-34 -1.0
  outer loop
    vertex 26.964114929938145 34.96814956645854 -1.7624790515924354e-16
    vertex 24.1875433595955 36.13414215261639 -1.7624790515924354e-16
    vertex 32.81989567660233 52.52108638697274 -1.7624790515924354e-16
  endloop
endfacet
facet normal 2.157180740266253e-34 9.944351174808472e-34 -1.0
  outer loop
    vertex 26.964114929938145 34.96814956645854 -1.7624790515924354e-16
    vertex 32.81989567660233 52.52108638697274 -1.7624790515924354e-16
    vertex 35.35181239810958 50.890661254817935 -1.7624790515924354e-16
  endloop
endfacet
facet normal 2.157180740266253e-34 9.944351174808472e-34 -1.0
  outer loop
    vertex 35.35181239810958 50.890661254817935 -1.7624790515924354e-16
    vertex 32.81989567660233 52.52108638697274 -1.7624790515924354e-16
    vertex 44.1666661689492 67.1600838683186 -1.7624790515924352e-16
  endloop
endfacet
facet normal 2.157180740266253e-34 9.944351174808472e-34 -1.0
  outer loop
    vertex 35.35181239810958 50.890661254817935 -1.7624790515924354e-16
    vertex 44.1666661689492 67.1600838683186 -1.7624790515924352e-16
    vertex 46.376997033249765 65.11476583277245 -1.7624790515924352e-16
  endloop
endfacet
facet normal -0.9063077870366562 0.4226182617406863 0.0
  outer loop
    vertex 22.24537234988924 53.12786487815755 1.200000000000001
    vertex 14.417808448281539 36.34159992042841 -1.5862311464331924e-15
    vertex 14.417808448281539 36.34159992042841 1.200000000000001
  endloop
endfacet
facet normal -0.9063077870366562 0.4226182617406863 0.0
  outer loop
    vertex 14.417808448281539 36.34159992042841 -1.5862311464331924e-15
    vertex 22.24537234988924 53.12786487815755 1.200000000000001
    vertex 22.24537234988924 53.12786487815755 -1.5862311464331924e-15
  endloop
endfacet
facet normal -0.9659258262890728 0.25881904510250464 0.0
  outer loop
    vertex 14.417808448281539 36.34159992042841 1.200000000000001
    vertex 9.624067150523668 18.451113838853615 -1.5862311464331924e-15
    vertex 9.624067150523668 18.451113838853615 1.200000000000001
  endloop
endfacet
facet normal -0.9659258262890728 0.25881904510250464 0.0
  outer loop
    vertex 9.624067150523668 18.451113838853615 -1.5862311464331924e-15
    vertex 14.417808448281539 36.34159992042841 1.200000000000001
    vertex 14.417808448281539 36.34159992042841 -1.5862311464331924e-15
  endloop
endfacet
facet normal 0.7660444431189439 0.64278760968658 0.0
  outer loop
    vertex 45.96566707095105 81.39661132937734 -1.5862311464331924e-15
    vertex 47.9013959327424 79.08969950404939 1.200000000000001
    vertex 47.9013959327424 79.08969950404939 -1.5862311464331924e-15
  endloop
endfacet
facet normal 0.7660444431189439 0.64278760968658 0.0
  outer loop
    vertex 47.9013959327424 79.08969950404939 1.200000000000001
    vertex 45.96566707095105 81.39661132937734 -1.5862311464331924e-15
    vertex 45.96566707095105 81.39661132937734 1.200000000000001
  endloop
endfacet
facet normal -0.8191520442890009 0.5735764363510334 0.0
  outer loop
    vertex 32.86892228713498 68.29986654556083 1.200000000000001
    vertex 22.24537234988924 53.12786487815755 -1.5862311464331924e-15
    vertex 22.24537234988924 53.12786487815755 1.200000000000001
  endloop
endfacet
facet normal -0.8191520442890009 0.5735764363510334 0.0
  outer loop
    vertex 22.24537234988924 53.12786487815755 -1.5862311464331924e-15
    vertex 32.86892228713498 68.29986654556083 1.200000000000001
    vertex 32.86892228713498 68.29986654556083 -1.5862311464331924e-15
  endloop
endfacet
facet normal 0.9961946980917469 -0.08715574274764336 0.0
  outer loop
    vertex 12.589775826444136 17.928179382367905 -1.5862311464331924e-15
    vertex 11.021263372828017 2.203098814490545e-17 1.200000000000001
    vertex 11.021263372828017 2.203098814490545e-17 -1.5862311464331924e-15
  endloop
endfacet
facet normal 0.9961946980917469 -0.08715574274764336 0.0
  outer loop
    vertex 11.021263372828017 2.203098814490545e-17 1.200000000000001
    vertex 12.589775826444136 17.928179382367905 -1.5862311464331924e-15
    vertex 12.589775826444136 17.928179382367905 1.200000000000001
  endloop
endfacet
facet normal 0.9659258262890723 -0.2588190451025062 0.0
  outer loop
    vertex 17.247654730095547 35.31162010629925 -1.5862311464331924e-15
    vertex 12.589775826444136 17.928179382367905 1.200000000000001
    vertex 12.589775826444136 17.928179382367905 -1.5862311464331924e-15
  endloop
endfacet
facet normal 0.9659258262890723 -0.2588190451025062 0.0
  outer loop
    vertex 12.589775826444136 17.928179382367905 1.200000000000001
    vertex 17.247654730095547 35.31162010629925 -1.5862311464331924e-15
    vertex 17.247654730095547 35.31162010629925 1.200000000000001
  endloop
endfacet
facet normal 0.8191520442890013 -0.5735764363510327 0.0
  outer loop
    vertex 35.17583411246303 66.36413768376961 -1.5862311464331924e-15
    vertex 24.85337279029516 51.62213512184251 1.200000000000001
    vertex 24.85337279029516 51.62213512184251 -1.5862311464331924e-15
  endloop
endfacet
facet normal 0.8191520442890013 -0.5735764363510327 0.0
  outer loop
    vertex 24.85337279029516 51.62213512184251 1.200000000000001
    vertex 35.17583411246303 66.36413768376961 -1.5862311464331924e-15
    vertex 35.17583411246303 66.36413768376961 1.200000000000001
  endloop
endfacet
facet normal -1.221245327087672e-15 -1.0 0.0
  outer loop
    vertex 11.021263372828017 2.203098814490545e-17 1.200000000000001
    vertex 8.009803860197977 -1.3879522531290432e-15 -1.5862311464331924e-15
    vertex 11.021263372828017 2.203098814490545e-17 -1.5862311464331924e-15
  endloop
endfacet
facet normal -1.221245327087672e-15 -1.0 0.0
  outer loop
    vertex 8.009803860197977 -1.3879522531290432e-15 -1.5862311464331924e-15
    vertex 11.021263372828017 2.203098814490545e-17 1.200000000000001
    vertex 8.009803860197977 -1.3879522531290432e-15 1.200000000000001
  endloop
endfacet
facet normal 0.7071067811865587 -0.7071067811865366 0.0
  outer loop
    vertex 47.9013959327424 79.08969950404939 -1.5862311464331924e-15
    vertex 35.17583411246303 66.36413768376961 1.200000000000001
    vertex 35.17583411246303 66.36413768376961 -1.5862311464331924e-15
  endloop
endfacet
facet normal 0.7071067811865587 -0.7071067811865366 0.0
  outer loop
    vertex 35.17583411246303 66.36413768376961 1.200000000000001
    vertex 47.9013959327424 79.08969950404939 -1.5862311464331924e-15
    vertex 47.9013959327424 79.08969950404939 1.200000000000001
  endloop
endfacet
facet normal -0.9961946980917469 0.08715574274764336 0.0
  outer loop
    vertex 9.624067150523668 18.451113838853615 1.200000000000001
    vertex 8.009803860197977 -1.3879522531290432e-15 -1.5862311464331924e-15
    vertex 8.009803860197977 -1.3879522531290432e-15 1.200000000000001
  endloop
endfacet
facet normal -0.9961946980917469 0.08715574274764336 0.0
  outer loop
    vertex 8.009803860197977 -1.3879522531290432e-15 -1.5862311464331924e-15
    vertex 9.624067150523668 18.451113838853615 1.200000000000001
    vertex 9.624067150523668 18.451113838853615 -1.5862311464331924e-15
  endloop
endfacet
facet normal 0.9063077870366564 -0.4226182617406859 0.0
  outer loop
    vertex 24.85337279029516 51.62213512184251 -1.5862311464331924e-15
    vertex 17.247654730095547 35.31162010629925 1.200000000000001
    vertex 17.247654730095547 35.31162010629925 -1.5862311464331924e-15
  endloop
endfacet
facet normal 0.9063077870366564 -0.4226182617406859 0.0
  outer loop
    vertex 17.247654730095547 35.31162010629925 1.200000000000001
    vertex 24.85337279029516 51.62213512184251 -1.5862311464331924e-15
    vertex 24.85337279029516 51.62213512184251 1.200000000000001
  endloop
endfacet
facet normal -0.7071067811865585 0.7071067811865368 0.0
  outer loop
    vertex 45.96566707095105 81.39661132937734 1.200000000000001
    vertex 32.86892228713498 68.29986654556083 -1.5862311464331924e-15
    vertex 32.86892228713498 68.29986654556083 1.200000000000001
  endloop
endfacet
facet normal -0.7071067811865585 0.7071067811865368 0.0
  outer loop
    vertex 32.86892228713498 68.29986654556083 -1.5862311464331924e-15
    vertex 45.96566707095105 81.39661132937734 1.200000000000001
    vertex 45.96566707095105 81.39661132937734 -1.5862311464331924e-15
  endloop
endfacet
facet normal 0.0 0.0 1.0
  outer loop
    vertex 11.021263372828017 2.203098814490545e-17 1.200000000000001
    vertex 9.624067150523668 18.451113838853615 1.200000000000001
    vertex 8.009803860197977 -1.3879522531290432e-15 1.200000000000001
  endloop
endfacet
facet normal 0.0 0.0 1.0
  outer loop
    vertex 9.624067150523668 18.451113838853615 1.200000000000001
    vertex 11.021263372828017 2.203098814490545e-17 1.200000000000001
    vertex 12.589775826444136 17.928179382367905 1.200000000000001
  endloop
endfacet
facet normal 0.0 0.0 1.0
  outer loop
    vertex 9.624067150523668 18.451113838853615 1.200000000000001
    vertex 12.589775826444136 17.928179382367905 1.200000000000001
    vertex 14.417808448281539 36.34159992042841 1.200000000000001
  endloop
endfacet
facet normal 0.0 0.0 1.0
  outer loop
    vertex 14.417808448281539 36.34159992042841 1.200000000000001
    vertex 12.589775826444136 17.928179382367905 1.200000000000001
    vertex 17.247654730095547 35.31162010629925 1.200000000000001
  endloop
endfacet
facet normal 0.0 0.0 1.0
  outer loop
    vertex 14.417808448281539 36.34159992042841 1.200000000000001
    vertex 17.247654730095547 35.31162010629925 1.200000000000001
    vertex 22.24537234988924 53.12786487815755 1.200000000000001
  endloop
endfacet
facet normal 0.0 0.0 1.0
  outer loop
    vertex 22.24537234988924 53.12786487815755 1.200000000000001
    vertex 17.247654730095547 35.31162010629925 1.200000000000001
    vertex 24.85337279029516 51.62213512184251 1.200000000000001
  endloop
endfacet
facet normal 0.0 0.0 1.0
  outer loop
    vertex 22.24537234988924 53.12786487815755 1.200000000000001
    vertex 24.85337279029516 51.62213512184251 1.200000000000001
    vertex 32.86892228713498 68.29986654556083 1.200000000000001
  endloop
endfacet
facet normal 0.0 0.0 1.0
  outer loop
    vertex 32.86892228713498 68.29986654556083 1.200000000000001
    vertex 24.85337279029516 51.62213512184251 1.200000000000001
    vertex 35.17583411246303 66.36413768376961 1.200000000000001
  endloop
endfacet
facet normal 0.0 0.0 1.0
  outer loop
    vertex 32.86892228713498 68.29986654556083 1.200000000000001
    vertex 35.17583411246303 66.36413768376961 1.200000000000001
    vertex 45.96566707095105 81.39661132937734 1.200000000000001
  endloop
endfacet
facet normal 0.0 0.0 1.0
  outer loop
    vertex 45.96566707095105 81.39661132937734 1.200000000000001
    vertex 35.17583411246303 66.36413768376961 1.200000000000001
    vertex 47.9013959327424 79.08969950404939 1.200000000000001
  endloop
endfacet
facet normal 0.0 0.0 -1.0
  outer loop
    vertex 9.624067150523668 18.451113838853615 -1.5862311464331924e-15
    vertex 11.021263372828017 2.203098814490545e-17 -1.5862311464331924e-15
    vertex 8.009803860197977 -1.3879522531290432e-15 -1.5862311464331924e-15
  endloop
endfacet
facet normal 0.0 0.0 -1.0
  outer loop
    vertex 11.021263372828017 2.203098814490545e-17 -1.5862311464331924e-15
    vertex 9.624067150523668 18.451113838853615 -1.5862311464331924e-15
    vertex 12.589775826444136 17.928179382367905 -1.5862311464331924e-15
  endloop
endfacet
facet normal 0.0 0.0 -1.0
  outer loop
    vertex 12.589775826444136 17.928179382367905 -1.5862311464331924e-15
    vertex 9.624067150523668 18.451113838853615 -1.5862311464331924e-15
    vertex 14.417808448281539 36.34159992042841 -1.5862311464331924e-15
  endloop
endfacet
facet normal 0.0 0.0 -1.0
  outer loop
    vertex 12.589775826444136 17.928179382367905 -1.5862311464331924e-15
    vertex 14.417808448281539 36.34159992042841 -1.5862311464331924e-15
    vertex 17.247654730095547 35.31162010629925 -1.5862311464331924e-15
  endloop
endfacet
facet normal 0.0 0.0 -1.0
  outer loop
    vertex 17.247654730095547 35.31162010629925 -1.5862311464331924e-15
    vertex 14.417808448281539 36.34159992042841 -1.5862311464331924e-15
    vertex 22.24537234988924 53.12786487815755 -1.5862311464331924e-15
  endloop
endfacet
facet normal 0.0 0.0 -1.0
  outer loop
    vertex 17.247654730095547 35.31162010629925 -1.5862311464331924e-15
    vertex 22.24537234988924 53.12786487815755 -1.5862311464331924e-15
    vertex 24.85337279029516 51.62213512184251 -1.5862311464331924e-15
  endloop
endfacet
facet normal 0.0 0.0 -1.0
  outer loop
    vertex 24.85337279029516 51.62213512184251 -1.5862311464331924e-15
    vertex 22.24537234988924 53.12786487815755 -1.5862311464331924e-15
    vertex 32.86892228713498 68.29986654556083 -1.5862311464331924e-15
  endloop
endfacet
facet normal 0.0 0.0 -1.0
  outer loop
    vertex 24.85337279029516 51.62213512184251 -1.5862311464331924e-15
    vertex 32.86892228713498 68.29986654556083 -1.5862311464331924e-15
    vertex 35.17583411246303 66.36413768376961 -1.5862311464331924e-15
  endloop
endfacet
facet normal 0.0 0.0 -1.0
  outer loop
    vertex 35.17583411246303 66.36413768376961 -1.5862311464331924e-15
    vertex 32.86892228713498 68.29986654556083 -1.5862311464331924e-15
    vertex 45.96566707095105 81.39661132937734 -1.5862311464331924e-15
  endloop
endfacet
facet normal 0.0 0.0 -1.0
  outer loop
    vertex 35.17583411246303 66.36413768376961 -1.5862311464331924e-15
    vertex 45.96566707095105 81.39661132937734 -1.5862311464331924e-15
    vertex 47.9013959327424 79.08969950404939 -1.5862311464331924e-15
  endloop
endfacet
facet normal -0.9063077870366651 0.4226182617406672 0.0
  outer loop
    vertex 66.9580657904691 40.602864878158016 1.2000000000000042
    vertex 60.97586567474833 27.773995330120556 0.0
    vertex 60.97586567474833 27.773995330120556 1.2000000000000042
  endloop
endfacet
facet normal -0.9063077870366651 0.4226182617406672 0.0
  outer loop
    vertex 60.97586567474833 27.773995330120556 0.0
    vertex 66.9580657904691 40.602864878158016 1.2000000000000042
    vertex 66.9580657904691 40.602864878158016 0.0
  endloop
endfacet
facet normal 0.8191520442890121 -0.5735764363510172 0.0
  outer loop
    vertex 77.38400448837288 50.26230806112234 0.0
    vertex 69.5660662308751 39.097135121843124 1.2000000000000042
    vertex 69.5660662308751 39.097135121843124 0.0
  endloop
endfacet
facet normal 0.8191520442890121 -0.5735764363510172 0.0
  outer loop
    vertex 69.5660662308751 39.097135121843124 1.2000000000000042
    vertex 77.38400448837288 50.26230806112234 0.0
    vertex 77.38400448837288 50.26230806112234 1.2000000000000042
  endloop
endfacet
facet normal 0.9659258262890771 -0.258819045102488 0.0
  outer loop
    vertex 63.80571195656238 26.744015515991524 0.0
    vertex 60.27796711518002 13.578292531811725 1.2000000000000042
    vertex 60.27796711518002 13.578292531811725 0.0
  endloop
endfacet
facet normal 0.9659258262890771 -0.258819045102488 0.0
  outer loop
    vertex 60.27796711518002 13.578292531811725 1.2000000000000042
    vertex 63.80571195656238 26.744015515991524 0.0
    vertex 63.80571195656238 26.744015515991524 1.2000000000000042
  endloop
endfacet
facet normal 0.0 0.0 1.0
  outer loop
    vertex 59.09002044860829 1.9827889330414905e-16 1.2000000000000042
    vertex 57.312258439259566 14.101226988297586 1.2000000000000042
    vertex 56.07856093597824 1.9827889330414905e-16 1.2000000000000042
  endloop
endfacet
facet normal 0.0 0.0 1.0
  outer loop
    vertex 57.312258439259566 14.101226988297586 1.2000000000000042
    vertex 59.09002044860829 1.9827889330414905e-16 1.2000000000000042
    vertex 60.97586567474833 27.773995330120556 1.2000000000000042
  endloop
endfacet
facet normal 0.0 0.0 1.0
  outer loop
    vertex 60.97586567474833 27.773995330120556 1.2000000000000042
    vertex 59.09002044860829 1.9827889330414905e-16 1.2000000000000042
    vertex 60.27796711518002 13.578292531811725 1.2000000000000042
  endloop
endfacet
facet normal 0.0 0.0 1.0
  outer loop
    vertex 60.97586567474833 27.773995330120556 1.2000000000000042
    vertex 60.27796711518002 13.578292531811725 1.2000000000000042
    vertex 63.80571195656238 26.744015515991524 1.2000000000000042
  endloop
endfacet
facet normal 0.0 0.0 1.0
  outer loop
    vertex 60.97586567474833 27.773995330120556 1.2000000000000042
    vertex 63.80571195656238 26.744015515991524 1.2000000000000042
    vertex 66.9580657904691 40.602864878158016 1.2000000000000042
  endloop
endfacet
facet normal 0.0 0.0 1.0
  outer loop
    vertex 66.9580657904691 40.602864878158016 1.2000000000000042
    vertex 63.80571195656238 26.744015515991524 1.2000000000000042
    vertex 69.5660662308751 39.097135121843124 1.2000000000000042
  endloop
endfacet
facet normal 0.0 0.0 1.0
  outer loop
    vertex 66.9580657904691 40.602864878158016 1.2000000000000042
    vertex 69.5660662308751 39.097135121843124 1.2000000000000042
    vertex 75.07709266304482 52.19803692291349 1.2000000000000042
  endloop
endfacet
facet normal 0.0 0.0 1.0
  outer loop
    vertex 75.07709266304482 52.19803692291349 1.2000000000000042
    vertex 69.5660662308751 39.097135121843124 1.2000000000000042
    vertex 77.38400448837288 50.26230806112234 1.2000000000000042
  endloop
endfacet
facet normal 0.9063077870366649 -0.42261826174066736 0.0
  outer loop
    vertex 69.5660662308751 39.097135121843124 0.0
    vertex 63.80571195656238 26.744015515991524 1.2000000000000042
    vertex 63.80571195656238 26.744015515991524 0.0
  endloop
endfacet
facet normal 0.9063077870366649 -0.42261826174066736 0.0
  outer loop
    vertex 63.80571195656238 26.744015515991524 1.2000000000000042
    vertex 69.5660662308751 39.097135121843124 0.0
    vertex 69.5660662308751 39.097135121843124 1.2000000000000042
  endloop
endfacet
facet normal -0.996194698091749 0.08715574274762067 0.0
  outer loop
    vertex 57.312258439259566 14.101226988297586 1.2000000000000042
    vertex 56.07856093597824 1.9827889330414905e-16 0.0
    vertex 56.07856093597824 1.9827889330414905e-16 1.2000000000000042
  endloop
endfacet
facet normal -0.996194698091749 0.08715574274762067 0.0
  outer loop
    vertex 56.07856093597824 1.9827889330414905e-16 0.0
    vertex 57.312258439259566 14.101226988297586 1.2000000000000042
    vertex 57.312258439259566 14.101226988297586 0.0
  endloop
endfacet
facet normal -2.1094237467877974e-15 -1.0 0.0
  outer loop
    vertex 59.09002044860829 1.9827889330414905e-16 1.2000000000000042
    vertex 56.07856093597824 1.9827889330414905e-16 0.0
    vertex 59.09002044860829 1.9827889330414905e-16 0.0
  endloop
endfacet
facet normal -2.1094237467877974e-15 -1.0 0.0
  outer loop
    vertex 56.07856093597824 1.9827889330414905e-16 0.0
    vertex 59.09002044860829 1.9827889330414905e-16 1.2000000000000042
    vertex 56.07856093597824 1.9827889330414905e-16 1.2000000000000042
  endloop
endfacet
facet normal 0.996194698091749 -0.08715574274761993 0.0
  outer loop
    vertex 60.27796711518002 13.578292531811725 0.0
    vertex 59.09002044860829 1.9827889330414905e-16 1.2000000000000042
    vertex 59.09002044860829 1.9827889330414905e-16 0.0
  endloop
endfacet
facet normal 0.996194698091749 -0.08715574274761993 0.0
  outer loop
    vertex 59.09002044860829 1.9827889330414905e-16 1.2000000000000042
    vertex 60.27796711518002 13.578292531811725 0.0
    vertex 60.27796711518002 13.578292531811725 1.2000000000000042
  endloop
endfacet
facet normal 0.6427876096865184 0.7660444431189958 0.0
  outer loop
    vertex 75.07709266304482 52.19803692291349 1.2000000000000042
    vertex 77.38400448837288 50.26230806112234 0.0
    vertex 75.07709266304482 52.19803692291349 0.0
  endloop
endfacet
facet normal 0.6427876096865184 0.7660444431189958 0.0
  outer loop
    vertex 77.38400448837288 50.26230806112234 0.0
    vertex 75.07709266304482 52.19803692291349 1.2000000000000042
    vertex 77.38400448837288 50.26230806112234 1.2000000000000042
  endloop
endfacet
facet normal -0.8191520442890121 0.5735764363510171 0.0
  outer loop
    vertex 75.07709266304482 52.19803692291349 1.2000000000000042
    vertex 66.9580657904691 40.602864878158016 0.0
    vertex 66.9580657904691 40.602864878158016 1.2000000000000042
  endloop
endfacet
facet normal -0.8191520442890121 0.5735764363510171 0.0
  outer loop
    vertex 66.9580657904691 40.602864878158016 0.0
    vertex 75.07709266304482 52.19803692291349 1.2000000000000042
    vertex 75.07709266304482 52.19803692291349 0.0
  endloop
endfacet
facet normal -0.9659258262890771 0.258819045102488 0.0
  outer loop
    vertex 60.97586567474833 27.773995330120556 1.2000000000000042
    vertex 57.312258439259566 14.101226988297586 0.0
    vertex 57.312258439259566 14.101226988297586 1.2000000000000042
  endloop
endfacet
facet normal -0.9659258262890771 0.258819045102488 0.0
  outer loop
    vertex 57.312258439259566 14.101226988297586 0.0
    vertex 60.97586567474833 27.773995330120556 1.2000000000000042
    vertex 60.97586567474833 27.773995330120556 0.0
  endloop
endfacet
facet normal 0.0 0.0 -1.0
  outer loop
    vertex 57.312258439259566 14.101226988297586 0.0
    vertex 59.09002044860829 1.9827889330414905e-16 0.0
    vertex 56.07856093597824 1.9827889330414905e-16 0.0
  endloop
endfacet
facet normal 0.0 0.0 -1.0
  outer loop
    vertex 59.09002044860829 1.9827889330414905e-16 0.0
    vertex 57.312258439259566 14.101226988297586 0.0
    vertex 60.97586567474833 27.773995330120556 0.0
  endloop
endfacet
facet normal 0.0 0.0 -1.0
  outer loop
    vertex 59.09002044860829 1.9827889330414905e-16 0.0
    vertex 60.97586567474833 27.773995330120556 0.0
    vertex 60.27796711518002 13.578292531811725 0.0
  endloop
endfacet
facet normal 0.0 0.0 -1.0
  outer loop
    vertex 60.27796711518002 13.578292531811725 0.0
    vertex 60.97586567474833 27.773995330120556 0.0
    vertex 63.80571195656238 26.744015515991524 0.0
  endloop
endfacet
facet normal 0.0 0.0 -1.0
  outer loop
    vertex 63.80571195656238 26.744015515991524 0.0
    vertex 60.97586567474833 27.773995330120556 0.0
    vertex 66.9580657904691 40.602864878158016 0.0
  endloop
endfacet
facet normal 0.0 0.0 -1.0
  outer loop
    vertex 63.80571195656238 26.744015515991524 0.0
    vertex 66.9580657904691 40.602864878158016 0.0
    vertex 69.5660662308751 39.097135121843124 0.0
  endloop
endfacet
facet normal 0.0 0.0 -1.0
  outer loop
    vertex 69.5660662308751 39.097135121843124 0.0
    vertex 66.9580657904691 40.602864878158016 0.0
    vertex 75.07709266304482 52.19803692291349 0.0
  endloop
endfacet
facet normal 0.0 0.0 -1.0
  outer loop
    vertex 69.5660662308751 39.097135121843124 0.0
    vertex 75.07709266304482 52.19803692291349 0.0
    vertex 77.38400448837288 50.26230806112234 0.0
  endloop
endfacet
facet normal -0.9063077870366651 0.4226182617406672 0.0
  outer loop
    vertex 58.946606277839045 40.602864878158016 1.2000000000000042
    vertex 52.964406162118266 27.773995330120556 0.0
    vertex 52.964406162118266 27.773995330120556 1.2000000000000042
  endloop
endfacet
facet normal -0.9063077870366651 0.4226182617406672 0.0
  outer loop
    vertex 52.964406162118266 27.773995330120556 0.0
    vertex 58.946606277839045 40.602864878158016 1.2000000000000042
    vertex 58.946606277839045 40.602864878158016 0.0
  endloop
endfacet
facet normal 0.8191520442890121 -0.5735764363510172 0.0
  outer loop
    vertex 69.37254497574283 50.26230806112234 0.0
    vertex 61.55460671824504 39.097135121843124 1.2000000000000042
    vertex 61.55460671824504 39.097135121843124 0.0
  endloop
endfacet
facet normal 0.8191520442890121 -0.5735764363510172 0.0
  outer loop
    vertex 61.55460671824504 39.097135121843124 1.2000000000000042
    vertex 69.37254497574283 50.26230806112234 0.0
    vertex 69.37254497574283 50.26230806112234 1.2000000000000042
  endloop
endfacet
facet normal 0.9659258262890771 -0.258819045102488 0.0
  outer loop
    vertex 55.79425244393232 26.744015515991524 0.0
    vertex 52.266507602549964 13.578292531811725 1.2000000000000042
    vertex 52.266507602549964 13.578292531811725 0.0
  endloop
endfacet
facet normal 0.9659258262890771 -0.258819045102488 0.0
  outer loop
    vertex 52.266507602549964 13.578292531811725 1.2000000000000042
    vertex 55.79425244393232 26.744015515991524 0.0
    vertex 55.79425244393232 26.744015515991524 1.2000000000000042
  endloop
endfacet
facet normal 0.0 0.0 1.0
  outer loop
    vertex 51.07856093597824 1.9827889330414905e-16 1.2000000000000042
    vertex 49.30079892662951 14.101226988297586 1.2000000000000042
    vertex 48.067101423348184 1.9827889330414905e-16 1.2000000000000042
  endloop
endfacet
facet normal 0.0 0.0 1.0
  outer loop
    vertex 49.30079892662951 14.101226988297586 1.2000000000000042
    vertex 51.07856093597824 1.9827889330414905e-16 1.2000000000000042
    vertex 52.964406162118266 27.773995330120556 1.2000000000000042
  endloop
endfacet
facet normal 0.0 0.0 1.0
  outer loop
    vertex 52.964406162118266 27.773995330120556 1.2000000000000042
    vertex 51.07856093597824 1.9827889330414905e-16 1.2000000000000042
    vertex 52.266507602549964 13.578292531811725 1.2000000000000042
  endloop
endfacet
facet normal 0.0 0.0 1.0
  outer loop
    vertex 52.964406162118266 27.773995330120556 1.2000000000000042
    vertex 52.266507602549964 13.578292531811725 1.2000000000000042
    vertex 55.79425244393232 26.744015515991524 1.2000000000000042
  endloop
endfacet
facet normal 0.0 0.0 1.0
  outer loop
    vertex 52.964406162118266 27.773995330120556 1.2000000000000042
    vertex 55.79425244393232 26.744015515991524 1.2000000000000042
    vertex 58.946606277839045 40.602864878158016 1.2000000000000042
  endloop
endfacet
facet normal 0.0 0.0 1.0
  outer loop
    vertex 58.946606277839045 40.602864878158016 1.2000000000000042
    vertex 55.79425244393232 26.744015515991524 1.2000000000000042
    vertex 61.55460671824504 39.097135121843124 1.2000000000000042
  endloop
endfacet
facet normal 0.0 0.0 1.0
  outer loop
    vertex 58.946606277839045 40.602864878158016 1.2000000000000042
    vertex 61.55460671824504 39.097135121843124 1.2000000000000042
    vertex 67.06563315041477 52.19803692291349 1.2000000000000042
  endloop
endfacet
facet normal 0.0 0.0 1.0
  outer loop
    vertex 67.06563315041477 52.19803692291349 1.2000000000000042
    vertex 61.55460671824504 39.097135121843124 1.2000000000000042
    vertex 69.37254497574283 50.26230806112234 1.2000000000000042
  endloop
endfacet
facet normal 0.9063077870366649 -0.42261826174066736 0.0
  outer loop
    vertex 61.55460671824504 39.097135121843124 0.0
    vertex 55.79425244393232 26.744015515991524 1.2000000000000042
    vertex 55.79425244393232 26.744015515991524 0.0
  endloop
endfacet
facet normal 0.9063077870366649 -0.42261826174066736 0.0
  outer loop
    vertex 55.79425244393232 26.744015515991524 1.2000000000000042
    vertex 61.55460671824504 39.097135121843124 0.0
    vertex 61.55460671824504 39.097135121843124 1.2000000000000042
  endloop
endfacet
facet normal -0.996194698091749 0.08715574274762067 0.0
  outer loop
    vertex 49.30079892662951 14.101226988297586 1.2000000000000042
    vertex 48.067101423348184 1.9827889330414905e-16 0.0
    vertex 48.067101423348184 1.9827889330414905e-16 1.2000000000000042
  endloop
endfacet
facet normal -0.996194698091749 0.08715574274762067 0.0
  outer loop
    vertex 48.067101423348184 1.9827889330414905e-16 0.0
    vertex 49.30079892662951 14.101226988297586 1.2000000000000042
    vertex 49.30079892662951 14.101226988297586 0.0
  endloop
endfacet
facet normal -2.1094237467877974e-15 -1.0 0.0
  outer loop
    vertex 51.07856093597824 1.9827889330414905e-16 1.2000000000000042
    vertex 48.067101423348184 1.9827889330414905e-16 0.0
    vertex 51.07856093597824 1.9827889330414905e-16 0.0
  endloop
endfacet
facet normal -2.1094237467877974e-15 -1.0 0.0
  outer loop
    vertex 48.067101423348184 1.9827889330414905e-16 0.0
    vertex 51.07856093597824 1.9827889330414905e-16 1.2000000000000042
    vertex 48.067101423348184 1.9827889330414905e-16 1.2000000000000042
  endloop
endfacet
facet normal 0.996194698091749 -0.08715574274761993 0.0
  outer loop
    vertex 52.266507602549964 13.578292531811725 0.0
    vertex 51.07856093597824 1.9827889330414905e-16 1.2000000000000042
    vertex 51.07856093597824 1.9827889330414905e-16 0.0
  endloop
endfacet
facet normal 0.996194698091749 -0.08715574274761993 0.0
  outer loop
    vertex 51.07856093597824 1.9827889330414905e-16 1.2000000000000042
    vertex 52.266507602549964 13.578292531811725 0.0
    vertex 52.266507602549964 13.578292531811725 1.2000000000000042
  endloop
endfacet
facet normal 0.6427876096865184 0.7660444431189958 0.0
  outer loop
    vertex 67.06563315041477 52.19803692291349 1.2000000000000042
    vertex 69.37254497574283 50.26230806112234 0.0
    vertex 67.06563315041477 52.19803692291349 0.0
  endloop
endfacet
facet normal 0.6427876096865184 0.7660444431189958 0.0
  outer loop
    vertex 69.37254497574283 50.26230806112234 0.0
    vertex 67.06563315041477 52.19803692291349 1.2000000000000042
    vertex 69.37254497574283 50.26230806112234 1.2000000000000042
  endloop
endfacet
facet normal -0.8191520442890121 0.5735764363510171 0.0
  outer loop
    vertex 67.06563315041477 52.19803692291349 1.2000000000000042
    vertex 58.946606277839045 40.602864878158016 0.0
    vertex 58.946606277839045 40.602864878158016 1.2000000000000042
  endloop
endfacet
facet normal -0.8191520442890121 0.5735764363510171 0.0
  outer loop
    vertex 58.946606277839045 40.602864878158016 0.0
    vertex 67.06563315041477 52.19803692291349 1.2000000000000042
    vertex 67.06563315041477 52.19803692291349 0.0
  endloop
endfacet
facet normal -0.9659258262890771 0.258819045102488 0.0
  outer loop
    vertex 52.964406162118266 27.773995330120556 1.2000000000000042
    vertex 49.30079892662951 14.101226988297586 0.0
    vertex 49.30079892662951 14.101226988297586 1.2000000000000042
  endloop
endfacet
facet normal -0.9659258262890771 0.258819045102488 0.0
  outer loop
    vertex 49.30079892662951 14.101226988297586 0.0
    vertex 52.964406162118266 27.773995330120556 1.2000000000000042
    vertex 52.964406162118266 27.773995330120556 0.0
  endloop
endfacet
facet normal 0.0 0.0 -1.0
  outer loop
    vertex 49.30079892662951 14.101226988297586 0.0
    vertex 51.07856093597824 1.9827889330414905e-16 0.0
    vertex 48.067101423348184 1.9827889330414905e-16 0.0
  endloop
endfacet
facet normal 0.0 0.0 -1.0
  outer loop
    vertex 51.07856093597824 1.9827889330414905e-16 0.0
    vertex 49.30079892662951 14.101226988297586 0.0
    vertex 52.964406162118266 27.773995330120556 0.0
  endloop
endfacet
facet normal 0.0 0.0 -1.0
  outer loop
    vertex 51.07856093597824 1.9827889330414905e-16 0.0
    vertex 52.964406162118266 27.773995330120556 0.0
    vertex 52.266507602549964 13.578292531811725 0.0
  endloop
endfacet
facet normal 0.0 0.0 -1.0
  outer loop
    vertex 52.266507602549964 13.578292531811725 0.0
    vertex 52.964406162118266 27.773995330120556 0.0
    vertex 55.79425244393232 26.744015515991524 0.0
  endloop
endfacet
facet normal 0.0 0.0 -1.0
  outer loop
    vertex 55.79425244393232 26.744015515991524 0.0
    vertex 52.964406162118266 27.773995330120556 0.0
    vertex 58.946606277839045 40.602864878158016 0.0
  endloop
endfacet
facet normal 0.0 0.0 -1.0
  outer loop
    vertex 55.79425244393232 26.744015515991524 0.0
    vertex 58.946606277839045 40.602864878158016 0.0
    vertex 61.55460671824504 39.097135121843124 0.0
  endloop
endfacet
facet normal 0.0 0.0 -1.0
  outer loop
    vertex 61.55460671824504 39.097135121843124 0.0
    vertex 58.946606277839045 40.602864878158016 0.0
    vertex 67.06563315041477 52.19803692291349 0.0
  endloop
endfacet
facet normal 0.0 0.0 -1.0
  outer loop
    vertex 61.55460671824504 39.097135121843124 0.0
    vertex 67.06563315041477 52.19803692291349 0.0
    vertex 69.37254497574283 50.26230806112234 0.0
  endloop
endfacet
endsolid Untitled-592d55fa
