solid Untitled-592d5627
facet normal 0.7660444431189765 -0.642787609686541 0.0
  outer loop
    vertex 64.59246735169692 40.34152135243385 0.0
    vertex 61.06304156396989 36.13531549011552 1.2000000000000006
    vertex 61.06304156396989 36.13531549011552 0.0
  endloop
endfacet
facet normal 0.7660444431189765 -0.642787609686541 0.0
  outer loop
    vertex 61.06304156396989 36.13531549011552 1.2000000000000006
    vertex 64.59246735169692 40.34152135243385 0.0
    vertex 64.59246735169692 40.34152135243385 1.2000000000000006
  endloop
endfacet
facet normal 0.7660444431189765 -0.642787609686541 0.0
  outer loop
    vertex 64.59246735169692 40.34152135243385 1.2000000000000006
    vertex 64.59246735169692 40.34152135243385 0.0
    vertex 68.12189313942389 44.54772721475208 0.0
  endloop
endfacet
facet normal 0.7660444431189765 -0.642787609686541 0.0
  outer loop
    vertex 64.59246735169692 40.34152135243385 1.2000000000000006
    vertex 68.12189313942389 44.54772721475208 0.0
    vertex 68.12189313942389 44.54772721475208 1.2000000000000006
  endloop
endfacet
facet normal -8.104628079763644e-15 -1.0 4.248129251588121e-15
  outer loop
    vertex 49.90935437439643 5.490811793102116 2.4000000000000012
    vertex 34.772902916264265 5.490811793102229 1.2000000000000006
    vertex 49.90935437439643 5.490811793102116 1.2000000000000006
  endloop
endfacet
facet normal -8.104628079763644e-15 -1.0 4.248129251588121e-15
  outer loop
    vertex 34.772902916264265 5.490811793102229 1.2000000000000006
    vertex 49.90935437439643 5.490811793102116 2.4000000000000012
    vertex 34.77290291626425 5.490811793102241 2.400000000000005
  endloop
endfacet
facet normal -0.3420201433256732 -0.9396926207859069 3.730580659203992e-15
  outer loop
    vertex 55.57222977086743 26.624950489663732 2.4000000000000012
    vertex 41.34861803077654 31.8019217868162 1.2000000000000006
    vertex 55.57222977086743 26.624950489663732 1.2000000000000006
  endloop
endfacet
facet normal -0.3420201433256732 -0.9396926207859069 3.730580659203992e-15
  outer loop
    vertex 41.34861803077654 31.8019217868162 1.2000000000000006
    vertex 55.57222977086743 26.624950489663732 2.4000000000000012
    vertex 41.348618030776535 31.801921786816212 2.4000000000000012
  endloop
endfacet
facet normal 0.9848077530122084 -0.17364817766692855 0.0
  outer loop
    vertex 50.862823836180766 10.898205817280337 0.0
    vertex 49.90935437439643 5.490811793102116 1.2000000000000006
    vertex 49.90935437439643 5.490811793102116 0.0
  endloop
endfacet
facet normal 0.9848077530122084 -0.17364817766692855 0.0
  outer loop
    vertex 49.90935437439643 5.490811793102116 1.2000000000000006
    vertex 50.862823836180766 10.898205817280337 0.0
    vertex 50.862823836180766 10.898205817280337 1.2000000000000006
  endloop
endfacet
facet normal 0.9848077530122084 -0.17364817766692855 0.0
  outer loop
    vertex 50.862823836180766 10.898205817280337 1.2000000000000006
    vertex 50.862823836180766 10.898205817280337 0.0
    vertex 51.81629329796508 16.305599841458484 0.0
  endloop
endfacet
facet normal 0.9848077530122084 -0.17364817766692855 0.0
  outer loop
    vertex 50.862823836180766 10.898205817280337 1.2000000000000006
    vertex 51.81629329796508 16.305599841458484 0.0
    vertex 51.81629329796508 16.305599841458484 1.2000000000000006
  endloop
endfacet
facet normal 1.0 4.551914400963142e-15 0.0
  outer loop
    vertex 49.90935437439643 5.490811793102116 0.0
    vertex 49.90935437439644 -3.4121594438829557e-13 1.2000000000000006
    vertex 49.90935437439644 -3.4121594438829557e-13 0.0
  endloop
endfacet
facet normal 1.0 4.551914400963142e-15 0.0
  outer loop
    vertex 49.90935437439644 -3.4121594438829557e-13 1.2000000000000006
    vertex 49.90935437439643 5.490811793102116 0.0
    vertex 49.90935437439643 5.490811793102116 1.2000000000000006
  endloop
endfacet
facet normal -0.5000000000000062 -0.8660254037844352 -1.2027527528420285e-17
  outer loop
    vertex 23.745029479370448 57.68087981278099 2.400000000000003
    vertex 17.840272789262556 61.08999267731404 1.2000000000000006
    vertex 23.745029479370448 57.68087981278099 1.2
  endloop
endfacet
facet normal -0.5000000000000062 -0.8660254037844352 -1.2027527528420285e-17
  outer loop
    vertex 17.840272789262556 61.08999267731404 1.2000000000000006
    vertex 23.745029479370448 57.68087981278099 2.400000000000003
    vertex 17.840272789262556 61.08999267731404 2.4000000000000012
  endloop
endfacet
facet normal 0.8660254037844384 -0.5000000000000006 0.0
  outer loop
    vertex 58.317635667418664 31.380132989889624 0.0
    vertex 55.57222977086743 26.624950489663732 1.2000000000000006
    vertex 55.57222977086743 26.624950489663732 0.0
  endloop
endfacet
facet normal 0.8660254037844384 -0.5000000000000006 0.0
  outer loop
    vertex 55.57222977086743 26.624950489663732 1.2000000000000006
    vertex 58.317635667418664 31.380132989889624 0.0
    vertex 58.317635667418664 31.380132989889624 1.2000000000000006
  endloop
endfacet
facet normal 0.8660254037844384 -0.5000000000000006 0.0
  outer loop
    vertex 58.317635667418664 31.380132989889624 1.2000000000000006
    vertex 58.317635667418664 31.380132989889624 0.0
    vertex 61.06304156396989 36.13531549011552 0.0
  endloop
endfacet
facet normal 0.8660254037844384 -0.5000000000000006 0.0
  outer loop
    vertex 58.317635667418664 31.380132989889624 1.2000000000000006
    vertex 61.06304156396989 36.13531549011552 0.0
    vertex 61.06304156396989 36.13531549011552 1.2000000000000006
  endloop
endfacet
facet normal 0.6427876096865481 0.7660444431189707 -4.446028009701804e-18
  outer loop
    vertex 22.83025798580766 68.21643008943252 2.4000000000000012
    vertex 28.053321917489523 63.83375907074282 1.2000000000000006
    vertex 22.83025798580766 68.21643008943252 1.2000000000000006
  endloop
endfacet
facet normal 0.6427876096865481 0.7660444431189707 -4.446028009701804e-18
  outer loop
    vertex 28.053321917489523 63.83375907074282 1.2000000000000006
    vertex 22.83025798580766 68.21643008943252 2.4000000000000012
    vertex 28.053321917489523 63.83375907074282 2.400000000000003
  endloop
endfacet
facet normal -6.4392935428259095e-15 -1.0 0.0
  outer loop
    vertex 49.90935437439644 -3.4121594438829557e-13 1.2000000000000006
    vertex 0.0 0.0 0.0
    vertex 49.90935437439644 -3.4121594438829557e-13 0.0
  endloop
endfacet
facet normal -6.4392935428259095e-15 -1.0 0.0
  outer loop
    vertex 0.0 0.0 0.0
    vertex 49.90935437439644 -3.4121594438829557e-13 1.2000000000000006
    vertex 0.0 0.0 1.2000000000000006
  endloop
endfacet
facet normal -0.6427876096865437 -0.7660444431189743 0.0
  outer loop
    vertex 68.12189313942389 44.54772721475208 2.4000000000000012
    vertex 37.41030682230053 70.31780796631978 1.2000000000000006
    vertex 68.12189313942389 44.54772721475208 1.2000000000000006
  endloop
endfacet
facet normal -0.6427876096865437 -0.7660444431189743 0.0
  outer loop
    vertex 37.41030682230053 70.31780796631978 1.2000000000000006
    vertex 68.12189313942389 44.54772721475208 2.4000000000000012
    vertex 37.41030682230053 70.31780796631978 2.4000000000000012
  endloop
endfacet
facet normal 0.34202014332567765 0.9396926207859052 0.0
  outer loop
    vertex 37.59268155787422 21.482571138611014 2.4000000000000012
    vertex 51.81629329796508 16.305599841458484 1.2000000000000006
    vertex 37.59268155787422 21.482571138611014 1.2000000000000006
  endloop
endfacet
facet normal 0.34202014332567765 0.9396926207859052 0.0
  outer loop
    vertex 51.81629329796508 16.305599841458484 1.2000000000000006
    vertex 37.59268155787422 21.482571138611014 2.4000000000000012
    vertex 51.81629329796508 16.305599841458484 2.4000000000000012
  endloop
endfacet
facet normal -2.0957371186422743e-16 1.467450928579246e-16 1.0
  outer loop
    vertex 23.745029479370448 57.68087981278099 2.400000000000003
    vertex 20.023524145091407 64.87149495130325 2.4000000000000012
    vertex 17.840272789262556 61.08999267731404 2.4000000000000012
  endloop
endfacet
facet normal -2.0957371186422743e-16 1.467450928579246e-16 1.0
  outer loop
    vertex 20.023524145091407 64.87149495130325 2.4000000000000012
    vertex 23.745029479370448 57.68087981278099 2.400000000000003
    vertex 22.83025798580766 68.21643008943252 2.4000000000000012
  endloop
endfacet
facet normal -2.0957371186422743e-16 1.467450928579246e-16 1.0
  outer loop
    vertex 22.83025798580766 68.21643008943252 2.4000000000000012
    vertex 23.745029479370448 57.68087981278099 2.400000000000003
    vertex 25.630022106872293 60.94578281550685 2.4000000000000012
  endloop
endfacet
facet normal -2.0957371186422743e-16 1.467450928579246e-16 1.0
  outer loop
    vertex 22.83025798580766 68.21643008943252 2.4000000000000012
    vertex 25.630022106872293 60.94578281550685 2.4000000000000012
    vertex 28.053321917489523 63.83375907074282 2.400000000000003
  endloop
endfacet
facet normal -0.9848077530122085 0.17364817766692892 1.9156068801666844e-16
  outer loop
    vertex 3.4234094008827682 29.272434001095107 2.4000000000000012
    vertex 2.6651741622256817 24.97226827710583 1.2000000000000006
    vertex 2.6651741622256817 24.97226827710583 2.4000000000000012
  endloop
endfacet
facet normal -0.9848077530122085 0.17364817766692892 1.9156068801666844e-16
  outer loop
    vertex 2.6651741622256817 24.97226827710583 1.2000000000000006
    vertex 3.4234094008827682 29.272434001095107 2.4000000000000012
    vertex 2.6651741622256817 24.97226827710583 0.0
  endloop
endfacet
facet normal -0.9848077530122085 0.17364817766692892 1.9156068801666844e-16
  outer loop
    vertex 2.6651741622256817 24.97226827710583 0.0
    vertex 3.4234094008827682 29.272434001095107 2.4000000000000012
    vertex 3.4234094008827682 29.272434001095107 -2.8199664825478977e-16
  endloop
endfacet
facet normal -0.9848077530122085 0.17364817766692892 1.9156068801666844e-16
  outer loop
    vertex 0.7582352386570753 14.15748022874944 2.4000000000000012
    vertex -2.255973186038318e-14 9.857314504760135 -2.8199664825478977e-16
    vertex -2.255973186038318e-14 9.857314504760135 2.4000000000000012
  endloop
endfacet
facet normal -0.9848077530122085 0.17364817766692892 1.9156068801666844e-16
  outer loop
    vertex -2.255973186038318e-14 9.857314504760135 -2.8199664825478977e-16
    vertex 0.7582352386570753 14.15748022874944 2.4000000000000012
    vertex 0.7582352386570753 14.15748022874944 0.0
  endloop
endfacet
facet normal -0.9848077530122085 0.17364817766692892 1.9156068801666844e-16
  outer loop
    vertex 0.7582352386570753 14.15748022874944 0.0
    vertex 0.7582352386570753 14.15748022874944 2.4000000000000012
    vertex 0.7582352386570753 14.15748022874944 1.2000000000000006
  endloop
endfacet
facet normal -0.9848077530122085 0.17364817766692892 1.9156068801666844e-16
  outer loop
    vertex 0.7582352386570753 14.15748022874944 0.0
    vertex 0.7582352386570753 14.15748022874944 1.2000000000000006
    vertex 1.7117047004413686 19.56487425292763 1.2000000000000006
  endloop
endfacet
facet normal -0.9848077530122085 0.17364817766692892 1.9156068801666844e-16
  outer loop
    vertex 0.7582352386570753 14.15748022874944 0.0
    vertex 1.7117047004413686 19.56487425292763 1.2000000000000006
    vertex 1.7117047004413686 19.56487425292763 0.0
  endloop
endfacet
facet normal -0.9848077530122085 0.17364817766692892 1.9156068801666844e-16
  outer loop
    vertex 1.7117047004413686 19.56487425292763 0.0
    vertex 1.7117047004413686 19.56487425292763 1.2000000000000006
    vertex 2.6651741622256817 24.97226827710583 1.2000000000000006
  endloop
endfacet
facet normal -0.9848077530122085 0.17364817766692892 1.9156068801666844e-16
  outer loop
    vertex 1.7117047004413686 19.56487425292763 0.0
    vertex 2.6651741622256817 24.97226827710583 1.2000000000000006
    vertex 2.6651741622256817 24.97226827710583 0.0
  endloop
endfacet
facet normal -0.17364817766693746 -0.9848077530122069 -4.550704951255634e-15
  outer loop
    vertex 51.81629329796508 16.305599841458484 1.2000000000000006
    vertex 36.909798548903574 18.934017053507198 2.4000000000000012
    vertex 36.90979854890356 18.93401705350721 1.2
  endloop
endfacet
facet normal -0.17364817766693746 -0.9848077530122069 -4.550704951255634e-15
  outer loop
    vertex 36.909798548903574 18.934017053507198 2.4000000000000012
    vertex 51.81629329796508 16.305599841458484 1.2000000000000006
    vertex 51.81629329796508 16.305599841458484 2.4000000000000012
  endloop
endfacet
facet normal -0.9396926207859085 0.3420201433256684 -1.9663276360358215e-15
  outer loop
    vertex 10.16620964033125 47.798125402873076 2.4000000000000012
    vertex 8.672777757058151 43.69495502608669 1.2000000000000006
    vertex 8.672777757058151 43.69495502608669 2.4000000000000012
  endloop
endfacet
facet normal -0.9396926207859085 0.3420201433256684 -1.9663276360358215e-15
  outer loop
    vertex 8.672777757058151 43.69495502608669 1.2000000000000006
    vertex 10.16620964033125 47.798125402873076 2.4000000000000012
    vertex 8.672777757058151 43.69495502608669 0.0
  endloop
endfacet
facet normal -0.9396926207859085 0.3420201433256684 -1.9663276360358215e-15
  outer loop
    vertex 8.672777757058151 43.69495502608669 0.0
    vertex 10.16620964033125 47.798125402873076 2.4000000000000012
    vertex 10.16620964033125 47.798125402873076 -2.8199664825478977e-16
  endloop
endfacet
facet normal -0.9396926207859085 0.3420201433256684 -1.9663276360358215e-15
  outer loop
    vertex 4.916841284155821 33.37560437788147 2.4000000000000012
    vertex 3.4234094008827682 29.272434001095107 -2.8199664825478977e-16
    vertex 3.4234094008827682 29.272434001095107 2.4000000000000012
  endloop
endfacet
facet normal -0.9396926207859085 0.3420201433256684 -1.9663276360358215e-15
  outer loop
    vertex 3.4234094008827682 29.272434001095107 -2.8199664825478977e-16
    vertex 4.916841284155821 33.37560437788147 2.4000000000000012
    vertex 4.916841284155821 33.37560437788147 0.0
  endloop
endfacet
facet normal -0.9396926207859085 0.3420201433256684 -1.9663276360358215e-15
  outer loop
    vertex 4.916841284155821 33.37560437788147 0.0
    vertex 4.916841284155821 33.37560437788147 2.4000000000000012
    vertex 4.916841284155821 33.37560437788147 1.2000000000000006
  endloop
endfacet
facet normal -0.9396926207859085 0.3420201433256684 -1.9663276360358215e-15
  outer loop
    vertex 4.916841284155821 33.37560437788147 0.0
    vertex 4.916841284155821 33.37560437788147 1.2000000000000006
    vertex 6.794809520607028 38.535279701984095 1.2000000000000006
  endloop
endfacet
facet normal -0.9396926207859085 0.3420201433256684 -1.9663276360358215e-15
  outer loop
    vertex 4.916841284155821 33.37560437788147 0.0
    vertex 6.794809520607028 38.535279701984095 1.2000000000000006
    vertex 6.794809520607028 38.535279701984095 0.0
  endloop
endfacet
facet normal -0.9396926207859085 0.3420201433256684 -1.9663276360358215e-15
  outer loop
    vertex 6.794809520607028 38.535279701984095 0.0
    vertex 6.794809520607028 38.535279701984095 1.2000000000000006
    vertex 8.672777757058151 43.69495502608669 1.2000000000000006
  endloop
endfacet
facet normal -0.9396926207859085 0.3420201433256684 -1.9663276360358215e-15
  outer loop
    vertex 6.794809520607028 38.535279701984095 0.0
    vertex 8.672777757058151 43.69495502608669 1.2000000000000006
    vertex 8.672777757058151 43.69495502608669 0.0
  endloop
endfacet
facet normal 1.28860694891549e-18 -6.008872886310415e-19 -1.0
  outer loop
    vertex 40.24698440242545 86.30993658064152 0.0
    vertex 51.81629329796508 16.305599841458484 0.0
    vertex 49.90935437439643 5.490811793102116 0.0
  endloop
endfacet
facet normal 1.28860694891549e-18 -6.008872886310415e-19 -1.0
  outer loop
    vertex 51.81629329796508 16.305599841458484 0.0
    vertex 40.24698440242545 86.30993658064152 0.0
    vertex 53.694261534416235 21.465275165561078 0.0
  endloop
endfacet
facet normal 1.28860694891549e-18 -6.008872886310415e-19 -1.0
  outer loop
    vertex 53.694261534416235 21.465275165561078 0.0
    vertex 40.24698440242545 86.30993658064152 0.0
    vertex 55.57222977086743 26.624950489663732 0.0
  endloop
endfacet
facet normal 1.28860694891549e-18 -6.008872886310415e-19 -1.0
  outer loop
    vertex 55.57222977086743 26.624950489663732 0.0
    vertex 40.24698440242545 86.30993658064152 0.0
    vertex 61.06304156396989 36.13531549011552 0.0
  endloop
endfacet
facet normal 1.28860694891549e-18 -6.008872886310415e-19 -1.0
  outer loop
    vertex 61.06304156396989 36.13531549011552 0.0
    vertex 40.24698440242545 86.30993658064152 0.0
    vertex 64.59246735169692 40.34152135243385 0.0
  endloop
endfacet
facet normal 1.28860694891549e-18 -6.008872886310415e-19 -1.0
  outer loop
    vertex 64.59246735169692 40.34152135243385 0.0
    vertex 40.24698440242545 86.30993658064152 0.0
    vertex 68.12189313942389 44.54772721475208 0.0
  endloop
endfacet
facet normal 1.28860694891549e-18 -6.008872886310415e-19 -1.0
  outer loop
    vertex 68.12189313942389 44.54772721475208 0.0
    vertex 40.24698440242545 86.30993658064152 0.0
    vertex 72.32809900174216 48.077153002479015 0.0
  endloop
endfacet
facet normal 1.28860694891549e-18 -6.008872886310415e-19 -1.0
  outer loop
    vertex 49.90935437439643 5.490811793102116 0.0
    vertex 51.81629329796508 16.305599841458484 0.0
    vertex 50.862823836180766 10.898205817280337 0.0
  endloop
endfacet
facet normal 1.28860694891549e-18 -6.008872886310415e-19 -1.0
  outer loop
    vertex 55.57222977086743 26.624950489663732 0.0
    vertex 61.06304156396989 36.13531549011552 0.0
    vertex 58.317635667418664 31.380132989889624 0.0
  endloop
endfacet
facet normal 1.28860694891549e-18 -6.008872886310415e-19 -1.0
  outer loop
    vertex 0.7582352386570753 14.15748022874944 0.0
    vertex -1.6919798895287383e-14 5.490811793102472 0.0
    vertex -2.255973186038318e-14 9.857314504760135 -2.8199664825478977e-16
  endloop
endfacet
facet normal 1.28860694891549e-18 -6.008872886310415e-19 -1.0
  outer loop
    vertex -1.6919798895287383e-14 5.490811793102472 0.0
    vertex 0.7582352386570753 14.15748022874944 0.0
    vertex 0.0 0.0 0.0
  endloop
endfacet
facet normal 1.28860694891549e-18 -6.008872886310415e-19 -1.0
  outer loop
    vertex 0.0 0.0 0.0
    vertex 0.7582352386570753 14.15748022874944 0.0
    vertex 49.90935437439644 -3.4121594438829557e-13 0.0
  endloop
endfacet
facet normal 1.28860694891549e-18 -6.008872886310415e-19 -1.0
  outer loop
    vertex 49.90935437439644 -3.4121594438829557e-13 0.0
    vertex 0.7582352386570753 14.15748022874944 0.0
    vertex 1.7117047004413686 19.56487425292763 0.0
  endloop
endfacet
facet normal 1.28860694891549e-18 -6.008872886310415e-19 -1.0
  outer loop
    vertex 49.90935437439644 -3.4121594438829557e-13 0.0
    vertex 1.7117047004413686 19.56487425292763 0.0
    vertex 2.6651741622256817 24.97226827710583 0.0
  endloop
endfacet
facet normal 1.28860694891549e-18 -6.008872886310415e-19 -1.0
  outer loop
    vertex 49.90935437439644 -3.4121594438829557e-13 0.0
    vertex 2.6651741622256817 24.97226827710583 0.0
    vertex 3.4234094008827682 29.272434001095107 -2.8199664825478977e-16
  endloop
endfacet
facet normal 1.28860694891549e-18 -6.008872886310415e-19 -1.0
  outer loop
    vertex 49.90935437439644 -3.4121594438829557e-13 0.0
    vertex 3.4234094008827682 29.272434001095107 -2.8199664825478977e-16
    vertex 4.916841284155821 33.37560437788147 0.0
  endloop
endfacet
facet normal 1.28860694891549e-18 -6.008872886310415e-19 -1.0
  outer loop
    vertex 49.90935437439644 -3.4121594438829557e-13 0.0
    vertex 4.916841284155821 33.37560437788147 0.0
    vertex 6.794809520607028 38.535279701984095 0.0
  endloop
endfacet
facet normal 1.28860694891549e-18 -6.008872886310415e-19 -1.0
  outer loop
    vertex 49.90935437439644 -3.4121594438829557e-13 0.0
    vertex 6.794809520607028 38.535279701984095 0.0
    vertex 8.672777757058151 43.69495502608669 0.0
  endloop
endfacet
facet normal 1.28860694891549e-18 -6.008872886310415e-19 -1.0
  outer loop
    vertex 49.90935437439644 -3.4121594438829557e-13 0.0
    vertex 8.672777757058151 43.69495502608669 0.0
    vertex 10.16620964033125 47.798125402873076 -2.8199664825478977e-16
  endloop
endfacet
facet normal 1.28860694891549e-18 -6.008872886310415e-19 -1.0
  outer loop
    vertex 49.90935437439644 -3.4121594438829557e-13 0.0
    vertex 10.16620964033125 47.798125402873076 -2.8199664825478977e-16
    vertex 12.349460996160072 51.57962767686226 0.0
  endloop
endfacet
facet normal 1.28860694891549e-18 -6.008872886310415e-19 -1.0
  outer loop
    vertex 49.90935437439644 -3.4121594438829557e-13 0.0
    vertex 12.349460996160072 51.57962767686226 0.0
    vertex 15.094866892711348 56.334810177088144 0.0
  endloop
endfacet
facet normal 1.28860694891549e-18 -6.008872886310415e-19 -1.0
  outer loop
    vertex 49.90935437439644 -3.4121594438829557e-13 0.0
    vertex 15.094866892711348 56.334810177088144 0.0
    vertex 17.840272789262556 61.08999267731404 0.0
  endloop
endfacet
facet normal 1.28860694891549e-18 -6.008872886310415e-19 -1.0
  outer loop
    vertex 49.90935437439644 -3.4121594438829557e-13 0.0
    vertex 17.840272789262556 61.08999267731404 0.0
    vertex 20.023524145091407 64.87149495130325 -2.8199664825478977e-16
  endloop
endfacet
facet normal 1.28860694891549e-18 -6.008872886310415e-19 -1.0
  outer loop
    vertex 49.90935437439644 -3.4121594438829557e-13 0.0
    vertex 20.023524145091407 64.87149495130325 -2.8199664825478977e-16
    vertex 22.83025798580766 68.21643008943252 0.0
  endloop
endfacet
facet normal 1.28860694891549e-18 -6.008872886310415e-19 -1.0
  outer loop
    vertex 49.90935437439644 -3.4121594438829557e-13 0.0
    vertex 22.83025798580766 68.21643008943252 0.0
    vertex 26.359683773534652 72.42263595175079 0.0
  endloop
endfacet
facet normal 1.28860694891549e-18 -6.008872886310415e-19 -1.0
  outer loop
    vertex 49.90935437439644 -3.4121594438829557e-13 0.0
    vertex 26.359683773534652 72.42263595175079 0.0
    vertex 29.889109561261638 76.6288418140691 0.0
  endloop
endfacet
facet normal 1.28860694891549e-18 -6.008872886310415e-19 -1.0
  outer loop
    vertex 49.90935437439644 -3.4121594438829557e-13 0.0
    vertex 29.889109561261638 76.6288418140691 0.0
    vertex 32.69584340197785 79.97377695219835 -2.8199664825478977e-16
  endloop
endfacet
facet normal 1.28860694891549e-18 -6.008872886310415e-19 -1.0
  outer loop
    vertex 49.90935437439644 -3.4121594438829557e-13 0.0
    vertex 32.69584340197785 79.97377695219835 -2.8199664825478977e-16
    vertex 36.040778540107176 82.78051079291457 0.0
  endloop
endfacet
facet normal 1.28860694891549e-18 -6.008872886310415e-19 -1.0
  outer loop
    vertex 49.90935437439644 -3.4121594438829557e-13 0.0
    vertex 36.040778540107176 82.78051079291457 0.0
    vertex 40.24698440242545 86.30993658064152 0.0
  endloop
endfacet
facet normal 1.28860694891549e-18 -6.008872886310415e-19 -1.0
  outer loop
    vertex 49.90935437439644 -3.4121594438829557e-13 0.0
    vertex 40.24698440242545 86.30993658064152 0.0
    vertex 49.90935437439643 5.490811793102116 0.0
  endloop
endfacet
facet normal 0.9396926207859081 -0.3420201433256697 0.0
  outer loop
    vertex 53.694261534416235 21.465275165561078 0.0
    vertex 51.81629329796508 16.305599841458484 1.2000000000000006
    vertex 51.81629329796508 16.305599841458484 0.0
  endloop
endfacet
facet normal 0.9396926207859081 -0.3420201433256697 0.0
  outer loop
    vertex 51.81629329796508 16.305599841458484 1.2000000000000006
    vertex 53.694261534416235 21.465275165561078 0.0
    vertex 53.694261534416235 21.465275165561078 1.2000000000000006
  endloop
endfacet
facet normal 0.9396926207859081 -0.3420201433256697 0.0
  outer loop
    vertex 53.694261534416235 21.465275165561078 1.2000000000000006
    vertex 53.694261534416235 21.465275165561078 0.0
    vertex 55.57222977086743 26.624950489663732 0.0
  endloop
endfacet
facet normal 0.9396926207859081 -0.3420201433256697 0.0
  outer loop
    vertex 53.694261534416235 21.465275165561078 1.2000000000000006
    vertex 55.57222977086743 26.624950489663732 0.0
    vertex 55.57222977086743 26.624950489663732 1.2000000000000006
  endloop
endfacet
facet normal 0.17364817766693758 0.9848077530122068 -2.254624520727623e-16
  outer loop
    vertex 35.00285962533492 8.11922900515083 2.4000000000000012
    vertex 49.90935437439643 5.490811793102116 1.2000000000000006
    vertex 35.002859625334914 8.119229005150835 1.2
  endloop
endfacet
facet normal 0.17364817766693758 0.9848077530122068 -2.254624520727623e-16
  outer loop
    vertex 49.90935437439643 5.490811793102116 1.2000000000000006
    vertex 35.00285962533492 8.11922900515083 2.4000000000000012
    vertex 49.90935437439643 5.490811793102116 2.4000000000000012
  endloop
endfacet
facet normal -0.8660254037844374 0.5000000000000023 -1.823527469295204e-15
  outer loop
    vertex 20.023524145091407 64.87149495130325 2.4000000000000012
    vertex 17.840272789262556 61.08999267731404 1.2000000000000006
    vertex 17.840272789262556 61.08999267731404 2.4000000000000012
  endloop
endfacet
facet normal -0.8660254037844374 0.5000000000000023 -1.823527469295204e-15
  outer loop
    vertex 17.840272789262556 61.08999267731404 1.2000000000000006
    vertex 20.023524145091407 64.87149495130325 2.4000000000000012
    vertex 17.840272789262556 61.08999267731404 0.0
  endloop
endfacet
facet normal -0.8660254037844374 0.5000000000000023 -1.823527469295204e-15
  outer loop
    vertex 17.840272789262556 61.08999267731404 0.0
    vertex 20.023524145091407 64.87149495130325 2.4000000000000012
    vertex 20.023524145091407 64.87149495130325 -2.8199664825478977e-16
  endloop
endfacet
facet normal -0.8660254037844374 0.5000000000000023 -1.823527469295204e-15
  outer loop
    vertex 12.349460996160072 51.57962767686226 2.4000000000000012
    vertex 10.16620964033125 47.798125402873076 -2.8199664825478977e-16
    vertex 10.16620964033125 47.798125402873076 2.4000000000000012
  endloop
endfacet
facet normal -0.8660254037844374 0.5000000000000023 -1.823527469295204e-15
  outer loop
    vertex 10.16620964033125 47.798125402873076 -2.8199664825478977e-16
    vertex 12.349460996160072 51.57962767686226 2.4000000000000012
    vertex 12.349460996160072 51.57962767686226 0.0
  endloop
endfacet
facet normal -0.8660254037844374 0.5000000000000023 -1.823527469295204e-15
  outer loop
    vertex 12.349460996160072 51.57962767686226 0.0
    vertex 12.349460996160072 51.57962767686226 2.4000000000000012
    vertex 12.349460996160072 51.57962767686226 1.2000000000000006
  endloop
endfacet
facet normal -0.8660254037844374 0.5000000000000023 -1.823527469295204e-15
  outer loop
    vertex 12.349460996160072 51.57962767686226 0.0
    vertex 12.349460996160072 51.57962767686226 1.2000000000000006
    vertex 15.094866892711348 56.334810177088144 1.2000000000000006
  endloop
endfacet
facet normal -0.8660254037844374 0.5000000000000023 -1.823527469295204e-15
  outer loop
    vertex 12.349460996160072 51.57962767686226 0.0
    vertex 15.094866892711348 56.334810177088144 1.2000000000000006
    vertex 15.094866892711348 56.334810177088144 0.0
  endloop
endfacet
facet normal -0.8660254037844374 0.5000000000000023 -1.823527469295204e-15
  outer loop
    vertex 15.094866892711348 56.334810177088144 0.0
    vertex 15.094866892711348 56.334810177088144 1.2000000000000006
    vertex 17.840272789262556 61.08999267731404 1.2000000000000006
  endloop
endfacet
facet normal -0.8660254037844374 0.5000000000000023 -1.823527469295204e-15
  outer loop
    vertex 15.094866892711348 56.334810177088144 0.0
    vertex 17.840272789262556 61.08999267731404 1.2000000000000006
    vertex 17.840272789262556 61.08999267731404 0.0
  endloop
endfacet
facet normal 0.7660444431189802 0.642787609686537 0.0
  outer loop
    vertex 40.24698440242545 86.30993658064152 0.0
    vertex 72.32809900174216 48.077153002479015 1.2000000000000006
    vertex 72.32809900174216 48.077153002479015 0.0
  endloop
endfacet
facet normal 0.7660444431189802 0.642787609686537 0.0
  outer loop
    vertex 72.32809900174216 48.077153002479015 1.2000000000000006
    vertex 40.24698440242545 86.30993658064152 0.0
    vertex 40.24698440242545 86.30993658064152 1.2000000000000006
  endloop
endfacet
facet normal 0.0 0.0 1.0
  outer loop
    vertex 51.81629329796508 16.305599841458484 2.4000000000000012
    vertex 37.139755257974194 20.238166356958622 2.4000000000000012
    vertex 36.909798548903574 18.934017053507198 2.4000000000000012
  endloop
endfacet
facet normal 0.0 0.0 1.0
  outer loop
    vertex 37.139755257974194 20.238166356958622 2.4000000000000012
    vertex 51.81629329796508 16.305599841458484 2.4000000000000012
    vertex 37.59268155787422 21.482571138611014 2.4000000000000012
  endloop
endfacet
facet normal -1.0 -2.775557561562892e-15 1.4966052088087293e-16
  outer loop
    vertex -2.255973186038318e-14 9.857314504760135 2.4000000000000012
    vertex -1.6919798895287383e-14 5.490811793102472 1.2000000000000006
    vertex -1.6919798895287383e-14 5.490811793102472 2.4000000000000012
  endloop
endfacet
facet normal -1.0 -2.775557561562892e-15 1.4966052088087293e-16
  outer loop
    vertex -1.6919798895287383e-14 5.490811793102472 1.2000000000000006
    vertex -2.255973186038318e-14 9.857314504760135 2.4000000000000012
    vertex -1.6919798895287383e-14 5.490811793102472 0.0
  endloop
endfacet
facet normal -1.0 -2.775557561562892e-15 1.4966052088087293e-16
  outer loop
    vertex -1.6919798895287383e-14 5.490811793102472 0.0
    vertex -2.255973186038318e-14 9.857314504760135 2.4000000000000012
    vertex -2.255973186038318e-14 9.857314504760135 -2.8199664825478977e-16
  endloop
endfacet
facet normal -1.0 -2.775557561562892e-15 1.4966052088087293e-16
  outer loop
    vertex -1.6919798895287383e-14 5.490811793102472 1.2000000000000006
    vertex 0.0 0.0 0.0
    vertex 0.0 0.0 1.2000000000000006
  endloop
endfacet
facet normal -1.0 -2.775557561562892e-15 1.4966052088087293e-16
  outer loop
    vertex 0.0 0.0 0.0
    vertex -1.6919798895287383e-14 5.490811793102472 1.2000000000000006
    vertex -1.6919798895287383e-14 5.490811793102472 0.0
  endloop
endfacet
facet normal -0.6427876096865361 0.7660444431189808 0.0
  outer loop
    vertex 40.24698440242545 86.30993658064152 1.2000000000000006
    vertex 40.24698440242545 86.30993658064152 0.0
    vertex 36.040778540107176 82.78051079291457 1.2000000000000006
  endloop
endfacet
facet normal -0.6427876096865361 0.7660444431189808 0.0
  outer loop
    vertex 32.69584340197785 79.97377695219835 2.4000000000000012
    vertex 36.040778540107176 82.78051079291457 0.0
    vertex 32.69584340197785 79.97377695219835 -2.8199664825478977e-16
  endloop
endfacet
facet normal -0.6427876096865361 0.7660444431189808 0.0
  outer loop
    vertex 36.040778540107176 82.78051079291457 0.0
    vertex 32.69584340197785 79.97377695219835 2.4000000000000012
    vertex 36.040778540107176 82.78051079291457 1.2000000000000006
  endloop
endfacet
facet normal -0.6427876096865361 0.7660444431189808 0.0
  outer loop
    vertex 36.040778540107176 82.78051079291457 0.0
    vertex 36.040778540107176 82.78051079291457 1.2000000000000006
    vertex 40.24698440242545 86.30993658064152 0.0
  endloop
endfacet
facet normal -0.6427876096865361 0.7660444431189808 0.0
  outer loop
    vertex 36.040778540107176 82.78051079291457 1.2000000000000006
    vertex 32.69584340197785 79.97377695219835 2.4000000000000012
    vertex 36.040778540107176 82.78051079291457 2.4000000000000012
  endloop
endfacet
facet normal -0.7660444431189765 0.642787609686541 4.574258651927109e-16
  outer loop
    vertex 32.69584340197785 79.97377695219835 2.4000000000000012
    vertex 29.889109561261638 76.6288418140691 1.2000000000000006
    vertex 29.889109561261638 76.6288418140691 2.4000000000000012
  endloop
endfacet
facet normal -0.7660444431189765 0.642787609686541 4.574258651927109e-16
  outer loop
    vertex 29.889109561261638 76.6288418140691 1.2000000000000006
    vertex 32.69584340197785 79.97377695219835 2.4000000000000012
    vertex 29.889109561261638 76.6288418140691 0.0
  endloop
endfacet
facet normal -0.7660444431189765 0.642787609686541 4.574258651927109e-16
  outer loop
    vertex 29.889109561261638 76.6288418140691 0.0
    vertex 32.69584340197785 79.97377695219835 2.4000000000000012
    vertex 32.69584340197785 79.97377695219835 -2.8199664825478977e-16
  endloop
endfacet
facet normal -0.7660444431189765 0.642787609686541 4.574258651927109e-16
  outer loop
    vertex 22.83025798580766 68.21643008943252 2.4000000000000012
    vertex 20.023524145091407 64.87149495130325 -2.8199664825478977e-16
    vertex 20.023524145091407 64.87149495130325 2.4000000000000012
  endloop
endfacet
facet normal -0.7660444431189765 0.642787609686541 4.574258651927109e-16
  outer loop
    vertex 20.023524145091407 64.87149495130325 -2.8199664825478977e-16
    vertex 22.83025798580766 68.21643008943252 2.4000000000000012
    vertex 22.83025798580766 68.21643008943252 0.0
  endloop
endfacet
facet normal -0.7660444431189765 0.642787609686541 4.574258651927109e-16
  outer loop
    vertex 22.83025798580766 68.21643008943252 0.0
    vertex 22.83025798580766 68.21643008943252 2.4000000000000012
    vertex 22.83025798580766 68.21643008943252 1.2000000000000006
  endloop
endfacet
facet normal -0.7660444431189765 0.642787609686541 4.574258651927109e-16
  outer loop
    vertex 22.83025798580766 68.21643008943252 0.0
    vertex 22.83025798580766 68.21643008943252 1.2000000000000006
    vertex 26.359683773534652 72.42263595175079 1.2000000000000006
  endloop
endfacet
facet normal -0.7660444431189765 0.642787609686541 4.574258651927109e-16
  outer loop
    vertex 22.83025798580766 68.21643008943252 0.0
    vertex 26.359683773534652 72.42263595175079 1.2000000000000006
    vertex 26.359683773534652 72.42263595175079 0.0
  endloop
endfacet
facet normal -0.7660444431189765 0.642787609686541 4.574258651927109e-16
  outer loop
    vertex 26.359683773534652 72.42263595175079 0.0
    vertex 26.359683773534652 72.42263595175079 1.2000000000000006
    vertex 29.889109561261638 76.6288418140691 1.2000000000000006
  endloop
endfacet
facet normal -0.7660444431189765 0.642787609686541 4.574258651927109e-16
  outer loop
    vertex 26.359683773534652 72.42263595175079 0.0
    vertex 29.889109561261638 76.6288418140691 1.2000000000000006
    vertex 29.889109561261638 76.6288418140691 0.0
  endloop
endfacet
facet normal 0.7660444431189802 0.642787609686537 0.0
  outer loop
    vertex 42.35181238785642 75.25931353187572 1.2000000000000006
    vertex 68.12189313942389 44.54772721475208 2.4000000000000012
    vertex 68.12189313942389 44.54772721475208 1.2000000000000006
  endloop
endfacet
facet normal 0.7660444431189802 0.642787609686537 0.0
  outer loop
    vertex 68.12189313942389 44.54772721475208 2.4000000000000012
    vertex 42.35181238785642 75.25931353187572 1.2000000000000006
    vertex 42.35181238785642 75.25931353187572 2.4000000000000012
  endloop
endfacet
facet normal 0.6427876096865361 -0.7660444431189808 0.0
  outer loop
    vertex 72.32809900174216 48.077153002479015 1.2000000000000006
    vertex 68.12189313942389 44.54772721475208 0.0
    vertex 72.32809900174216 48.077153002479015 0.0
  endloop
endfacet
facet normal 0.6427876096865361 -0.7660444431189808 0.0
  outer loop
    vertex 68.12189313942389 44.54772721475208 0.0
    vertex 72.32809900174216 48.077153002479015 1.2000000000000006
    vertex 68.12189313942389 44.54772721475208 1.2000000000000006
  endloop
endfacet
facet normal 0.5000000000000047 0.8660254037844362 0.0
  outer loop
    vertex 20.852293897621312 46.67051481232918 2.4000000000000012
    vertex 55.57222977086743 26.624950489663732 1.2000000000000006
    vertex 20.852293897621312 46.67051481232918 1.2000000000000006
  endloop
endfacet
facet normal 0.5000000000000047 0.8660254037844362 0.0
  outer loop
    vertex 55.57222977086743 26.624950489663732 1.2000000000000006
    vertex 20.852293897621312 46.67051481232918 2.4000000000000012
    vertex 55.57222977086743 26.624950489663732 2.4000000000000012
  endloop
endfacet
facet normal 0.0 0.0 1.0
  outer loop
    vertex -1.6919798895287383e-14 5.490811793102472 2.4000000000000012
    vertex 0.7582352386570753 14.15748022874944 2.4000000000000012
    vertex -2.255973186038318e-14 9.857314504760135 2.4000000000000012
  endloop
endfacet
facet normal 0.0 0.0 1.0
  outer loop
    vertex 0.7582352386570753 14.15748022874944 2.4000000000000012
    vertex -1.6919798895287383e-14 5.490811793102472 2.4000000000000012
    vertex 31.772902916264247 5.490811793102252 2.4000000000000012
  endloop
endfacet
facet normal 0.0 0.0 1.0
  outer loop
    vertex 0.7582352386570753 14.15748022874944 2.4000000000000012
    vertex 31.772902916264247 5.490811793102252 2.4000000000000012
    vertex 31.772902916264265 7.077545692277102 2.4000000000000012
  endloop
endfacet
facet normal 0.0 0.0 1.0
  outer loop
    vertex 0.7582352386570753 14.15748022874944 2.4000000000000012
    vertex 31.772902916264265 7.077545692277102 2.4000000000000012
    vertex 32.04843636629827 8.640173538151627 2.4000000000000012
  endloop
endfacet
facet normal 0.7660444431189758 -0.6427876096865421 7.09821474133723e-18
  outer loop
    vertex 37.53547330356091 75.13414705061547 1.2
    vertex 35.112173492943526 72.24617079537938 2.4000000000000012
    vertex 35.112173492943526 72.24617079537938 1.2000000000000006
  endloop
endfacet
facet normal 0.7660444431189758 -0.6427876096865421 7.09821474133723e-18
  outer loop
    vertex 35.112173492943526 72.24617079537938 2.4000000000000012
    vertex 37.53547330356091 75.13414705061547 1.2
    vertex 37.53547330356091 75.13414705061547 2.4000000000000012
  endloop
endfacet
facet normal -6.4392935428259095e-15 -1.0 0.0
  outer loop
    vertex 31.772902916264247 5.490811793102252 2.4000000000000012
    vertex -1.6919798895287383e-14 5.490811793102472 1.2000000000000006
    vertex 31.772902916264247 5.490811793102252 1.2000000000000006
  endloop
endfacet
facet normal -6.4392935428259095e-15 -1.0 0.0
  outer loop
    vertex -1.6919798895287383e-14 5.490811793102472 1.2000000000000006
    vertex 31.772902916264247 5.490811793102252 2.4000000000000012
    vertex -1.6919798895287383e-14 5.490811793102472 2.4000000000000012
  endloop
endfacet
facet normal 0.642787609686543 0.7660444431189749 0.0
  outer loop
    vertex 30.351455246846477 61.90539624168324 2.4000000000000012
    vertex 61.06304156396989 36.13531549011552 1.2000000000000006
    vertex 30.351455246846477 61.90539624168324 1.2000000000000006
  endloop
endfacet
facet normal 0.642787609686543 0.7660444431189749 0.0
  outer loop
    vertex 61.06304156396989 36.13531549011552 1.2000000000000006
    vertex 30.351455246846477 61.90539624168324 2.4000000000000012
    vertex 61.06304156396989 36.13531549011552 2.4000000000000012
  endloop
endfacet
facet normal -0.8660254037844368 0.500000000000003 -2.5368302414401447e-15
  outer loop
    vertex 28.096865322936704 59.218480600037054 2.4000000000000012
    vertex 26.343105690723764 56.180879812780965 1.2
    vertex 26.343105690723764 56.180879812780965 2.400000000000003
  endloop
endfacet
facet normal -0.8660254037844368 0.500000000000003 -2.5368302414401447e-15
  outer loop
    vertex 26.343105690723764 56.180879812780965 1.2
    vertex 28.096865322936704 59.218480600037054 2.4000000000000012
    vertex 28.096865322936733 59.218480600037076 1.2
  endloop
endfacet
facet normal -0.6427876096865465 -0.7660444431189721 0.0
  outer loop
    vertex 35.112173492943526 72.24617079537938 2.4000000000000012
    vertex 29.889109561261638 76.6288418140691 1.2000000000000006
    vertex 35.112173492943526 72.24617079537938 1.2000000000000006
  endloop
endfacet
facet normal -0.6427876096865465 -0.7660444431189721 0.0
  outer loop
    vertex 29.889109561261638 76.6288418140691 1.2000000000000006
    vertex 35.112173492943526 72.24617079537938 2.4000000000000012
    vertex 29.889109561261638 76.6288418140691 2.4000000000000012
  endloop
endfacet
facet normal -0.7660444431189768 0.642787609686541 -7.098214741338401e-18
  outer loop
    vertex 39.66489674621033 73.00472360796604 2.4000000000000012
    vertex 37.41030682230053 70.31780796631978 1.2000000000000006
    vertex 37.41030682230053 70.31780796631978 2.4000000000000012
  endloop
endfacet
facet normal -0.7660444431189768 0.642787609686541 -7.098214741338401e-18
  outer loop
    vertex 37.41030682230053 70.31780796631978 1.2000000000000006
    vertex 39.66489674621033 73.00472360796604 2.4000000000000012
    vertex 39.66489674621033 73.00472360796604 1.2
  endloop
endfacet
facet normal 0.0 0.0 1.0
  outer loop
    vertex 35.112173492943526 72.24617079537938 2.4000000000000012
    vertex 32.69584340197785 79.97377695219835 2.4000000000000012
    vertex 29.889109561261638 76.6288418140691 2.4000000000000012
  endloop
endfacet
facet normal 0.0 0.0 1.0
  outer loop
    vertex 32.69584340197785 79.97377695219835 2.4000000000000012
    vertex 35.112173492943526 72.24617079537938 2.4000000000000012
    vertex 36.040778540107176 82.78051079291457 2.4000000000000012
  endloop
endfacet
facet normal 0.0 0.0 1.0
  outer loop
    vertex 36.040778540107176 82.78051079291457 2.4000000000000012
    vertex 35.112173492943526 72.24617079537938 2.4000000000000012
    vertex 37.53547330356091 75.13414705061547 2.4000000000000012
  endloop
endfacet
facet normal 0.0 0.0 1.0
  outer loop
    vertex 36.040778540107176 82.78051079291457 2.4000000000000012
    vertex 37.53547330356091 75.13414705061547 2.4000000000000012
    vertex 40.423449558796825 77.55744686123265 2.4000000000000012
  endloop
endfacet
facet normal 0.42261826174073386 0.9063077870366338 -6.358999771020465e-15
  outer loop
    vertex 16.36922505876626 44.90561180960349 2.4000000000000012
    vertex 19.098534265408457 43.63291402507314 1.2
    vertex 16.36922505876626 44.90561180960349 1.2
  endloop
endfacet
facet normal 0.42261826174073386 0.9063077870366338 -6.358999771020465e-15
  outer loop
    vertex 19.098534265408457 43.63291402507314 1.2
    vertex 16.36922505876626 44.90561180960349 2.4000000000000012
    vertex 19.098534265408436 43.63291402507316 2.4000000000000012
  endloop
endfacet
facet normal -0.34202014332567415 -0.9396926207859065 0.0
  outer loop
    vertex 38.52954016841879 32.827982216793195 2.4000000000000012
    vertex 8.672777757058151 43.69495502608669 1.2000000000000006
    vertex 38.52954016841879 32.827982216793195 1.2000000000000006
  endloop
endfacet
facet normal -0.34202014332567415 -0.9396926207859065 0.0
  outer loop
    vertex 8.672777757058151 43.69495502608669 1.2000000000000006
    vertex 38.52954016841879 32.827982216793195 2.4000000000000012
    vertex 8.672777757058151 43.69495502608669 2.4000000000000012
  endloop
endfacet
facet normal -0.6427876096865361 0.7660444431189808 0.0
  outer loop
    vertex 39.66489674621033 73.00472360796604 2.4000000000000012
    vertex 42.35181238785642 75.25931353187572 1.2000000000000006
    vertex 39.66489674621033 73.00472360796604 1.2
  endloop
endfacet
facet normal -0.6427876096865361 0.7660444431189808 0.0
  outer loop
    vertex 42.35181238785642 75.25931353187572 1.2000000000000006
    vertex 39.66489674621033 73.00472360796604 2.4000000000000012
    vertex 42.35181238785642 75.25931353187572 2.4000000000000012
  endloop
endfacet
facet normal 2.254370887865918e-16 2.8549820754644895e-16 1.0
  outer loop
    vertex 61.06304156396989 36.13531549011552 2.4000000000000012
    vertex 28.096865322936704 59.218480600037054 2.4000000000000012
    vertex 26.343105690723764 56.180879812780965 2.400000000000003
  endloop
endfacet
facet normal 2.254370887865918e-16 2.8549820754644895e-16 1.0
  outer loop
    vertex 28.096865322936704 59.218480600037054 2.4000000000000012
    vertex 61.06304156396989 36.13531549011552 2.4000000000000012
    vertex 30.351455246846477 61.90539624168324 2.4000000000000012
  endloop
endfacet
facet normal 0.8660254037844376 -0.5000000000000019 7.0872398365381734e-15
  outer loop
    vertex 18.25421768626802 48.17051481232918 1.2
    vertex 16.36922505876626 44.90561180960349 2.4000000000000012
    vertex 16.36922505876626 44.90561180960349 1.2
  endloop
endfacet
facet normal 0.8660254037844376 -0.5000000000000019 7.0872398365381734e-15
  outer loop
    vertex 16.36922505876626 44.90561180960349 2.4000000000000012
    vertex 18.25421768626802 48.17051481232918 1.2
    vertex 18.25421768626802 48.17051481232918 2.400000000000003
  endloop
endfacet
facet normal 0.0 0.0 1.0
  outer loop
    vertex 68.12189313942389 44.54772721475208 2.4000000000000012
    vertex 39.66489674621033 73.00472360796604 2.4000000000000012
    vertex 37.41030682230053 70.31780796631978 2.4000000000000012
  endloop
endfacet
facet normal 0.0 0.0 1.0
  outer loop
    vertex 39.66489674621033 73.00472360796604 2.4000000000000012
    vertex 68.12189313942389 44.54772721475208 2.4000000000000012
    vertex 42.35181238785642 75.25931353187572 2.4000000000000012
  endloop
endfacet
facet normal -4.791655126189851e-17 -1.1229409047859104e-16 1.0
  outer loop
    vertex 55.57222977086743 26.624950489663732 2.4000000000000012
    vertex 41.80154433067654 33.04632656846852 2.4000000000000017
    vertex 41.348618030776535 31.801921786816212 2.4000000000000012
  endloop
endfacet
facet normal -4.791655126189851e-17 -1.1229409047859104e-16 1.0
  outer loop
    vertex 38.52954016841879 32.827982216793195 2.4000000000000012
    vertex 10.16620964033125 47.798125402873076 2.4000000000000012
    vertex 8.672777757058151 43.69495502608669 2.4000000000000012
  endloop
endfacet
facet normal -4.791655126189851e-17 -1.1229409047859104e-16 1.0
  outer loop
    vertex 10.16620964033125 47.798125402873076 2.4000000000000012
    vertex 38.52954016841879 32.827982216793195 2.4000000000000012
    vertex 16.36922505876626 44.90561180960349 2.4000000000000012
  endloop
endfacet
facet normal -4.791655126189851e-17 -1.1229409047859104e-16 1.0
  outer loop
    vertex 10.16620964033125 47.798125402873076 2.4000000000000012
    vertex 16.36922505876626 44.90561180960349 2.4000000000000012
    vertex 12.349460996160072 51.57962767686226 2.4000000000000012
  endloop
endfacet
facet normal -4.791655126189851e-17 -1.1229409047859104e-16 1.0
  outer loop
    vertex 16.36922505876626 44.90561180960349 2.4000000000000012
    vertex 38.52954016841879 32.827982216793195 2.4000000000000012
    vertex 19.098534265408436 43.63291402507316 2.4000000000000012
  endloop
endfacet
facet normal -4.791655126189851e-17 -1.1229409047859104e-16 1.0
  outer loop
    vertex 19.098534265408436 43.63291402507316 2.4000000000000012
    vertex 38.52954016841879 32.827982216793195 2.4000000000000012
    vertex 20.852293897621312 46.67051481232918 2.4000000000000012
  endloop
endfacet
facet normal -4.791655126189851e-17 -1.1229409047859104e-16 1.0
  outer loop
    vertex 20.852293897621312 46.67051481232918 2.4000000000000012
    vertex 38.52954016841879 32.827982216793195 2.4000000000000012
    vertex 39.07223512403424 34.319024352998625 2.400000000000001
  endloop
endfacet
facet normal -4.791655126189851e-17 -1.1229409047859104e-16 1.0
  outer loop
    vertex 20.852293897621312 46.67051481232918 2.4000000000000012
    vertex 39.07223512403424 34.319024352998625 2.400000000000001
    vertex 41.80154433067654 33.04632656846852 2.4000000000000017
  endloop
endfacet
facet normal -4.791655126189851e-17 -1.1229409047859104e-16 1.0
  outer loop
    vertex 20.852293897621312 46.67051481232918 2.4000000000000012
    vertex 41.80154433067654 33.04632656846852 2.4000000000000017
    vertex 55.57222977086743 26.624950489663732 2.4000000000000012
  endloop
endfacet
facet normal -4.791655126189851e-17 -1.1229409047859104e-16 1.0
  outer loop
    vertex 18.25421768626802 48.17051481232918 2.400000000000003
    vertex 12.349460996160072 51.57962767686226 2.4000000000000012
    vertex 16.36922505876626 44.90561180960349 2.4000000000000012
  endloop
endfacet
facet normal 0.5000000000000012 0.866025403784438 1.2027527528449744e-17
  outer loop
    vertex 12.349460996160072 51.57962767686226 1.2000000000000006
    vertex 18.25421768626802 48.17051481232918 2.400000000000003
    vertex 18.25421768626802 48.17051481232918 1.2
  endloop
endfacet
facet normal 0.5000000000000012 0.866025403784438 1.2027527528449744e-17
  outer loop
    vertex 18.25421768626802 48.17051481232918 2.400000000000003
    vertex 12.349460996160072 51.57962767686226 1.2000000000000006
    vertex 12.349460996160072 51.57962767686226 2.4000000000000012
  endloop
endfacet
facet normal -0.17364817766693713 -0.9848077530122069 -2.544495224895895e-16
  outer loop
    vertex 33.95537528986692 19.454961586508 2.400000000000005
    vertex 2.6651741622256817 24.97226827710583 1.2000000000000006
    vertex 33.95537528986692 19.454961586508 1.2
  endloop
endfacet
facet normal -0.17364817766693713 -0.9848077530122069 -2.544495224895895e-16
  outer loop
    vertex 2.6651741622256817 24.97226827710583 1.2000000000000006
    vertex 33.95537528986692 19.454961586508 2.400000000000005
    vertex 2.6651741622256817 24.97226827710583 2.4000000000000012
  endloop
endfacet
facet normal -0.8660254037844394 0.49999999999999856 -7.090675871168139e-15
  outer loop
    vertex 19.098534265408436 43.63291402507316 2.4000000000000012
    vertex 20.852293897621312 46.67051481232918 1.2000000000000006
    vertex 19.098534265408457 43.63291402507314 1.2
  endloop
endfacet
facet normal -0.8660254037844394 0.49999999999999856 -7.090675871168139e-15
  outer loop
    vertex 20.852293897621312 46.67051481232918 1.2000000000000006
    vertex 19.098534265408436 43.63291402507316 2.4000000000000012
    vertex 20.852293897621312 46.67051481232918 2.4000000000000012
  endloop
endfacet
facet normal -0.7660444431189782 0.642787609686539 -1.3101124692495683e-15
  outer loop
    vertex 30.351455246846477 61.90539624168324 2.4000000000000012
    vertex 28.096865322936733 59.218480600037076 1.2
    vertex 28.096865322936704 59.218480600037054 2.4000000000000012
  endloop
endfacet
facet normal -0.7660444431189782 0.642787609686539 -1.3101124692495683e-15
  outer loop
    vertex 28.096865322936733 59.218480600037076 1.2
    vertex 30.351455246846477 61.90539624168324 2.4000000000000012
    vertex 30.351455246846477 61.90539624168324 1.2000000000000006
  endloop
endfacet
facet normal -0.5000000000000054 -0.8660254037844355 4.3303599337764006e-16
  outer loop
    vertex 61.06304156396989 36.13531549011552 1.2000000000000006
    vertex 26.343105690723764 56.180879812780965 2.400000000000003
    vertex 26.343105690723764 56.180879812780965 1.2
  endloop
endfacet
facet normal -0.5000000000000054 -0.8660254037844355 4.3303599337764006e-16
  outer loop
    vertex 26.343105690723764 56.180879812780965 2.400000000000003
    vertex 61.06304156396989 36.13531549011552 1.2000000000000006
    vertex 61.06304156396989 36.13531549011552 2.4000000000000012
  endloop
endfacet
facet normal 0.8660254037844352 -0.5000000000000059 -1.761495119194274e-17
  outer loop
    vertex 25.630022106872293 60.94578281550685 1.2
    vertex 23.745029479370448 57.68087981278099 2.400000000000003
    vertex 23.745029479370448 57.68087981278099 1.2
  endloop
endfacet
facet normal 0.8660254037844352 -0.5000000000000059 -1.761495119194274e-17
  outer loop
    vertex 23.745029479370448 57.68087981278099 2.400000000000003
    vertex 25.630022106872293 60.94578281550685 1.2
    vertex 25.630022106872293 60.94578281550685 2.4000000000000012
  endloop
endfacet
facet normal 0.6427876096865361 -0.7660444431189808 0.0
  outer loop
    vertex 40.423449558796825 77.55744686123265 1.2000000000000006
    vertex 37.53547330356091 75.13414705061547 2.4000000000000012
    vertex 37.53547330356091 75.13414705061547 1.2
  endloop
endfacet
facet normal 0.6427876096865361 -0.7660444431189808 0.0
  outer loop
    vertex 37.53547330356091 75.13414705061547 2.4000000000000012
    vertex 40.423449558796825 77.55744686123265 1.2000000000000006
    vertex 40.423449558796825 77.55744686123265 2.4000000000000012
  endloop
endfacet
facet normal 0.34202014332567504 0.9396926207859061 -4.521291375332635e-16
  outer loop
    vertex 4.916841284155821 33.37560437788147 1.2000000000000006
    vertex 34.77360369551644 22.508631568587976 2.400000000000005
    vertex 34.77360369551644 22.508631568587976 1.2
  endloop
endfacet
facet normal 0.34202014332567504 0.9396926207859061 -4.521291375332635e-16
  outer loop
    vertex 34.77360369551644 22.508631568587976 2.400000000000005
    vertex 4.916841284155821 33.37560437788147 1.2000000000000006
    vertex 4.916841284155821 33.37560437788147 2.4000000000000012
  endloop
endfacet
facet normal 0.17364817766693713 0.9848077530122069 3.048309955829703e-15
  outer loop
    vertex 0.7582352386570753 14.15748022874944 1.2000000000000006
    vertex 32.04843636629827 8.640173538151627 2.4000000000000012
    vertex 32.04843636629826 8.640173538151638 1.2
  endloop
endfacet
facet normal 0.17364817766693713 0.9848077530122069 3.048309955829703e-15
  outer loop
    vertex 32.04843636629827 8.640173538151627 2.4000000000000012
    vertex 0.7582352386570753 14.15748022874944 1.2000000000000006
    vertex 0.7582352386570753 14.15748022874944 2.4000000000000012
  endloop
endfacet
facet normal 2.1624501944048485e-16 1.4831078052122964e-15 1.0
  outer loop
    vertex 49.90935437439643 5.490811793102116 2.4000000000000012
    vertex 34.77290291626427 6.815079701699261 2.4000000000000012
    vertex 34.77290291626425 5.490811793102241 2.400000000000005
  endloop
endfacet
facet normal 2.1624501944048485e-16 1.4831078052122964e-15 1.0
  outer loop
    vertex 34.77290291626427 6.815079701699261 2.4000000000000012
    vertex 49.90935437439643 5.490811793102116 2.4000000000000012
    vertex 35.00285962533492 8.11922900515083 2.4000000000000012
  endloop
endfacet
facet normal -8.034248329823786e-17 2.152770351766244e-17 1.0
  outer loop
    vertex 33.95537528986692 19.454961586508 2.400000000000005
    vertex 3.4234094008827682 29.272434001095107 2.4000000000000012
    vertex 2.6651741622256817 24.97226827710583 2.4000000000000012
  endloop
endfacet
facet normal -8.034248329823786e-17 2.152770351766244e-17 1.0
  outer loop
    vertex 3.4234094008827682 29.272434001095107 2.4000000000000012
    vertex 33.95537528986692 19.454961586508 2.400000000000005
    vertex 4.916841284155821 33.37560437788147 2.4000000000000012
  endloop
endfacet
facet normal -8.034248329823786e-17 2.152770351766244e-17 1.0
  outer loop
    vertex 4.916841284155821 33.37560437788147 2.4000000000000012
    vertex 33.95537528986692 19.454961586508 2.400000000000005
    vertex 34.23090873990094 21.017589432382405 2.4000000000000012
  endloop
endfacet
facet normal -8.034248329823786e-17 2.152770351766244e-17 1.0
  outer loop
    vertex 4.916841284155821 33.37560437788147 2.4000000000000012
    vertex 34.23090873990094 21.017589432382405 2.4000000000000012
    vertex 34.77360369551644 22.508631568587976 2.400000000000005
  endloop
endfacet
facet normal 0.7660444431189786 -0.6427876096865387 -2.1386268219408628e-18
  outer loop
    vertex 28.053321917489523 63.83375907074282 1.2000000000000006
    vertex 25.630022106872293 60.94578281550685 2.4000000000000012
    vertex 25.630022106872293 60.94578281550685 1.2
  endloop
endfacet
facet normal 0.7660444431189786 -0.6427876096865387 -2.1386268219408628e-18
  outer loop
    vertex 25.630022106872293 60.94578281550685 2.4000000000000012
    vertex 28.053321917489523 63.83375907074282 1.2000000000000006
    vertex 28.053321917489523 63.83375907074282 2.400000000000003
  endloop
endfacet
facet normal 0.7660444431189802 0.642787609686537 0.0
  outer loop
    vertex 36.040778540107176 82.78051079291457 1.2000000000000006
    vertex 40.423449558796825 77.55744686123265 2.4000000000000012
    vertex 40.423449558796825 77.55744686123265 1.2000000000000006
  endloop
endfacet
facet normal 0.7660444431189802 0.642787609686537 0.0
  outer loop
    vertex 40.423449558796825 77.55744686123265 2.4000000000000012
    vertex 36.040778540107176 82.78051079291457 1.2000000000000006
    vertex 36.040778540107176 82.78051079291457 2.4000000000000012
  endloop
endfacet
facet normal -6.4583876458522295e-18 -2.697314964789134e-18 1.0
  outer loop
    vertex 19.098534265408457 43.63291402507314 1.2
    vertex 18.25421768626802 48.17051481232918 1.2
    vertex 16.36922505876626 44.90561180960349 1.2
  endloop
endfacet
facet normal -6.4583876458522295e-18 -2.697314964789134e-18 1.0
  outer loop
    vertex 18.25421768626802 48.17051481232918 1.2
    vertex 15.094866892711348 56.334810177088144 1.2000000000000006
    vertex 12.349460996160072 51.57962767686226 1.2000000000000006
  endloop
endfacet
facet normal -6.4583876458522295e-18 -2.697314964789134e-18 1.0
  outer loop
    vertex 15.094866892711348 56.334810177088144 1.2000000000000006
    vertex 18.25421768626802 48.17051481232918 1.2
    vertex 17.840272789262556 61.08999267731404 1.2000000000000006
  endloop
endfacet
facet normal -6.4583876458522295e-18 -2.697314964789134e-18 1.0
  outer loop
    vertex 17.840272789262556 61.08999267731404 1.2000000000000006
    vertex 18.25421768626802 48.17051481232918 1.2
    vertex 23.745029479370448 57.68087981278099 1.2
  endloop
endfacet
facet normal -6.4583876458522295e-18 -2.697314964789134e-18 1.0
  outer loop
    vertex 23.745029479370448 57.68087981278099 1.2
    vertex 18.25421768626802 48.17051481232918 1.2
    vertex 19.098534265408457 43.63291402507314 1.2
  endloop
endfacet
facet normal -6.4583876458522295e-18 -2.697314964789134e-18 1.0
  outer loop
    vertex 23.745029479370448 57.68087981278099 1.2
    vertex 19.098534265408457 43.63291402507314 1.2
    vertex 20.852293897621312 46.67051481232918 1.2000000000000006
  endloop
endfacet
facet normal -6.4583876458522295e-18 -2.697314964789134e-18 1.0
  outer loop
    vertex 23.745029479370448 57.68087981278099 1.2
    vertex 20.852293897621312 46.67051481232918 1.2000000000000006
    vertex 55.57222977086743 26.624950489663732 1.2000000000000006
  endloop
endfacet
facet normal -6.4583876458522295e-18 -2.697314964789134e-18 1.0
  outer loop
    vertex 23.745029479370448 57.68087981278099 1.2
    vertex 55.57222977086743 26.624950489663732 1.2000000000000006
    vertex 26.343105690723764 56.180879812780965 1.2
  endloop
endfacet
facet normal -6.4583876458522295e-18 -2.697314964789134e-18 1.0
  outer loop
    vertex 23.745029479370448 57.68087981278099 1.2
    vertex 26.343105690723764 56.180879812780965 1.2
    vertex 25.630022106872293 60.94578281550685 1.2
  endloop
endfacet
facet normal -6.4583876458522295e-18 -2.697314964789134e-18 1.0
  outer loop
    vertex 26.343105690723764 56.180879812780965 1.2
    vertex 55.57222977086743 26.624950489663732 1.2000000000000006
    vertex 61.06304156396989 36.13531549011552 1.2000000000000006
  endloop
endfacet
facet normal -6.4583876458522295e-18 -2.697314964789134e-18 1.0
  outer loop
    vertex 61.06304156396989 36.13531549011552 1.2000000000000006
    vertex 55.57222977086743 26.624950489663732 1.2000000000000006
    vertex 58.317635667418664 31.380132989889624 1.2000000000000006
  endloop
endfacet
facet normal -6.4583876458522295e-18 -2.697314964789134e-18 1.0
  outer loop
    vertex 28.053321917489523 63.83375907074282 1.2000000000000006
    vertex 26.359683773534652 72.42263595175079 1.2000000000000006
    vertex 22.83025798580766 68.21643008943252 1.2000000000000006
  endloop
endfacet
facet normal -6.4583876458522295e-18 -2.697314964789134e-18 1.0
  outer loop
    vertex 26.359683773534652 72.42263595175079 1.2000000000000006
    vertex 28.053321917489523 63.83375907074282 1.2000000000000006
    vertex 29.889109561261638 76.6288418140691 1.2000000000000006
  endloop
endfacet
facet normal -6.4583876458522295e-18 -2.697314964789134e-18 1.0
  outer loop
    vertex 29.889109561261638 76.6288418140691 1.2000000000000006
    vertex 28.053321917489523 63.83375907074282 1.2000000000000006
    vertex 28.096865322936733 59.218480600037076 1.2
  endloop
endfacet
facet normal -6.4583876458522295e-18 -2.697314964789134e-18 1.0
  outer loop
    vertex 29.889109561261638 76.6288418140691 1.2000000000000006
    vertex 28.096865322936733 59.218480600037076 1.2
    vertex 30.351455246846477 61.90539624168324 1.2000000000000006
  endloop
endfacet
facet normal -6.4583876458522295e-18 -2.697314964789134e-18 1.0
  outer loop
    vertex 29.889109561261638 76.6288418140691 1.2000000000000006
    vertex 30.351455246846477 61.90539624168324 1.2000000000000006
    vertex 35.112173492943526 72.24617079537938 1.2000000000000006
  endloop
endfacet
facet normal -6.4583876458522295e-18 -2.697314964789134e-18 1.0
  outer loop
    vertex 35.112173492943526 72.24617079537938 1.2000000000000006
    vertex 30.351455246846477 61.90539624168324 1.2000000000000006
    vertex 61.06304156396989 36.13531549011552 1.2000000000000006
  endloop
endfacet
facet normal -6.4583876458522295e-18 -2.697314964789134e-18 1.0
  outer loop
    vertex 35.112173492943526 72.24617079537938 1.2000000000000006
    vertex 61.06304156396989 36.13531549011552 1.2000000000000006
    vertex 37.41030682230053 70.31780796631978 1.2000000000000006
  endloop
endfacet
facet normal -6.4583876458522295e-18 -2.697314964789134e-18 1.0
  outer loop
    vertex 37.41030682230053 70.31780796631978 1.2000000000000006
    vertex 61.06304156396989 36.13531549011552 1.2000000000000006
    vertex 64.59246735169692 40.34152135243385 1.2000000000000006
  endloop
endfacet
facet normal -6.4583876458522295e-18 -2.697314964789134e-18 1.0
  outer loop
    vertex 37.41030682230053 70.31780796631978 1.2000000000000006
    vertex 64.59246735169692 40.34152135243385 1.2000000000000006
    vertex 68.12189313942389 44.54772721475208 1.2000000000000006
  endloop
endfacet
facet normal -6.4583876458522295e-18 -2.697314964789134e-18 1.0
  outer loop
    vertex 37.41030682230053 70.31780796631978 1.2000000000000006
    vertex 37.53547330356091 75.13414705061547 1.2
    vertex 35.112173492943526 72.24617079537938 1.2000000000000006
  endloop
endfacet
facet normal -6.4583876458522295e-18 -2.697314964789134e-18 1.0
  outer loop
    vertex 37.53547330356091 75.13414705061547 1.2
    vertex 37.41030682230053 70.31780796631978 1.2000000000000006
    vertex 39.66489674621033 73.00472360796604 1.2
  endloop
endfacet
facet normal -6.4583876458522295e-18 -2.697314964789134e-18 1.0
  outer loop
    vertex 37.53547330356091 75.13414705061547 1.2
    vertex 39.66489674621033 73.00472360796604 1.2
    vertex 40.423449558796825 77.55744686123265 1.2000000000000006
  endloop
endfacet
facet normal -6.4583876458522295e-18 -2.697314964789134e-18 1.0
  outer loop
    vertex 40.423449558796825 77.55744686123265 1.2000000000000006
    vertex 39.66489674621033 73.00472360796604 1.2
    vertex 42.35181238785642 75.25931353187572 1.2000000000000006
  endloop
endfacet
facet normal -6.4583876458522295e-18 -2.697314964789134e-18 1.0
  outer loop
    vertex 40.423449558796825 77.55744686123265 1.2000000000000006
    vertex 40.24698440242545 86.30993658064152 1.2000000000000006
    vertex 36.040778540107176 82.78051079291457 1.2000000000000006
  endloop
endfacet
facet normal -6.4583876458522295e-18 -2.697314964789134e-18 1.0
  outer loop
    vertex 40.24698440242545 86.30993658064152 1.2000000000000006
    vertex 40.423449558796825 77.55744686123265 1.2000000000000006
    vertex 72.32809900174216 48.077153002479015 1.2000000000000006
  endloop
endfacet
facet normal -6.4583876458522295e-18 -2.697314964789134e-18 1.0
  outer loop
    vertex 72.32809900174216 48.077153002479015 1.2000000000000006
    vertex 40.423449558796825 77.55744686123265 1.2000000000000006
    vertex 42.35181238785642 75.25931353187572 1.2000000000000006
  endloop
endfacet
facet normal -6.4583876458522295e-18 -2.697314964789134e-18 1.0
  outer loop
    vertex 72.32809900174216 48.077153002479015 1.2000000000000006
    vertex 42.35181238785642 75.25931353187572 1.2000000000000006
    vertex 68.12189313942389 44.54772721475208 1.2000000000000006
  endloop
endfacet
facet normal -6.4583876458522295e-18 -2.697314964789134e-18 1.0
  outer loop
    vertex 26.343105690723764 56.180879812780965 1.2
    vertex 28.053321917489523 63.83375907074282 1.2000000000000006
    vertex 25.630022106872293 60.94578281550685 1.2
  endloop
endfacet
facet normal -6.4583876458522295e-18 -2.697314964789134e-18 1.0
  outer loop
    vertex 28.053321917489523 63.83375907074282 1.2000000000000006
    vertex 26.343105690723764 56.180879812780965 1.2
    vertex 28.096865322936733 59.218480600037076 1.2
  endloop
endfacet
facet normal 2.4112989505111903e-18 6.337353140191113e-19 1.0
  outer loop
    vertex 32.04843636629826 8.640173538151638 1.2
    vertex 1.7117047004413686 19.56487425292763 1.2000000000000006
    vertex 0.7582352386570753 14.15748022874944 1.2000000000000006
  endloop
endfacet
facet normal 2.4112989505111903e-18 6.337353140191113e-19 1.0
  outer loop
    vertex 1.7117047004413686 19.56487425292763 1.2000000000000006
    vertex 32.04843636629826 8.640173538151638 1.2
    vertex 2.6651741622256817 24.97226827710583 1.2000000000000006
  endloop
endfacet
facet normal 2.4112989505111903e-18 6.337353140191113e-19 1.0
  outer loop
    vertex 2.6651741622256817 24.97226827710583 1.2000000000000006
    vertex 32.04843636629826 8.640173538151638 1.2
    vertex 33.95537528986692 19.454961586508 1.2
  endloop
endfacet
facet normal 2.4112989505111903e-18 6.337353140191113e-19 1.0
  outer loop
    vertex 0.0 0.0 1.2000000000000006
    vertex 31.772902916264247 5.490811793102252 1.2000000000000006
    vertex -1.6919798895287383e-14 5.490811793102472 1.2000000000000006
  endloop
endfacet
facet normal 2.4112989505111903e-18 6.337353140191113e-19 1.0
  outer loop
    vertex 31.772902916264247 5.490811793102252 1.2000000000000006
    vertex 0.0 0.0 1.2000000000000006
    vertex 49.90935437439644 -3.4121594438829557e-13 1.2000000000000006
  endloop
endfacet
facet normal 2.4112989505111903e-18 6.337353140191113e-19 1.0
  outer loop
    vertex 31.772902916264247 5.490811793102252 1.2000000000000006
    vertex 49.90935437439644 -3.4121594438829557e-13 1.2000000000000006
    vertex 34.772902916264265 5.490811793102229 1.2000000000000006
  endloop
endfacet
facet normal 2.4112989505111903e-18 6.337353140191113e-19 1.0
  outer loop
    vertex 31.772902916264247 5.490811793102252 1.2000000000000006
    vertex 34.772902916264265 5.490811793102229 1.2000000000000006
    vertex 31.772902916264265 7.077545692277102 1.2
  endloop
endfacet
facet normal 2.4112989505111903e-18 6.337353140191113e-19 1.0
  outer loop
    vertex 31.772902916264265 7.077545692277102 1.2
    vertex 34.772902916264265 5.490811793102229 1.2000000000000006
    vertex 32.04843636629826 8.640173538151638 1.2
  endloop
endfacet
facet normal 2.4112989505111903e-18 6.337353140191113e-19 1.0
  outer loop
    vertex 32.04843636629826 8.640173538151638 1.2
    vertex 34.772902916264265 5.490811793102229 1.2000000000000006
    vertex 33.95537528986692 19.454961586508 1.2
  endloop
endfacet
facet normal 2.4112989505111903e-18 6.337353140191113e-19 1.0
  outer loop
    vertex 33.95537528986692 19.454961586508 1.2
    vertex 34.772902916264265 5.490811793102229 1.2000000000000006
    vertex 34.23090873990093 21.017589432382422 1.2
  endloop
endfacet
facet normal 2.4112989505111903e-18 6.337353140191113e-19 1.0
  outer loop
    vertex 34.772902916264265 5.490811793102229 1.2000000000000006
    vertex 49.90935437439644 -3.4121594438829557e-13 1.2000000000000006
    vertex 49.90935437439643 5.490811793102116 1.2000000000000006
  endloop
endfacet
facet normal 2.4112989505111903e-18 6.337353140191113e-19 1.0
  outer loop
    vertex 34.23090873990093 21.017589432382422 1.2
    vertex 34.772902916264265 6.815079701699261 1.2
    vertex 34.77360369551644 22.508631568587976 1.2
  endloop
endfacet
facet normal 2.4112989505111903e-18 6.337353140191113e-19 1.0
  outer loop
    vertex 34.772902916264265 6.815079701699261 1.2
    vertex 34.23090873990093 21.017589432382422 1.2
    vertex 34.772902916264265 5.490811793102229 1.2000000000000006
  endloop
endfacet
facet normal 2.4112989505111903e-18 6.337353140191113e-19 1.0
  outer loop
    vertex 34.77360369551644 22.508631568587976 1.2
    vertex 34.772902916264265 6.815079701699261 1.2
    vertex 35.002859625334914 8.119229005150835 1.2
  endloop
endfacet
facet normal 2.4112989505111903e-18 6.337353140191113e-19 1.0
  outer loop
    vertex 49.90935437439643 5.490811793102116 1.2000000000000006
    vertex 36.90979854890356 18.93401705350721 1.2
    vertex 35.002859625334914 8.119229005150835 1.2
  endloop
endfacet
facet normal 2.4112989505111903e-18 6.337353140191113e-19 1.0
  outer loop
    vertex 36.90979854890356 18.93401705350721 1.2
    vertex 49.90935437439643 5.490811793102116 1.2000000000000006
    vertex 51.81629329796508 16.305599841458484 1.2000000000000006
  endloop
endfacet
facet normal 2.4112989505111903e-18 6.337353140191113e-19 1.0
  outer loop
    vertex 51.81629329796508 16.305599841458484 1.2000000000000006
    vertex 49.90935437439643 5.490811793102116 1.2000000000000006
    vertex 50.862823836180766 10.898205817280337 1.2000000000000006
  endloop
endfacet
facet normal 2.4112989505111903e-18 6.337353140191113e-19 1.0
  outer loop
    vertex 41.80154433067654 33.04632656846852 1.2
    vertex 39.07223512403425 34.319024352998625 1.2
    vertex 41.34861803077654 31.8019217868162 1.2000000000000006
  endloop
endfacet
facet normal 2.4112989505111903e-18 6.337353140191113e-19 1.0
  outer loop
    vertex 34.77360369551644 22.508631568587976 1.2
    vertex 6.794809520607028 38.535279701984095 1.2000000000000006
    vertex 4.916841284155821 33.37560437788147 1.2000000000000006
  endloop
endfacet
facet normal 2.4112989505111903e-18 6.337353140191113e-19 1.0
  outer loop
    vertex 6.794809520607028 38.535279701984095 1.2000000000000006
    vertex 34.77360369551644 22.508631568587976 1.2
    vertex 8.672777757058151 43.69495502608669 1.2000000000000006
  endloop
endfacet
facet normal 2.4112989505111903e-18 6.337353140191113e-19 1.0
  outer loop
    vertex 8.672777757058151 43.69495502608669 1.2000000000000006
    vertex 34.77360369551644 22.508631568587976 1.2
    vertex 38.52954016841879 32.827982216793195 1.2000000000000006
  endloop
endfacet
facet normal 2.4112989505111903e-18 6.337353140191113e-19 1.0
  outer loop
    vertex 38.52954016841879 32.827982216793195 1.2000000000000006
    vertex 34.77360369551644 22.508631568587976 1.2
    vertex 35.002859625334914 8.119229005150835 1.2
  endloop
endfacet
facet normal 2.4112989505111903e-18 6.337353140191113e-19 1.0
  outer loop
    vertex 38.52954016841879 32.827982216793195 1.2000000000000006
    vertex 35.002859625334914 8.119229005150835 1.2
    vertex 36.90979854890356 18.93401705350721 1.2
  endloop
endfacet
facet normal 2.4112989505111903e-18 6.337353140191113e-19 1.0
  outer loop
    vertex 38.52954016841879 32.827982216793195 1.2000000000000006
    vertex 36.90979854890356 18.93401705350721 1.2
    vertex 37.139755257974194 20.238166356958622 1.2
  endloop
endfacet
facet normal 2.4112989505111903e-18 6.337353140191113e-19 1.0
  outer loop
    vertex 38.52954016841879 32.827982216793195 1.2000000000000006
    vertex 37.139755257974194 20.238166356958622 1.2
    vertex 37.59268155787422 21.482571138611014 1.2000000000000006
  endloop
endfacet
facet normal 2.4112989505111903e-18 6.337353140191113e-19 1.0
  outer loop
    vertex 38.52954016841879 32.827982216793195 1.2000000000000006
    vertex 37.59268155787422 21.482571138611014 1.2000000000000006
    vertex 51.81629329796508 16.305599841458484 1.2000000000000006
  endloop
endfacet
facet normal 2.4112989505111903e-18 6.337353140191113e-19 1.0
  outer loop
    vertex 38.52954016841879 32.827982216793195 1.2000000000000006
    vertex 51.81629329796508 16.305599841458484 1.2000000000000006
    vertex 39.07223512403425 34.319024352998625 1.2
  endloop
endfacet
facet normal 2.4112989505111903e-18 6.337353140191113e-19 1.0
  outer loop
    vertex 39.07223512403425 34.319024352998625 1.2
    vertex 51.81629329796508 16.305599841458484 1.2000000000000006
    vertex 41.34861803077654 31.8019217868162 1.2000000000000006
  endloop
endfacet
facet normal 2.4112989505111903e-18 6.337353140191113e-19 1.0
  outer loop
    vertex 41.34861803077654 31.8019217868162 1.2000000000000006
    vertex 51.81629329796508 16.305599841458484 1.2000000000000006
    vertex 53.694261534416235 21.465275165561078 1.2000000000000006
  endloop
endfacet
facet normal 2.4112989505111903e-18 6.337353140191113e-19 1.0
  outer loop
    vertex 41.34861803077654 31.8019217868162 1.2000000000000006
    vertex 53.694261534416235 21.465275165561078 1.2000000000000006
    vertex 55.57222977086743 26.624950489663732 1.2000000000000006
  endloop
endfacet
facet normal 0.9848077530122105 -0.17364817766691718 -2.8816055051202338e-15
  outer loop
    vertex 32.04843636629826 8.640173538151638 1.2
    vertex 31.772902916264265 7.077545692277102 2.4000000000000012
    vertex 31.772902916264265 7.077545692277102 1.2
  endloop
endfacet
facet normal 0.9848077530122105 -0.17364817766691718 -2.8816055051202338e-15
  outer loop
    vertex 31.772902916264265 7.077545692277102 2.4000000000000012
    vertex 32.04843636629826 8.640173538151638 1.2
    vertex 32.04843636629827 8.640173538151627 2.4000000000000012
  endloop
endfacet
facet normal -0.4226182617406695 -0.906307787036664 3.1684117785962455e-15
  outer loop
    vertex 41.80154433067654 33.04632656846852 2.4000000000000017
    vertex 39.07223512403425 34.319024352998625 1.2
    vertex 41.80154433067654 33.04632656846852 1.2
  endloop
endfacet
facet normal -0.4226182617406695 -0.906307787036664 3.1684117785962455e-15
  outer loop
    vertex 39.07223512403425 34.319024352998625 1.2
    vertex 41.80154433067654 33.04632656846852 2.4000000000000017
    vertex 39.07223512403424 34.319024352998625 2.400000000000001
  endloop
endfacet
facet normal -1.0 5.773159728050814e-15 -7.840360774637657e-16
  outer loop
    vertex 34.77290291626425 5.490811793102241 2.400000000000005
    vertex 34.772902916264265 6.815079701699261 1.2
    vertex 34.772902916264265 5.490811793102229 1.2000000000000006
  endloop
endfacet
facet normal -1.0 5.773159728050814e-15 -7.840360774637657e-16
  outer loop
    vertex 34.772902916264265 6.815079701699261 1.2
    vertex 34.77290291626425 5.490811793102241 2.400000000000005
    vertex 34.77290291626427 6.815079701699261 2.4000000000000012
  endloop
endfacet
facet normal 0.939692620785909 -0.342020143325667 6.486545395348428e-15
  outer loop
    vertex 39.07223512403425 34.319024352998625 1.2
    vertex 38.52954016841879 32.827982216793195 2.4000000000000012
    vertex 38.52954016841879 32.827982216793195 1.2000000000000006
  endloop
endfacet
facet normal 0.939692620785909 -0.342020143325667 6.486545395348428e-15
  outer loop
    vertex 38.52954016841879 32.827982216793195 2.4000000000000012
    vertex 39.07223512403425 34.319024352998625 1.2
    vertex 39.07223512403424 34.319024352998625 2.400000000000001
  endloop
endfacet
facet normal 0.9848077530122079 -0.1736481776669323 -5.775778609856531e-15
  outer loop
    vertex 34.23090873990093 21.017589432382422 1.2
    vertex 33.95537528986692 19.454961586508 2.400000000000005
    vertex 33.95537528986692 19.454961586508 1.2
  endloop
endfacet
facet normal 0.9848077530122079 -0.1736481776669323 -5.775778609856531e-15
  outer loop
    vertex 33.95537528986692 19.454961586508 2.400000000000005
    vertex 34.23090873990093 21.017589432382422 1.2
    vertex 34.23090873990094 21.017589432382405 2.4000000000000012
  endloop
endfacet
facet normal 1.0 -9.103828801926285e-15 -1.6975205798656158e-17
  outer loop
    vertex 31.772902916264265 7.077545692277102 1.2
    vertex 31.772902916264247 5.490811793102252 2.4000000000000012
    vertex 31.772902916264247 5.490811793102252 1.2000000000000006
  endloop
endfacet
facet normal 1.0 -9.103828801926285e-15 -1.6975205798656158e-17
  outer loop
    vertex 31.772902916264247 5.490811793102252 2.4000000000000012
    vertex 31.772902916264265 7.077545692277102 1.2
    vertex 31.772902916264265 7.077545692277102 2.4000000000000012
  endloop
endfacet
facet normal -0.9848077530122096 0.17364817766692206 7.717513738209977e-15
  outer loop
    vertex 35.00285962533492 8.11922900515083 2.4000000000000012
    vertex 34.772902916264265 6.815079701699261 1.2
    vertex 34.77290291626427 6.815079701699261 2.4000000000000012
  endloop
endfacet
facet normal -0.9848077530122096 0.17364817766692206 7.717513738209977e-15
  outer loop
    vertex 34.772902916264265 6.815079701699261 1.2
    vertex 35.00285962533492 8.11922900515083 2.4000000000000012
    vertex 35.002859625334914 8.119229005150835 1.2
  endloop
endfacet
facet normal -0.9396926207859072 0.342020143325672 -6.523731587795189e-15
  outer loop
    vertex 41.348618030776535 31.801921786816212 2.4000000000000012
    vertex 41.80154433067654 33.04632656846852 1.2
    vertex 41.34861803077654 31.8019217868162 1.2000000000000006
  endloop
endfacet
facet normal -0.9396926207859072 0.342020143325672 -6.523731587795189e-15
  outer loop
    vertex 41.80154433067654 33.04632656846852 1.2
    vertex 41.348618030776535 31.801921786816212 2.4000000000000012
    vertex 41.80154433067654 33.04632656846852 2.4000000000000017
  endloop
endfacet
facet normal 0.9396926207859089 -0.34202014332566727 -6.53682473445829e-15
  outer loop
    vertex 34.23090873990093 21.017589432382422 1.2
    vertex 34.77360369551644 22.508631568587976 2.400000000000005
    vertex 34.23090873990094 21.017589432382405 2.4000000000000012
  endloop
endfacet
facet normal 0.9396926207859089 -0.34202014332566727 -6.53682473445829e-15
  outer loop
    vertex 34.77360369551644 22.508631568587976 2.400000000000005
    vertex 34.23090873990093 21.017589432382422 1.2
    vertex 34.77360369551644 22.508631568587976 1.2
  endloop
endfacet
facet normal -0.939692620785903 0.34202014332568387 1.1160151688608354e-18
  outer loop
    vertex 37.59268155787422 21.482571138611014 2.4000000000000012
    vertex 37.139755257974194 20.238166356958622 1.2
    vertex 37.139755257974194 20.238166356958622 2.4000000000000012
  endloop
endfacet
facet normal -0.939692620785903 0.34202014332568387 1.1160151688608354e-18
  outer loop
    vertex 37.139755257974194 20.238166356958622 1.2
    vertex 37.59268155787422 21.482571138611014 2.4000000000000012
    vertex 37.59268155787422 21.482571138611014 1.2000000000000006
  endloop
endfacet
facet normal -0.9848077530122082 0.17364817766692933 5.76321101024053e-15
  outer loop
    vertex 37.139755257974194 20.238166356958622 2.4000000000000012
    vertex 36.90979854890356 18.93401705350721 1.2
    vertex 36.909798548903574 18.934017053507198 2.4000000000000012
  endloop
endfacet
facet normal -0.9848077530122082 0.17364817766692933 5.76321101024053e-15
  outer loop
    vertex 36.90979854890356 18.93401705350721 1.2
    vertex 37.139755257974194 20.238166356958622 2.4000000000000012
    vertex 37.139755257974194 20.238166356958622 1.2
  endloop
endfacet
endsolid Untitled-592d5627
